<?xml version="1.0" encoding="utf-8"?>
<!-- Generator: Adobe Illustrator 24.0.0, SVG Export Plug-In . SVG Version: 6.00 Build 0)  -->
<svg version="1.1" id="Layer_1" xmlns="http://www.w3.org/2000/svg" xmlns:xlink="http://www.w3.org/1999/xlink" x="0px" y="0px"
	 viewBox="0 0 726 415.1" style="enable-background:new 0 0 726 415.1;" xml:space="preserve">
<style type="text/css">
	.st0{fill:#181737;}
	.st1{clip-path:url(#SVGID_1_);}
	.st2{fill:#16A24F;}
	.st3{fill:none;stroke:#74C9EE;stroke-width:1.1178;stroke-miterlimit:10;}
	.st4{fill:none;stroke:#16A24F;stroke-width:1.1178;stroke-miterlimit:10;}
	.st5{fill:#EE7919;}
</style>
<g>
	<path class="st0" d="M726,415.1H0c0,0,0,0,0,0V0c0,0,0,0,0,0h726c0,0,0,0,0,0L726,415.1C726,415.1,726,415.1,726,415.1z"/>
</g>
<g>
	<defs>
		<path id="SVGID_3_" d="M693,415.1H33c-18.2,0-33-14.8-33-33V33C0,14.8,14.8,0,33,0h660c18.2,0,33,14.8,33,33v349
			C726,400.3,711.2,415.1,693,415.1z"/>
	</defs>
	<clipPath id="SVGID_1_">
		<use xlink:href="#SVGID_3_"  style="overflow:visible;"/>
	</clipPath>
	<g class="st1">
		<polyline class="st2" points="180.4,211.8 259.2,222.8 248.2,251.6 262.6,270.3 257.5,288.1 278.7,297.4 277,304.1 283.8,307.5 
			273.6,335.5 197.4,313.5 161.8,309.2 171.1,268.6 181.3,215.2 		"/>
		<polygon class="st3" points="346.5,253.3 313.4,327 318.5,329.6 316.8,337.2 343.1,349.1 351.6,327 384.6,340.6 388.8,333 
			494.7,368.5 504.1,354.1 528.6,361.8 533.7,350.7 568.4,345.7 580.3,303.3 521.8,282.1 498.1,266 467.6,258.4 460.8,273.6 
			443.1,260.9 427.8,253.3 403.2,258.4 375.3,244.8 369.4,256.7 		"/>
		<polyline class="st4" points="715.9,327.9 669.3,322.8 646.4,313.5 617.6,311.8 584.5,305 568.4,292.3 523.5,278.7 515.9,272.8 
			498.1,266 486.3,255.9 465.1,254.2 430.4,244.8 384.6,219.4 382.1,209.3 350.7,189.8 195.7,-5.1 187.2,82.2 181.3,157.6 
			184.7,196.6 159.2,316 138.9,344.8 136.4,360.1 138.9,397.3 140.6,420.2 		"/>
		<polyline class="st4" points="-0.9,67.8 55,50.8 66.1,51.7 81.3,45.8 144,56.8 190.6,80.5 		"/>
		<polyline class="st4" points="-7.7,235.5 29.6,223.7 190.6,152.5 244,128.8 311.7,40.7 328.7,22.9 348.2,-4.2 		"/>
		<line class="st4" x1="297.3" y1="122" x2="398.2" y2="-11"/>
		<polyline class="st4" points="174.2,310.1 175.3,329.8 175.3,339.4 187.2,353 193.4,359.8 209.8,363.7 220.5,367.1 229,357.5 
			348.2,387.5 401.8,401 460.6,397.6 476.9,420.8 		"/>
		<polyline class="st4" points="-13.3,333.2 15.5,331.5 63.5,294.8 89.5,276.8 157.3,234.7 		"/>
		<polygon class="st4" points="160.1,308.4 150.5,308.4 162.9,175.1 172.5,175.1 		"/>
		<polyline class="st4" points="121.1,418 27.9,237.8 34.7,222.5 21.7,215.8 37,99.4 43.7,49.1 42.6,20.3 39.8,-1.1 		"/>
		<polyline class="st4" points="109.8,-4 127.3,37.8 122.2,61.6 117.7,81.3 109.3,102.8 104.7,119.7 92.3,192 100.8,194.9 
			85.5,236.7 73.7,275.6 61.8,295.4 55.6,310.6 38.7,341.1 		"/>
		<polyline class="st4" points="0.3,336.1 18.9,338.9 136.4,363.7 		"/>
		<line class="st4" x1="-3.7" y1="279" x2="48.3" y2="305.6"/>
		<path class="st4" d="M103.6,268.3l29.9,12.4c0,0-2.8,25.4,17.5,40.7l1.7,2.3"/>
		<polyline class="st4" points="338,-0.6 374.2,29.4 379.2,39.5 379.2,54.8 384.3,61.6 395.6,74 409.7,80.8 439.7,88.1 		"/>
		<path class="st5" d="M398.9,311.2c-5.6,0-10.1,4.5-10.1,10.1c0,5.6,10.1,18.2,10.1,18.2s10.1-12.6,10.1-18.2
			C408.9,315.7,404.4,311.2,398.9,311.2z M398.9,324.4c-1.7,0-3.1-1.4-3.1-3.1s1.4-3.1,3.1-3.1s3.1,1.4,3.1,3.1
			S400.6,324.4,398.9,324.4z"/>
		<path class="st5" d="M419.8,315.7c-5.6,0-10.1,4.5-10.1,10.1c0,5.6,10.1,18.2,10.1,18.2s10.1-12.6,10.1-18.2
			C429.8,320.2,425.3,315.7,419.8,315.7z M419.8,329c-1.7,0-3.1-1.4-3.1-3.1s1.4-3.1,3.1-3.1c1.7,0,3.1,1.4,3.1,3.1
			S421.5,329,419.8,329z"/>
	</g>
</g>
</svg>
