<?xml version="1.0" encoding="utf-8"?>
<!-- Generator: Adobe Illustrator 24.0.0, SVG Export Plug-In . SVG Version: 6.00 Build 0)  -->
<svg version="1.1" id="Layer_1" xmlns="http://www.w3.org/2000/svg" xmlns:xlink="http://www.w3.org/1999/xlink" x="0px" y="0px"
	 viewBox="0 0 80 80" style="enable-background:new 0 0 80 80;" xml:space="preserve">
<style type="text/css">
	.st0{fill-rule:evenodd;clip-rule:evenodd;fill:#93C01F;}
	.st1{fill:#93C01F;}
</style>
<g>
	<g>
		<g>
			<path class="st0" d="M43.9,18.1c-1.3-1.9-2.5-3.3-3.3-4.2c-0.4-0.5-1.2-0.5-1.7,0c-0.8,0.9-1.9,2.3-3.3,4.2H43.9z"/>
			<path class="st0" d="M51.2,38.7c0,0.7,0,1.4-0.1,2.1c-0.1,1-0.3,2-0.6,2.9H39.2c-0.6,0-1.1,0.5-1.1,1.1c0,0.6,0.5,1.1,1.1,1.1
				h10.2c-2,3.2-5.6,5.3-9.6,5.3c-5.9,0-10.8-4.5-11.3-10.3c-0.1-0.7-0.1-1.4-0.1-2.1c0-7.7,3.4-14.6,6.4-19.3h9.9
				c1.2,1.8,2.4,4,3.5,6.4h-9c-0.6,0-1.1,0.5-1.1,1.1c0,0.6,0.5,1.1,1.1,1.1h9.9c0.8,2.1,1.4,4.4,1.8,6.8h-10
				c-0.6,0-1.1,0.5-1.1,1.1c0,0.6,0.5,1.1,1.1,1.1h10.2C51.2,37.5,51.2,38.1,51.2,38.7z"/>
		</g>
		<g>
			<polygon class="st0" points="42,50.9 42,56.9 37.1,52.1 37.1,50.9 			"/>
			<polygon class="st0" points="42,60 42,62.7 37.1,57.8 37.1,55.1 			"/>
			<polygon class="st0" points="42,65.8 42,68.7 37.1,63.8 37.1,60.9 			"/>
			<polygon class="st0" points="37.1,66.8 42,71.7 42,75 37.1,75 			"/>
		</g>
		<g>
			<path class="st1" d="M40.1,78.2c-20.8,0-37.7-16.9-37.7-37.7S19.3,2.7,40.1,2.7c20.8,0,37.7,16.9,37.7,37.7S60.9,78.2,40.1,78.2z
				 M40.1,7.9C22.2,7.9,7.6,22.5,7.6,40.4c0,17.9,14.6,32.5,32.5,32.5s32.5-14.6,32.5-32.5C72.6,22.5,58,7.9,40.1,7.9z"/>
		</g>
	</g>
</g>
</svg>
