<?xml version="1.0" encoding="utf-8"?>
<!-- Generator: Adobe Illustrator 24.0.0, SVG Export Plug-In . SVG Version: 6.00 Build 0)  -->
<svg version="1.1" id="Layer_1" xmlns="http://www.w3.org/2000/svg" xmlns:xlink="http://www.w3.org/1999/xlink" x="0px" y="0px"
	 viewBox="0 0 80 80" style="enable-background:new 0 0 80 80;" xml:space="preserve">
<style type="text/css">
	.st0{fill:#93C01F;}
</style>
<g>
	<g>
		<g>
			<path class="st0" d="M72.5,38c-3.6-3.2-16.7-14-32.7-14c-15.3,0-27.9,9.8-32.1,13.5c-0.1,0.8-0.1,1.6-0.1,2.5
				c0,1.3,0.1,2.5,0.2,3.7c4.4,3.8,16.9,13.4,32,13.4c15.9,0,28.9-10.6,32.6-13.9c0.1-1.1,0.2-2.1,0.2-3.2
				C72.5,39.3,72.5,38.7,72.5,38z M42.9,52.3c-1,0.1-2.1,0.2-3.1,0.2c-1.4,0-2.7-0.1-4-0.3c-11.2-1.4-20.6-8.4-24.4-11.6
				c3.8-3.2,13-10,24-11.5c1.5-0.2,3-0.3,4.5-0.3c1.2,0,2.4,0.1,3.6,0.2c11.4,1.3,21,8.4,24.9,11.7C64.3,43.9,54.4,51.1,42.9,52.3z"
				/>
		</g>
		<g>
			<path class="st0" d="M43.3,28.9c-1.2-0.4-2.5-0.6-3.9-0.6c-1.5,0-2.9,0.3-4.2,0.8c-4.7,1.7-8,6.2-8,11.5c0,5.4,3.6,10.1,8.5,11.7
				c1.2,0.4,2.4,0.6,3.8,0.6c1.2,0,2.3-0.2,3.4-0.5c5.1-1.5,8.8-6.2,8.8-11.8C51.7,35.1,48.2,30.6,43.3,28.9z M39.4,47.9
				c-4.1,0-7.4-3.3-7.4-7.4c0-4.1,3.3-7.4,7.4-7.4c4.1,0,7.4,3.3,7.4,7.4C46.8,44.6,43.5,47.9,39.4,47.9z"/>
		</g>
	</g>
	<g>
		<g>
			<path class="st0" d="M40,2.3C19.2,2.3,2.3,19.2,2.3,40S19.2,77.7,40,77.7c20.8,0,37.7-16.9,37.7-37.7S60.8,2.3,40,2.3z
				 M72.4,43.2C70.7,59.6,56.8,72.5,40,72.5c-16.7,0-30.4-12.6-32.3-28.8c-1-0.8-1.5-1.4-1.6-1.5l-1.7-1.7l1.7-1.7
				c0.1-0.1,0.6-0.6,1.5-1.4c1.3-16.8,15.3-30,32.4-30C57.3,7.5,71.4,21,72.5,38c0.5,0.5,0.8,0.8,0.9,0.9l1.7,1.7l-1.7,1.7
				C73.3,42.3,72.9,42.7,72.4,43.2z"/>
		</g>
	</g>
</g>
</svg>
