<?xml version="1.0" encoding="utf-8"?>
<!-- Generator: Adobe Illustrator 24.0.0, SVG Export Plug-In . SVG Version: 6.00 Build 0)  -->
<svg version="1.1" id="Layer_1" xmlns="http://www.w3.org/2000/svg" xmlns:xlink="http://www.w3.org/1999/xlink" x="0px" y="0px"
	 viewBox="0 0 28 28" style="enable-background:new 0 0 28 28;" xml:space="preserve">
<style type="text/css">
	.st0{fill:#FFFFFF;}
</style>
<g>
	<g>
		<g>
			<path class="st0" d="M24.2,8.9c0,3.4,0,6.8,0,10.2c0,0.1,0,0.1,0,0.2c-0.1,0.5-0.2,1.1-0.4,1.6c-0.8,1.7-2.1,2.8-3.9,3.2
				c-0.2,0.1-0.5,0.1-0.8,0.2c-3.4,0-6.8,0-10.2,0c-0.2,0-0.4-0.1-0.5-0.1c-2.7-0.5-4.6-2.8-4.6-5.6c0-3,0-6.1,0-9.1
				c0-0.4,0-0.7,0.1-1.1c0.4-2.2,2.2-4,4.4-4.5c0.4-0.1,0.8-0.1,1.2-0.1c3,0,6,0,9,0c0.8,0,1.6,0.1,2.3,0.5c1.7,0.8,2.8,2.1,3.2,3.9
				C24.1,8.4,24.2,8.6,24.2,8.9z M5.6,14C5.6,14,5.6,14,5.6,14c0,1.5,0,3,0,4.4c0,0.5,0,0.9,0.2,1.3c0.5,1.5,1.9,2.6,3.7,2.6
				c3,0,6,0,9,0c0.4,0,0.9-0.1,1.3-0.2c1.5-0.5,2.6-1.9,2.6-3.7c0-3,0-6,0-9c0-0.4-0.1-0.9-0.2-1.3c-0.5-1.5-1.9-2.6-3.7-2.6
				c-3,0-6,0-9,0C8.9,5.6,8.3,5.7,7.7,6c-1.3,0.7-2,1.8-2.1,3.2C5.6,10.8,5.6,12.4,5.6,14z"/>
		</g>
		<g>
			<path class="st0" d="M14,8.7c2.9,0,5.3,2.4,5.3,5.3c0,2.9-2.4,5.2-5.3,5.2c-2.9,0-5.3-2.4-5.3-5.3C8.7,11.1,11.1,8.7,14,8.7z
				 M14,17.4c1.9,0,3.4-1.5,3.4-3.4c0-1.9-1.5-3.4-3.4-3.4c-1.9,0-3.4,1.5-3.5,3.4C10.6,15.9,12.1,17.4,14,17.4z"/>
		</g>
		<g>
			<path class="st0" d="M19.5,9.9c-0.7,0-1.3-0.6-1.3-1.3c0-0.7,0.6-1.3,1.3-1.3c0.7,0,1.3,0.6,1.3,1.3C20.8,9.3,20.2,9.9,19.5,9.9z
				"/>
		</g>
	</g>
</g>
<g>
	<g>
		<g>
			<path class="st0" d="M4330.7,4396.3c0,3.4,0,6.8,0,10.2c0,0.1,0,0.1,0,0.2c-0.1,0.5-0.2,1.1-0.4,1.6c-0.8,1.7-2.1,2.8-3.9,3.2
				c-0.2,0.1-0.5,0.1-0.8,0.2c-3.4,0-6.8,0-10.2,0c-0.2,0-0.4-0.1-0.5-0.1c-2.7-0.5-4.6-2.8-4.6-5.6c0-3,0-6.1,0-9.1
				c0-0.4,0-0.7,0.1-1.1c0.4-2.2,2.2-4,4.4-4.5c0.4-0.1,0.8-0.1,1.2-0.1c3,0,6,0,9,0c0.8,0,1.6,0.1,2.3,0.5c1.7,0.8,2.8,2.1,3.2,3.9
				C4330.6,4395.8,4330.7,4396.1,4330.7,4396.3z M4312.2,4401.4C4312.2,4401.4,4312.2,4401.4,4312.2,4401.4c0,1.5,0,3,0,4.4
				c0,0.5,0,0.9,0.2,1.3c0.5,1.5,1.9,2.6,3.7,2.6c3,0,6,0,9,0c0.4,0,0.9-0.1,1.3-0.2c1.5-0.5,2.6-1.9,2.6-3.7c0-3,0-6,0-9
				c0-0.4-0.1-0.9-0.2-1.3c-0.5-1.5-1.9-2.6-3.7-2.6c-3,0-6,0-9,0c-0.6,0-1.3,0.1-1.8,0.4c-1.3,0.7-2,1.8-2.1,3.2
				C4312.1,4398.2,4312.2,4399.8,4312.2,4401.4z"/>
		</g>
		<g>
			<path class="st0" d="M4320.5,4396.1c2.9,0,5.3,2.4,5.3,5.3c0,2.9-2.4,5.2-5.3,5.2c-2.9,0-5.3-2.4-5.3-5.3
				C4315.3,4398.5,4317.6,4396.1,4320.5,4396.1z M4320.5,4404.8c1.9,0,3.4-1.5,3.4-3.4c0-1.9-1.5-3.4-3.4-3.4
				c-1.9,0-3.4,1.5-3.5,3.4C4317.1,4403.3,4318.6,4404.8,4320.5,4404.8z"/>
		</g>
		<g>
			<path class="st0" d="M4326,4397.3c-0.7,0-1.3-0.6-1.3-1.3c0-0.7,0.6-1.3,1.3-1.3c0.7,0,1.3,0.6,1.3,1.3
				C4327.4,4396.7,4326.8,4397.3,4326,4397.3z"/>
		</g>
	</g>
</g>
</svg>
