<?xml version="1.0" encoding="utf-8"?>
<!-- Generator: Adobe Illustrator 24.0.0, SVG Export Plug-In . SVG Version: 6.00 Build 0)  -->
<svg version="1.1" id="Layer_1" xmlns="http://www.w3.org/2000/svg" xmlns:xlink="http://www.w3.org/1999/xlink" x="0px" y="0px"
	 viewBox="0 0 28 28" style="enable-background:new 0 0 28 28;" xml:space="preserve">
<style type="text/css">
	.st0{fill:#FFFFFF;}
</style>
<g>
	<g>
		<g>
			<path class="st0" d="M3.2,24.9c0.1-0.4,0.2-0.8,0.3-1.3c0.4-1.4,0.8-2.8,1.1-4.2c0-0.1,0-0.2,0-0.3c-0.6-1.1-1-2.3-1.2-3.6
				c-0.1-0.9-0.2-1.8-0.1-2.8C3.5,11.2,4,9.7,4.8,8.3C5.6,7,6.7,5.9,8,5c1.3-0.9,2.7-1.5,4.2-1.7c1.1-0.2,2.3-0.2,3.4-0.1
				c2.2,0.3,4.1,1.2,5.7,2.7c1.5,1.3,2.5,3,3.1,4.9c0.4,1.3,0.5,2.6,0.4,3.9c-0.2,2.7-1.3,5-3.2,6.9c-1.4,1.4-3.1,2.3-5,2.8
				c-1.1,0.3-2.1,0.3-3.2,0.3c-1.5-0.1-3-0.5-4.3-1.2c-0.1,0-0.2,0-0.3,0C6.9,23.9,5.1,24.4,3.2,24.9C3.2,24.8,3.2,24.9,3.2,24.9z
				 M5.8,22.3C5.8,22.3,5.8,22.3,5.8,22.3C6.9,22,7.9,21.7,9,21.5c0.1,0,0.3,0,0.4,0.1c1.1,0.7,2.4,1.1,3.7,1.3
				c0.8,0.1,1.5,0.1,2.3,0c1.4-0.2,2.7-0.7,3.8-1.5c1.7-1.2,2.8-2.7,3.4-4.7c0.4-1.3,0.5-2.6,0.3-4c-0.2-1.2-0.6-2.3-1.2-3.4
				c-0.8-1.3-1.8-2.3-3.1-3c-1.2-0.7-2.5-1.1-3.9-1.2c-1.2-0.1-2.4,0.1-3.5,0.5C9.2,6.1,7.7,7.3,6.6,9c-0.9,1.3-1.3,2.7-1.5,4.3
				c-0.1,1,0,2,0.3,3c0.3,1,0.7,1.8,1.2,2.7c0,0.1,0,0.1,0,0.2c-0.1,0.4-0.2,0.8-0.3,1.2C6.1,21,6,21.6,5.8,22.3z"/>
		</g>
		<g>
			<path class="st0" d="M10.6,8.9c0.1,0,0.1,0,0.2,0c0.3,0,0.4,0.1,0.5,0.3c0.1,0.3,0.2,0.6,0.3,0.8c0.2,0.4,0.4,0.9,0.6,1.3
				c0.1,0.2,0.1,0.3,0,0.5c-0.2,0.3-0.4,0.6-0.7,0.9c-0.2,0.2-0.2,0.3-0.1,0.6c0.6,1,1.4,1.9,2.5,2.5c0.4,0.2,0.8,0.4,1.3,0.6
				c0.2,0.1,0.3,0,0.5-0.1c0.3-0.4,0.6-0.7,0.9-1.1c0.1-0.2,0.3-0.2,0.5-0.2c0.4,0.2,0.9,0.4,1.3,0.6c0.3,0.1,0.6,0.3,0.9,0.5
				c0.2,0.1,0.3,0.2,0.3,0.4c0,0.4-0.1,0.7-0.2,1.1c-0.1,0.2-0.3,0.4-0.5,0.6C18.4,18.7,18,19,17.5,19c-0.6,0.1-1.1,0.1-1.7-0.1
				c-0.8-0.3-1.7-0.6-2.4-1c-0.7-0.4-1.3-0.9-1.8-1.4c-0.9-0.9-1.7-1.8-2.3-2.9c-0.4-0.7-0.6-1.4-0.6-2.1c0-0.9,0.4-1.7,1-2.3
				c0.2-0.2,0.5-0.3,0.9-0.3C10.5,8.9,10.5,8.9,10.6,8.9C10.6,8.9,10.6,8.9,10.6,8.9z"/>
		</g>
	</g>
</g>
</svg>
