<?xml version="1.0" encoding="utf-8"?>
<!-- Generator: Adobe Illustrator 24.0.0, SVG Export Plug-In . SVG Version: 6.00 Build 0)  -->
<svg version="1.1" id="Layer_1" xmlns="http://www.w3.org/2000/svg" xmlns:xlink="http://www.w3.org/1999/xlink" x="0px" y="0px"
	 viewBox="0 0 298 298" style="enable-background:new 0 0 298 298;" xml:space="preserve">
<style type="text/css">
	.st0{fill:#CEC745;}
	.st1{fill:#21AA6B;}
	.st2{fill:#FBB03B;}
	.st3{fill:#10C66B;}
	.st4{fill:#1D3331;}
</style>
<g>
	<g>
		<g>
			<path class="st0" d="M189.2,177.5c0.2,0.7,0.2,1.4,0.2,2.2l-0.7,5.6l-0.3,2.5c-0.3,2.9-2.8,5-5.7,5h-67.4c-2.9,0-5.3-2.2-5.7-5.1
				l-0.2-2l-0.5-4.8c-0.1-0.7,0-1.4,0.2-2.1l15.6-57.6l16.8-62.1c0.7-2.5,2.9-4.2,5.5-4.2h4.6c2.6,0,4.8,1.7,5.5,4.2l16.8,62.1
				L189.2,177.5z"/>
			<g>
				<polygon class="st1" points="199.3,45.6 189.5,178.6 188.7,185.3 187.8,192.8 187.4,196 110.6,196 110.2,192.8 109.4,185.8 
					149.3,145.9 				"/>
			</g>
			<g>
				<path class="st2" d="M147.3,56.7c0.3-1.9,1.4-3.6,2.7-4.9c1.3-1.4,2.9-2.5,4.6-3.3c3.4-1.7,7.1-2.6,10.9-3.2
					c3.8-0.5,7.6-0.7,11.3-0.6c1.9,0,3.8,0.2,5.7,0.2c1.9,0.1,3.8,0,5.6-0.2c3.7-0.4,7.4-1.4,10.7-3.2c3.3-1.8,6.1-4.4,8.3-7.5
					c2.2-3.1,3.7-6.6,4.7-10.2c1-3.6,1.5-7.4,1.5-11.2l0,0c0.1,3.8-0.4,7.6-1.3,11.3c-0.9,3.7-2.4,7.2-4.6,10.4
					c-2.1,3.2-5,5.8-8.4,7.6c-3.4,1.8-7.1,2.9-10.9,3.2c-1.9,0.2-3.8,0.2-5.7,0.2c-1.9-0.1-3.8-0.2-5.7-0.3c-3.8-0.1-7.6,0-11.3,0.5
					c-3.7,0.5-7.5,1.4-10.8,3c-1.7,0.8-3.3,1.9-4.6,3.3C148.8,53.2,147.7,54.8,147.3,56.7L147.3,56.7z"/>
			</g>
			<g>
				<path class="st2" d="M151.8,56.3c-0.2-0.8,0.1-1.6,0.5-2.3l0.3-0.5L153,53c0.3-0.3,0.6-0.5,0.9-0.8l0.5-0.4l0.5-0.3
					c0.4-0.2,0.7-0.4,1-0.6c0.7-0.3,1.5-0.6,2.2-0.8c0.8-0.2,1.5-0.5,2.3-0.6l2.3-0.5c1.6-0.2,3.1-0.5,4.7-0.5
					c6.3-0.5,12.7-0.1,19-0.2c3.1-0.2,6.3-0.3,9.4-0.9c3.1-0.5,6.1-1.3,9.1-2.4c2.9-1.2,5.6-2.8,7.9-5c2.2-2.2,3.9-5.1,4.3-8.2l0,0
					c-0.2,3.2-1.9,6.1-4.1,8.4c-2.2,2.3-5,4-7.9,5.3c-5.9,2.4-12.3,3.1-18.7,3.3c-6.3,0-12.6-0.4-18.9,0.1c-1.6,0.1-3.1,0.3-4.7,0.5
					l-2.3,0.4c-0.8,0.1-1.5,0.4-2.3,0.6c-0.8,0.2-1.5,0.5-2.2,0.8c-0.4,0.2-0.7,0.4-1,0.5l-0.5,0.3l-0.5,0.4
					c-0.3,0.2-0.6,0.5-0.9,0.8l-0.4,0.4l-0.3,0.5C151.9,54.7,151.7,55.5,151.8,56.3L151.8,56.3z"/>
			</g>
			<g>
				<path class="st2" d="M145.3,56c0.9-4.6,3.8-8.8,7.9-11c2-1.1,4.3-1.8,6.6-2.1c2.3-0.3,4.6-0.4,6.9-0.8c4.6-0.6,9.2-1.3,13.6-2.6
					c4.4-1.2,8.9-2.9,12.3-6.1l0,0c-1.6,1.7-3.6,3-5.7,4.1c-2.1,1-4.3,1.8-6.5,2.5c-4.5,1.3-9.1,2-13.7,2.5
					c-2.3,0.3-4.6,0.4-6.9,0.7c-2.3,0.3-4.5,0.9-6.6,2C149.2,47.4,146.3,51.5,145.3,56L145.3,56z"/>
			</g>
			<polygon class="st1" points="187.8,192.8 187.4,195.9 187.5,195.9 170.9,231.1 127.1,231.1 110.5,195.9 110.6,195.9 110.2,192.8 
				109.4,185.8 108.8,180 106.7,95.9 188.7,185.3 			"/>
			<polygon class="st3" points="165.8,162.4 99.3,45.6 108.8,180 109.4,185.8 110.2,192.8 110.6,195.9 110.5,195.9 127.1,231.1 
				165.8,231.1 			"/>
		</g>
		<path class="st4" d="M239.6,211.5l2.6,1.6l-2.4,1.9c-1.2,0.9-2.5,1.8-3.8,2.7l-1.1,0.7l-1.1-0.6c-0.7-0.4-1.3-0.7-1.9-1
			c-0.8-0.4-1.6-0.7-2.3-0.8c-0.5-0.1-1.1-0.2-1.6-0.2c-0.7,0-1.4,0.1-2.1,0.3c-0.1,0-0.3,0.1-0.4,0.1c-0.1,0-0.2,0.1-0.3,0.1
			c-0.8,0.4-1.5,0.8-2.4,1.3c-0.6,0.4-1.3,0.8-2,1.1c-0.2,0.1-0.4,0.2-0.6,0.3c-1.6,0.8-3.1,1.5-4.7,2.1c-0.2,0.1-0.5,0.2-0.7,0.3
			c-0.9,0.3-1.7,0.6-2.5,0.8c-0.3,0.1-0.6,0.1-0.8,0.2c-0.7,0.2-1.3,0.3-2,0.4c-1.6,0.2-3.2,0.1-5-0.3c-0.3-0.1-0.6-0.2-0.9-0.2
			c-1.4-0.4-2.9-0.9-4.2-1.6c-0.3-0.1-0.5-0.3-0.8-0.4l-0.1,0c-0.9-0.5-1.8-1.1-2.6-1.6c-0.1-0.1-0.2-0.1-0.3-0.2l0,0l-1.1-0.6
			c-0.7-0.4-1.3-0.7-1.9-1c-0.8-0.4-1.6-0.7-2.3-0.8c-0.4-0.1-0.9-0.2-1.5-0.2c-0.1,0-0.3,0-0.4,0l-0.1,0c-0.1,0-0.2,0-0.3,0
			c-0.1,0-0.2,0-0.3,0l-0.1,0c-0.2,0-0.3,0-0.5,0.1l0,0c-0.1,0-0.3,0.1-0.4,0.1c-0.5,0.1-1,0.3-1.4,0.5c-0.8,0.5-1.5,0.9-2.1,1.2
			l-1.1,0.6l-0.1,0c-0.2,0.1-0.4,0.2-0.5,0.3c-0.2,0.1-0.4,0.2-0.6,0.3c-1.5,0.8-3.1,1.5-4.7,2.1c-0.3,0.1-0.5,0.2-0.7,0.3
			c-0.8,0.3-1.7,0.6-2.5,0.8c-0.3,0.1-0.5,0.1-0.8,0.2c-0.6,0.2-1.3,0.3-2,0.4c-1.6,0.2-3.2,0.1-5-0.3c-0.3-0.1-0.6-0.2-0.9-0.2
			c-1.4-0.4-2.9-0.9-4.2-1.6c-0.3-0.1-0.5-0.3-0.8-0.4l-0.1,0c-0.9-0.5-1.7-1-2.5-1.5l-0.1-0.1c-0.1-0.1-0.2-0.1-0.3-0.2l-0.1,0
			l-1.1-0.6c-0.7-0.4-1.3-0.7-1.9-1c-0.8-0.4-1.6-0.7-2.3-0.8c-0.5-0.1-1-0.2-1.5-0.2c-0.1,0-0.3,0-0.4,0c-0.2,0-0.3,0-0.5,0.1
			l-0.1,0c-0.2,0-0.3,0-0.5,0.1c-0.2,0-0.3,0.1-0.5,0.1c-0.5,0.1-1,0.3-1.4,0.6c-0.7,0.4-1.4,0.8-2.1,1.2l-1.1,0.6l-0.1-0.1
			c-0.2,0.1-0.4,0.2-0.6,0.3c-0.2,0.1-0.4,0.2-0.6,0.3c-1.5,0.8-3.1,1.5-4.7,2.1c-0.3,0.1-0.5,0.2-0.7,0.3c-0.8,0.3-1.7,0.6-2.5,0.8
			c-0.3,0.1-0.6,0.1-0.8,0.2c-0.6,0.2-1.3,0.3-2,0.4c-1.6,0.2-3.2,0.1-5-0.3c-0.3-0.1-0.6-0.2-0.9-0.2c-1.4-0.4-2.9-0.9-4.2-1.6
			c-0.3-0.1-0.5-0.3-0.8-0.4l-0.1,0c-0.9-0.5-1.7-1-2.5-1.5l-0.1-0.1c-0.1-0.1-0.2-0.1-0.3-0.2l0,0l-1.1-0.6c-0.7-0.4-1.3-0.7-1.9-1
			c-0.8-0.4-1.6-0.7-2.3-0.8c-0.4-0.1-0.9-0.2-1.5-0.2c-0.1,0-0.3,0-0.4,0l-0.1,0c-0.1,0-0.2,0-0.3,0c-0.1,0-0.2,0-0.3,0l-0.1,0
			c-0.2,0-0.3,0-0.5,0.1c-0.2,0-0.3,0.1-0.5,0.1c-0.5,0.1-1,0.3-1.4,0.6c-0.8,0.5-1.5,0.9-2.1,1.2l-1.1,0.6l-0.1,0
			c-0.1,0.1-0.3,0.2-0.5,0.2c-0.2,0.1-0.4,0.2-0.6,0.3c-1.5,0.8-3.1,1.5-4.7,2.1c-0.2,0.1-0.5,0.2-0.8,0.3c-0.8,0.3-1.7,0.6-2.5,0.8
			c-0.3,0.1-0.5,0.1-0.8,0.2c-0.6,0.2-1.3,0.3-2,0.4c-0.5,0.1-1.1,0.1-1.6,0.1c-1.1,0-2.2-0.1-3.4-0.4c-0.3-0.1-0.6-0.2-0.9-0.2
			c-1.4-0.4-2.9-0.9-4.2-1.6c-0.3-0.1-0.5-0.3-0.8-0.4l0,0c-0.9-0.5-1.7-1-2.5-1.5l-0.1-0.1c-0.2-0.1-0.4-0.2-0.6-0.4l-0.2-0.1
			c-2.1-1.3-4.7-2.7-7.3-2.2l-0.1,0c-0.2,0-0.3,0-0.5,0.1l0,0c-0.1,0-0.3,0.1-0.5,0.1c-0.5,0.1-1,0.3-1.4,0.5
			c-0.7,0.4-1.4,0.8-2.1,1.2l-1.1,0.6l-1.1-0.7c-1.4-0.9-2.7-1.8-3.9-2.8l-2.6-2l2.9-1.6c0.5-0.3,1.1-0.6,1.6-0.9
			c1-0.5,1.9-1,2.8-1.5c1.4-0.8,3-1.4,4.7-1.6l0.3,0c0.7-0.1,1.3-0.2,1.9-0.2c0.3,0,0.5,0,0.8,0c0.1,0,0.2,0,0.3,0l0,0
			c0.1,0,0.3,0,0.4,0c0.3,0,0.6,0,0.9,0.1c3.1,0.4,5.6,2,7.9,3.5c0.2,0.1,0.4,0.3,0.6,0.4c0.2,0.2,0.5,0.3,0.7,0.5
			c0.2,0.1,0.4,0.2,0.6,0.3c0.6,0.3,1.1,0.6,1.6,0.8c0.3,0.1,0.5,0.2,0.8,0.3l0,0c1,0.4,2,0.8,2.9,1c0.2,0,0.4,0.1,0.8,0.1
			c0.7,0.1,1.4,0.1,2.1,0c0.2,0,0.5,0,0.7-0.1c0.5-0.1,1-0.2,1.5-0.4c0.2-0.1,0.5-0.2,0.7-0.2c0.7-0.3,1.4-0.6,2.2-1
			c0.2-0.1,0.4-0.2,0.5-0.3l0.2-0.1c0.2-0.1,0.3-0.1,0.4-0.2c0.8-0.4,1.5-0.9,2.3-1.3c0.3-0.2,0.6-0.4,1-0.6
			c0.3-0.2,0.5-0.3,0.8-0.5l0,0c1.1-0.6,2.3-1.1,3.5-1.5c0.1,0,0.1,0,0.2-0.1c0.9-0.3,1.8-0.5,2.7-0.7l0.3,0
			c0.7-0.1,1.3-0.2,1.9-0.2c0.3,0,0.5,0,0.8,0c0.1,0,0.2,0,0.3,0l0,0c0.1,0,0.3,0,0.4,0c0.3,0,0.6,0,0.9,0.1
			c2.5,0.3,4.6,1.4,6.3,2.5c0.2,0.1,0.5,0.3,0.7,0.4c0.7,0.4,1.5,0.9,2.4,1.4l1.3,0.8c0.3,0.1,0.5,0.3,0.8,0.4
			c0.3,0.1,0.5,0.2,0.8,0.3l0.1,0c1,0.4,2,0.8,2.9,1c0.3,0,0.5,0.1,0.8,0.1c0.7,0.1,1.4,0.1,2.1,0c0.2,0,0.5-0.1,0.7-0.1
			c0.5-0.1,1-0.2,1.5-0.4c0.2-0.1,0.5-0.2,0.7-0.2c0.7-0.3,1.4-0.6,2.2-1c0.2-0.1,0.5-0.2,0.7-0.4c0.2-0.1,0.3-0.2,0.5-0.2
			c0.8-0.4,1.5-0.9,2.3-1.3c0.3-0.2,0.6-0.4,1-0.6c0.3-0.2,0.5-0.3,0.8-0.5l0,0c1.1-0.6,2.3-1.1,3.5-1.5c0.2-0.1,0.4-0.1,0.6-0.2
			l0.3-0.2l0.3,0c0.6-0.2,1.2-0.3,1.8-0.4l0.3,0c0.7-0.1,1.3-0.2,1.9-0.2c0.3,0,0.5,0,0.8,0c0.1,0,0.2,0,0.2,0l0.1,0
			c0.1,0,0.3,0,0.4,0c0.3,0,0.6,0,0.9,0.1c2.6,0.3,4.8,1.5,6.8,2.8c0,0,0,0,0.1,0l0,0c0.7,0.4,1.4,0.8,2.4,1.4l1,0.7
			c0.4,0.2,0.8,0.4,1.1,0.6c0.3,0.1,0.5,0.2,0.8,0.3l0.1,0c1,0.4,2,0.8,2.9,1c0.3,0,0.5,0.1,0.8,0.1c0.7,0.1,1.4,0.1,2.1,0
			c0.2,0,0.5-0.1,0.7-0.1c0.5-0.1,1-0.2,1.5-0.4c0.2-0.1,0.5-0.2,0.7-0.2c0.7-0.3,1.4-0.6,2.2-1c0.2-0.1,0.5-0.2,0.7-0.4
			c0.2-0.1,0.3-0.2,0.5-0.2c0.8-0.4,1.5-0.8,2.3-1.3c0.3-0.2,0.6-0.4,1-0.6c0.3-0.2,0.5-0.3,0.8-0.5l0,0c1.1-0.6,2.3-1.1,3.5-1.5
			c0.1,0,0.1,0,0.2-0.1c0.9-0.3,1.8-0.5,2.7-0.7l0.3,0c0.7-0.1,1.3-0.2,1.9-0.2c0.3,0,0.5,0,0.8,0c0.1,0,0.2,0,0.3,0l0,0
			c0.1,0,0.3,0,0.4,0c0.3,0,0.6,0,0.9,0.1c2.5,0.3,4.6,1.4,6.3,2.5c0.2,0.1,0.5,0.3,0.7,0.4c0.7,0.4,1.5,0.9,2.4,1.4l1.4,0.9
			c0.3,0.1,0.5,0.2,0.7,0.4c0.2,0.1,0.5,0.2,0.8,0.3l0.1,0c1,0.4,2,0.8,2.9,1c0.2,0,0.4,0.1,0.8,0.1c0.7,0.1,1.4,0.1,2.1,0
			c0.2,0,0.5-0.1,0.7-0.1c0.5-0.1,1-0.2,1.5-0.4c0.2-0.1,0.5-0.2,0.7-0.2c0.7-0.3,1.4-0.6,2.2-1c0.3-0.1,0.5-0.2,0.7-0.4l0,0
			c0.1-0.1,0.3-0.1,0.4-0.2c0.8-0.4,1.5-0.9,2.3-1.3c0.3-0.2,0.6-0.4,1-0.6c0.3-0.2,0.5-0.3,0.8-0.5l0,0c1.1-0.6,2.3-1.1,3.5-1.5
			c0.6-0.2,1.2-0.4,1.8-0.5c0.5-0.1,1-0.2,1.5-0.3c2.7-0.3,5.5,0.1,8.1,1.3c0.5,0.2,0.9,0.4,1.2,0.6c0.7,0.4,1.3,0.7,1.8,1
			C237.9,210.5,238.7,211,239.6,211.5z"/>
		<path class="st4" d="M239.6,193l2.6,1.6l-2.4,1.9c-1.2,0.9-2.5,1.8-3.8,2.7l-1.1,0.7l-1.1-0.6c-0.7-0.4-1.3-0.7-1.9-1
			c-0.8-0.4-1.6-0.7-2.3-0.8c-0.5-0.1-1.1-0.2-1.6-0.2c-0.7,0-1.4,0.1-2.1,0.3c-0.1,0-0.3,0.1-0.4,0.1c-0.1,0-0.2,0.1-0.3,0.1
			c-0.8,0.4-1.5,0.8-2.3,1.3c-0.7,0.4-1.3,0.8-2,1.1c-0.2,0.1-0.4,0.2-0.6,0.3c-1.6,0.8-3.1,1.5-4.7,2.1c-0.2,0.1-0.5,0.2-0.7,0.3
			c-0.9,0.3-1.7,0.6-2.5,0.8c-0.3,0.1-0.6,0.1-0.8,0.2c-0.7,0.2-1.3,0.3-2,0.4c-1.6,0.2-3.2,0.1-5-0.3c-0.3-0.1-0.6-0.1-0.9-0.2
			c-1.4-0.4-2.8-0.9-4.2-1.6c-0.3-0.1-0.5-0.3-0.8-0.4l-0.1,0c-0.9-0.5-1.8-1.1-2.6-1.6c-0.1-0.1-0.2-0.1-0.3-0.2l0,0l-1.1-0.6
			c-0.7-0.4-1.3-0.7-1.9-1c-0.8-0.4-1.6-0.7-2.3-0.8c-0.5-0.1-1-0.2-1.5-0.2c-0.1,0-0.3,0-0.4,0l-0.1,0c-0.1,0-0.2,0-0.3,0
			c-0.1,0-0.2,0-0.3,0l-0.1,0c-0.2,0-0.3,0-0.5,0.1c-0.2,0-0.3,0.1-0.4,0.1c-0.6,0.1-1,0.3-1.4,0.6c-0.7,0.4-1.4,0.8-2.1,1.2
			l-1.1,0.6l-0.1,0c-0.2,0.1-0.4,0.2-0.5,0.3c-0.2,0.1-0.4,0.2-0.6,0.3c-1.5,0.8-3.1,1.5-4.7,2.1c-0.3,0.1-0.5,0.2-0.7,0.3
			c-0.9,0.3-1.7,0.6-2.5,0.8c-0.3,0.1-0.5,0.1-0.8,0.2c-0.7,0.2-1.3,0.3-2,0.4c-1.6,0.2-3.2,0.1-5-0.3c-0.3-0.1-0.6-0.1-0.9-0.2
			c-1.4-0.4-2.8-0.9-4.2-1.6c-0.3-0.1-0.6-0.3-0.8-0.4l-0.1,0c-0.9-0.5-1.7-1-2.5-1.5l-0.1-0.1c-0.1-0.1-0.2-0.1-0.3-0.2l-0.1,0
			l-1.1-0.6c-0.7-0.4-1.3-0.7-1.9-1c-0.8-0.4-1.6-0.7-2.3-0.8c-0.5-0.1-1-0.2-1.5-0.2c-0.1,0-0.3,0-0.4,0c-0.2,0-0.3,0-0.5,0.1
			l-0.1,0c-0.2,0-0.3,0-0.5,0.1c-0.2,0-0.3,0.1-0.4,0.1c-0.6,0.1-1,0.3-1.4,0.6c-0.6,0.4-1.3,0.8-2.1,1.2l-1.1,0.6l-0.1-0.1
			c-0.2,0.1-0.4,0.2-0.5,0.3c-0.2,0.1-0.4,0.2-0.6,0.3c-1.5,0.8-3.1,1.5-4.7,2.1c-0.3,0.1-0.5,0.2-0.7,0.3c-0.9,0.3-1.7,0.6-2.5,0.8
			c-0.3,0.1-0.6,0.1-0.8,0.2c-0.7,0.2-1.3,0.3-2,0.4c-1.6,0.2-3.2,0.1-5-0.3c-0.3-0.1-0.6-0.1-0.9-0.2c-1.4-0.4-2.9-0.9-4.2-1.6
			c-0.3-0.1-0.5-0.3-0.8-0.4l-0.1,0c-0.9-0.5-1.7-1-2.5-1.5l-0.1-0.1c-0.1-0.1-0.2-0.1-0.3-0.2l0,0l-1.1-0.6c-0.7-0.4-1.3-0.7-1.9-1
			c-0.8-0.4-1.6-0.7-2.3-0.8c-0.5-0.1-1-0.2-1.5-0.2c-0.1,0-0.3,0-0.4,0l-0.1,0c-0.1,0-0.2,0-0.3,0c-0.1,0-0.2,0-0.3,0l-0.1,0
			c-0.2,0-0.3,0-0.5,0.1c-0.2,0-0.3,0.1-0.4,0.1c-0.6,0.1-1,0.3-1.4,0.6c-0.7,0.4-1.4,0.8-2.1,1.2l-1.2,0.6l-0.1,0
			c-0.1,0.1-0.3,0.2-0.4,0.2c-0.2,0.1-0.4,0.2-0.6,0.3c-1.5,0.8-3.1,1.5-4.7,2.1c-0.2,0.1-0.5,0.2-0.8,0.3c-0.9,0.3-1.7,0.6-2.5,0.8
			c-0.3,0.1-0.5,0.1-0.8,0.2c-0.7,0.2-1.3,0.3-2,0.4c-0.5,0.1-1.1,0.1-1.6,0.1c-1.1,0-2.2-0.1-3.4-0.4c-0.3-0.1-0.6-0.1-0.9-0.2
			c-1.4-0.4-2.8-0.9-4.2-1.6c-0.3-0.1-0.6-0.3-0.8-0.4l0,0c-0.9-0.5-1.7-1-2.5-1.5l-0.9-0.6c-2-1.3-4.7-2.7-7.3-2.2l-0.1,0
			c-0.2,0-0.3,0-0.5,0.1c-0.2,0-0.3,0.1-0.5,0.1c-0.5,0.1-1,0.3-1.4,0.6c-0.6,0.4-1.3,0.8-2.1,1.2l-1.1,0.6l-1.1-0.7
			c-1.3-0.8-2.7-1.8-3.9-2.8l-2.6-2l2.9-1.6c0.5-0.3,1.1-0.6,1.6-0.9c1-0.5,1.9-1,2.8-1.5c1.4-0.8,3-1.4,4.7-1.6l0.3,0
			c0.7-0.1,1.3-0.2,1.9-0.2c0.3,0,0.5,0,0.8,0c0.1,0,0.2,0,0.3,0l0,0c0.1,0,0.3,0,0.4,0c0.3,0,0.6,0,0.9,0.1c3.1,0.3,5.6,2,7.9,3.5
			c0.2,0.1,0.4,0.3,0.6,0.4c0.2,0.2,0.5,0.3,0.7,0.4c0.2,0.1,0.4,0.2,0.6,0.3c0.6,0.3,1.2,0.6,1.6,0.8c0.3,0.1,0.5,0.2,0.8,0.3l0,0
			c1,0.4,2,0.8,2.9,1c0.2,0,0.4,0.1,0.8,0.1c0.7,0.1,1.4,0.1,2.1,0c0.3,0,0.5-0.1,0.7-0.1c0.5-0.1,1-0.2,1.5-0.4
			c0.2-0.1,0.5-0.2,0.7-0.2c0.7-0.3,1.4-0.6,2.2-1c0.2-0.1,0.4-0.2,0.5-0.3l0.2-0.1c0.2-0.1,0.3-0.1,0.4-0.2
			c0.8-0.4,1.5-0.9,2.3-1.3c0.3-0.2,0.7-0.4,1-0.6c0.3-0.2,0.5-0.3,0.8-0.5l0,0c1.1-0.6,2.3-1.1,3.4-1.5c0.1,0,0.1,0,0.2-0.1
			c0.9-0.3,1.8-0.5,2.7-0.7l0.3,0c0.7-0.1,1.3-0.2,1.9-0.2c0.3,0,0.5,0,0.8,0c0.1,0,0.2,0,0.3,0l0,0c0.1,0,0.3,0,0.4,0
			c0.3,0,0.6,0,0.9,0.1c2.5,0.3,4.6,1.4,6.3,2.5c0.2,0.1,0.5,0.3,0.7,0.4c0.7,0.4,1.5,0.9,2.4,1.4l1.3,0.8c0.3,0.1,0.5,0.3,0.8,0.4
			c0.3,0.1,0.5,0.2,0.8,0.3l0.1,0c1,0.4,2,0.8,2.9,1c0.3,0.1,0.5,0.1,0.8,0.1c0.7,0.1,1.4,0.1,2.1,0c0.3,0,0.5-0.1,0.7-0.1
			c0.5-0.1,1-0.2,1.5-0.4c0.2-0.1,0.5-0.2,0.7-0.2c0.7-0.3,1.4-0.6,2.2-1c0.2-0.1,0.5-0.2,0.7-0.4c0.2-0.1,0.3-0.2,0.5-0.2
			c0.7-0.4,1.5-0.8,2.3-1.3c0.3-0.2,0.7-0.4,1-0.6l0.1,0c0.2-0.1,0.5-0.3,0.7-0.4l0,0c1.1-0.6,2.3-1.1,3.5-1.5
			c0.2-0.1,0.4-0.1,0.5-0.2l0.3-0.2l0.4,0c0.6-0.2,1.2-0.3,1.8-0.4l0.3,0c0.7-0.1,1.3-0.2,1.9-0.2c0.3,0,0.5,0,0.8,0
			c0.1,0,0.2,0,0.2,0l0.1,0c0.1,0,0.3,0,0.4,0c0.3,0,0.6,0,0.9,0.1c2.6,0.3,4.8,1.5,6.8,2.8c0,0,0,0,0.1,0l0,0
			c0.7,0.4,1.4,0.8,2.4,1.4l1,0.7c0.4,0.2,0.8,0.4,1.1,0.6c0.3,0.1,0.5,0.2,0.8,0.3l0.1,0c1,0.4,2,0.8,2.9,1
			c0.3,0.1,0.5,0.1,0.8,0.1c0.7,0.1,1.4,0.1,2.1,0c0.3,0,0.5-0.1,0.7-0.1c0.5-0.1,1-0.2,1.5-0.4c0.2-0.1,0.5-0.2,0.7-0.2
			c0.7-0.3,1.4-0.6,2.2-1c0.2-0.1,0.5-0.2,0.7-0.4c0.2-0.1,0.3-0.2,0.5-0.2c0.7-0.4,1.5-0.8,2.3-1.3c0.3-0.2,0.7-0.4,1-0.6l0,0
			c0.3-0.1,0.5-0.3,0.7-0.4l0,0c1.1-0.6,2.3-1.1,3.5-1.5c0.1,0,0.1,0,0.2-0.1c0.8-0.3,1.7-0.5,2.7-0.7l0.3,0
			c0.7-0.1,1.3-0.2,1.9-0.2c0.3,0,0.5,0,0.8,0c0.1,0,0.2,0,0.3,0l0,0c0.1,0,0.3,0,0.4,0c0.3,0,0.6,0,0.9,0.1
			c2.5,0.3,4.6,1.4,6.3,2.5c0.2,0.1,0.5,0.3,0.7,0.4c0.7,0.4,1.5,0.9,2.4,1.4l1.4,0.9c0.3,0.1,0.5,0.2,0.7,0.4
			c0.2,0.1,0.5,0.2,0.8,0.3l0.1,0c1,0.4,2,0.8,2.9,1c0.2,0,0.4,0.1,0.8,0.1c0.7,0.1,1.4,0.1,2.1,0c0.3,0,0.5-0.1,0.7-0.1
			c0.5-0.1,1-0.2,1.5-0.4c0.2-0.1,0.5-0.2,0.7-0.2c0.7-0.3,1.4-0.6,2.2-1c0.2-0.1,0.5-0.2,0.7-0.4l0,0c0.1-0.1,0.3-0.1,0.4-0.2
			c0.7-0.4,1.5-0.8,2.3-1.3c0.3-0.2,0.7-0.4,1-0.6l0.1,0c0.2-0.1,0.5-0.3,0.8-0.4l0,0c1.1-0.6,2.3-1.1,3.5-1.5
			c0.6-0.2,1.2-0.4,1.8-0.5c0.5-0.1,1-0.2,1.5-0.3c2.7-0.3,5.5,0.1,8.1,1.3c0.5,0.2,0.9,0.4,1.2,0.6c0.7,0.4,1.3,0.7,1.8,1
			C237.9,192,238.7,192.5,239.6,193z"/>
		<path class="st4" d="M58.4,177.9l-2.6-2l2.9-1.6c0.5-0.3,1.1-0.6,1.6-0.9c1-0.5,1.9-1,2.8-1.5c1.4-0.8,3-1.4,4.7-1.6l0.3,0
			c0.7-0.1,1.3-0.2,1.9-0.2c0.3,0,0.5,0,0.8,0c0.1,0,0.2,0,0.3,0c0.1,0,0.3,0,0.4,0c0.3,0,0.6,0,0.9,0.1c3.1,0.3,5.6,2,7.9,3.5
			c0.2,0.1,0.4,0.3,0.6,0.4c0.2,0.2,0.5,0.3,0.7,0.5c0.2,0.1,0.4,0.2,0.6,0.3c0.6,0.3,1.1,0.6,1.6,0.8c0.3,0.1,0.5,0.2,0.8,0.3l0,0
			c1,0.4,2,0.8,2.9,1c0.3,0.1,0.5,0.1,0.8,0.1c0.7,0.1,1.4,0.1,2.1,0c0.3,0,0.5-0.1,0.7-0.1c0.5-0.1,1-0.2,1.5-0.4
			c0.2-0.1,0.5-0.2,0.7-0.2c0.7-0.3,1.4-0.6,2.2-1c0.2-0.1,0.4-0.2,0.6-0.3l0.2-0.1c0.1-0.1,0.3-0.1,0.4-0.2
			c0.8-0.4,1.5-0.9,2.3-1.3c0.3-0.2,0.7-0.4,1-0.6c0.3-0.2,0.5-0.3,0.8-0.5l0,0c1.1-0.6,2.3-1.1,3.5-1.5c0.1,0,0.1,0,0.2-0.1
			c0.9-0.3,1.8-0.5,2.7-0.7l0.3,0c0.7-0.1,1.3-0.2,1.9-0.2c0.3,0,0.5,0,0.8,0c0.1,0,0.2,0,0.3,0h0c0.1,0,0.3,0,0.4,0
			c0.3,0,0.6,0,0.9,0.1c2.5,0.3,4.6,1.4,6.3,2.5c0.2,0.1,0.5,0.3,0.7,0.4c0.7,0.4,1.5,0.9,2.4,1.4l1.3,0.8c0.3,0.1,0.5,0.3,0.8,0.4
			c0.3,0.1,0.5,0.2,0.8,0.3l0.1,0c1,0.4,2,0.8,2.9,1c0.3,0.1,0.5,0.1,0.8,0.1c0.7,0.1,1.4,0.1,2.1,0c0.3,0,0.5-0.1,0.7-0.1
			c0.5-0.1,1-0.2,1.5-0.4c0.2-0.1,0.5-0.2,0.7-0.2c0.7-0.3,1.4-0.6,2.2-1c0.2-0.1,0.5-0.2,0.7-0.4l0,0c0.1-0.1,0.3-0.1,0.4-0.2
			c0.7-0.4,1.5-0.8,2.3-1.3c0.3-0.2,0.7-0.4,1-0.6c0.3-0.2,0.5-0.3,0.8-0.5c1.2-0.6,2.3-1.1,3.5-1.5c0.3-0.1,0.5-0.2,0.8-0.2
			c0,0,0.1,0,0.1,0c0.7-0.2,1.3-0.3,2-0.4l0.3,0c0.7-0.1,1.3-0.2,1.9-0.2c0.3,0,0.5,0,0.8,0c0.1,0,0.2,0,0.3,0l0,0
			c0.1,0,0.3,0,0.4,0c0.3,0,0.6,0,0.9,0.1c2.6,0.3,4.8,1.5,6.8,2.8c0,0,0,0,0.1,0l0,0c0.7,0.4,1.4,0.8,2.4,1.4l1,0.7
			c0.4,0.2,0.8,0.4,1.1,0.6c0.3,0.1,0.5,0.2,0.8,0.3l0.1,0c1,0.4,2,0.8,2.9,1c0.3,0.1,0.5,0.1,0.8,0.1c0.7,0.1,1.4,0.1,2.1,0
			c0.3,0,0.5-0.1,0.7-0.1c0.5-0.1,1-0.2,1.5-0.4c0.2-0.1,0.5-0.2,0.7-0.2c0.7-0.3,1.4-0.6,2.2-1l0.7-0.4l0,0
			c0.1-0.1,0.3-0.1,0.4-0.2c0.7-0.4,1.5-0.8,2.3-1.3c0.3-0.2,0.7-0.4,1-0.6c0.3-0.2,0.5-0.3,0.8-0.5l0,0c1.1-0.6,2.3-1.1,3.5-1.5
			c0.1,0,0.1,0,0.2-0.1c0.8-0.3,1.8-0.5,2.7-0.7l0.3,0c0.7-0.1,1.3-0.2,1.9-0.2c0.3,0,0.5,0,0.8,0c0.1,0,0.2,0,0.3,0h0
			c0.1,0,0.3,0,0.4,0c0.3,0,0.6,0,0.9,0.1c2.5,0.3,4.6,1.4,6.3,2.5c0.2,0.1,0.5,0.3,0.7,0.4c0.7,0.4,1.5,0.9,2.4,1.4l1.4,0.9
			c0.3,0.1,0.5,0.2,0.7,0.4c0.2,0.1,0.5,0.2,0.8,0.3l0.1,0c1,0.4,2,0.8,2.9,1c0.3,0.1,0.5,0.1,0.8,0.1c0.7,0.1,1.4,0.1,2.1,0
			c0.3,0,0.5-0.1,0.7-0.1c0.5-0.1,1-0.2,1.5-0.4c0.2-0.1,0.5-0.2,0.7-0.2c0.7-0.3,1.4-0.6,2.2-1c0.2-0.1,0.5-0.2,0.7-0.4l0.1,0
			c0.1-0.1,0.3-0.1,0.4-0.2c0.7-0.4,1.5-0.8,2.3-1.3c0.3-0.2,0.7-0.4,1-0.6c0.3-0.2,0.5-0.3,0.8-0.5c1.2-0.6,2.3-1.1,3.5-1.5
			c0.6-0.2,1.2-0.4,1.8-0.5c0.5-0.1,1-0.2,1.5-0.3c2.7-0.3,5.5,0.1,8.1,1.3c0.5,0.2,0.9,0.4,1.2,0.6c0.5,0.2,1.1,0.6,1.8,1
			c0.7,0.4,1.5,0.9,2.4,1.4l2.6,1.6l-2.4,1.9c-1.2,0.9-2.5,1.8-3.8,2.7l-1.1,0.7l-1.1-0.6c-0.7-0.4-1.3-0.7-1.9-1
			c-0.8-0.4-1.6-0.7-2.3-0.8c-0.5-0.1-1.1-0.2-1.6-0.2c-0.7,0-1.4,0.1-2.1,0.3c-0.1,0-0.3,0.1-0.4,0.1c-0.1,0-0.2,0.1-0.3,0.1
			c-0.8,0.4-1.5,0.8-2.3,1.3c-0.6,0.4-1.3,0.8-2,1.1c-0.2,0.1-0.4,0.2-0.6,0.3c-1.6,0.8-3.1,1.5-4.7,2.1c-0.2,0.1-0.5,0.2-0.7,0.2
			l-0.1,0c-0.9,0.3-1.7,0.6-2.5,0.8c-0.3,0.1-0.6,0.1-0.8,0.2c-0.7,0.2-1.3,0.3-2,0.4c-1.6,0.2-3.2,0.1-5-0.3
			c-0.3-0.1-0.6-0.1-0.9-0.2c-1.4-0.4-2.9-0.9-4.2-1.6l0,0c-0.3-0.1-0.5-0.3-0.8-0.4l-0.1,0c-0.9-0.5-1.8-1.1-2.6-1.6
			c-0.1-0.1-0.2-0.1-0.3-0.2l0,0l-1.1-0.6c-0.7-0.4-1.3-0.7-1.9-1c-0.8-0.4-1.6-0.7-2.3-0.8c-0.5-0.1-1-0.2-1.5-0.2
			c-0.1,0-0.3,0-0.4,0l-0.1,0c-0.1,0-0.2,0-0.3,0c-0.1,0-0.2,0-0.3,0l-0.1,0c-0.2,0-0.3,0-0.5,0.1c-0.2,0-0.3,0.1-0.4,0.1
			c-0.6,0.1-1,0.3-1.4,0.6c-0.7,0.4-1.4,0.8-2.1,1.2l-1.1,0.6l-0.1,0c-0.2,0.1-0.4,0.2-0.5,0.3c-0.2,0.1-0.4,0.2-0.6,0.3
			c-1.6,0.8-3.1,1.5-4.7,2.1c-0.3,0.1-0.5,0.2-0.7,0.3c-0.9,0.3-1.7,0.6-2.5,0.8c-0.3,0.1-0.5,0.1-0.8,0.2c-0.7,0.2-1.3,0.3-2,0.4
			c-1.6,0.2-3.2,0.1-5-0.3c-0.3-0.1-0.6-0.1-0.9-0.2c-1.4-0.4-2.9-0.9-4.2-1.6c-0.3-0.1-0.6-0.3-0.8-0.4l0,0c-0.9-0.5-1.7-1-2.5-1.5
			l-0.1-0.1c-0.1-0.1-0.2-0.1-0.3-0.2l-0.1,0l-1.1-0.6c-0.7-0.4-1.3-0.7-1.9-1c-0.8-0.4-1.6-0.7-2.3-0.8c-0.5-0.1-1-0.2-1.5-0.2
			c-0.3,0-0.6,0-1,0.1l-0.1,0c-0.2,0-0.3,0-0.5,0.1c-0.2,0-0.3,0.1-0.4,0.1c-0.6,0.1-1,0.3-1.4,0.6c-0.6,0.4-1.3,0.8-2.1,1.2
			l-1.1,0.6l-0.1-0.1c-0.2,0.1-0.4,0.2-0.5,0.3c-0.2,0.1-0.4,0.2-0.7,0.3c-1.5,0.8-3.1,1.5-4.7,2.1c-0.3,0.1-0.5,0.2-0.7,0.3
			c-0.9,0.3-1.7,0.6-2.5,0.8c-0.3,0.1-0.6,0.1-0.8,0.2c-0.7,0.2-1.3,0.3-2,0.4c-1.6,0.2-3.2,0.1-5-0.3c-0.3-0.1-0.6-0.1-0.9-0.2
			c-1.4-0.4-2.9-0.9-4.2-1.6c-0.3-0.1-0.5-0.3-0.8-0.4l-0.1,0c-0.9-0.5-1.7-1-2.5-1.5l-0.1-0.1c-0.1-0.1-0.2-0.1-0.3-0.2l0,0
			l-1.1-0.6c-0.7-0.4-1.3-0.7-1.9-1c-0.8-0.4-1.6-0.7-2.3-0.8c-0.5-0.1-1-0.2-1.5-0.2c-0.1,0-0.3,0-0.4,0l-0.1,0c-0.1,0-0.2,0-0.3,0
			c-0.1,0-0.2,0-0.3,0l-0.1,0c-0.2,0-0.3,0-0.5,0.1c-0.2,0-0.3,0.1-0.4,0.1c-0.5,0.1-1,0.3-1.4,0.6c-0.7,0.4-1.4,0.8-2.1,1.2
			l-1.2,0.6l-0.1,0c-0.1,0.1-0.3,0.2-0.4,0.2c-0.2,0.1-0.4,0.2-0.6,0.3c-1.6,0.8-3.1,1.5-4.7,2.1c-0.2,0.1-0.5,0.2-0.7,0.3
			c-0.9,0.3-1.7,0.6-2.5,0.8c-0.3,0.1-0.5,0.1-0.8,0.2c-0.7,0.2-1.3,0.3-2,0.4c-0.5,0.1-1.1,0.1-1.6,0.1c-1.1,0-2.2-0.1-3.4-0.4
			c-0.3-0.1-0.6-0.1-0.9-0.2c-1.4-0.4-2.8-0.9-4.2-1.6c-0.3-0.1-0.6-0.3-0.8-0.4l0,0c-0.9-0.5-1.7-1-2.5-1.5l-0.9-0.6
			c-2.1-1.3-4.7-2.7-7.3-2.2l-0.1,0c-0.2,0-0.3,0-0.5,0.1c-0.2,0-0.3,0.1-0.5,0.1c-0.5,0.1-1,0.3-1.4,0.6c-0.6,0.4-1.3,0.8-2.1,1.2
			l-1.1,0.6l-1.1-0.7C61,179.8,59.7,178.9,58.4,177.9z"/>
	</g>
	<g>
		<g>
			<path class="st0" d="M80,254.1h2.6c1.4,0,2.4,0.1,3.1,0.4s1.1,0.7,1.5,1.3s0.6,1.3,0.6,2.1c0,0.9-0.2,1.6-0.6,2.1
				c-0.4,0.6-1,1-1.8,1.3l3.1,5.8h-2.7l-2.9-5.5h-0.2v5.5H80V254.1z M82.5,259.2h0.8c0.8,0,1.3-0.1,1.6-0.3c0.3-0.2,0.4-0.5,0.4-1
				c0-0.3-0.1-0.5-0.2-0.7c-0.1-0.2-0.3-0.4-0.6-0.5c-0.2-0.1-0.7-0.1-1.4-0.1h-0.7V259.2z"/>
			<path class="st0" d="M90.3,254.1h7.1v2.4h-4.6v2.3h4.6v2.4h-4.6v3.4h4.6v2.4h-7.1V254.1z"/>
			<path class="st0" d="M106.5,255.9l-1.8,1.6c-0.6-0.9-1.3-1.3-2-1.3c-0.3,0-0.6,0.1-0.8,0.3c-0.2,0.2-0.3,0.4-0.3,0.6
				s0.1,0.4,0.2,0.6c0.2,0.3,0.8,0.8,1.8,1.7c0.9,0.8,1.5,1.3,1.7,1.5c0.5,0.5,0.9,1,1.1,1.4c0.2,0.5,0.3,1,0.3,1.5
				c0,1.1-0.4,1.9-1.1,2.6c-0.7,0.7-1.7,1-2.9,1c-0.9,0-1.7-0.2-2.4-0.7c-0.7-0.5-1.3-1.2-1.8-2.1l2.1-1.3c0.6,1.1,1.3,1.7,2.1,1.7
				c0.4,0,0.8-0.1,1.1-0.4c0.3-0.2,0.4-0.5,0.4-0.9c0-0.3-0.1-0.6-0.3-0.9s-0.7-0.7-1.4-1.3c-1.4-1.1-2.3-2-2.7-2.7
				c-0.4-0.6-0.6-1.2-0.6-1.9c0-0.9,0.3-1.7,1-2.3c0.7-0.6,1.5-1,2.5-1c0.6,0,1.3,0.1,1.8,0.4C105.2,254.5,105.8,255.1,106.5,255.9z
				"/>
			<path class="st0" d="M107.8,254.1h7.2v2.4h-2.4V267h-2.5v-10.5h-2.3V254.1z"/>
			<path class="st0" d="M120.6,254.1h2.5l5,12.9h-2.6l-1-2.7h-5.3l-1.1,2.7h-2.6L120.6,254.1z M121.8,257.5l-1.7,4.4h3.5
				L121.8,257.5z"/>
			<path class="st0" d="M129.9,254.1h2.5v8.4c0,0.7,0.1,1.2,0.2,1.5c0.1,0.3,0.3,0.5,0.6,0.7c0.3,0.2,0.6,0.3,1.1,0.3
				c0.4,0,0.8-0.1,1.1-0.3s0.5-0.5,0.7-0.8s0.2-0.9,0.2-1.8v-8.1h2.5v7.7c0,1.3-0.1,2.2-0.2,2.7c-0.1,0.5-0.4,1-0.8,1.5
				c-0.4,0.5-0.9,0.8-1.4,1c-0.5,0.2-1.2,0.3-1.9,0.3c-0.9,0-1.8-0.2-2.5-0.6c-0.7-0.4-1.2-1-1.5-1.6c-0.3-0.6-0.4-1.7-0.4-3.3
				V254.1z"/>
			<path class="st0" d="M141.7,254.1h2.6c1.4,0,2.4,0.1,3.1,0.4s1.1,0.7,1.5,1.3s0.6,1.3,0.6,2.1c0,0.9-0.2,1.6-0.6,2.1
				c-0.4,0.6-1,1-1.8,1.3l3.1,5.8h-2.7l-2.9-5.5h-0.2v5.5h-2.5V254.1z M144.1,259.2h0.8c0.8,0,1.3-0.1,1.6-0.3
				c0.3-0.2,0.4-0.5,0.4-1c0-0.3-0.1-0.5-0.2-0.7c-0.1-0.2-0.3-0.4-0.6-0.5c-0.2-0.1-0.7-0.1-1.4-0.1h-0.7V259.2z"/>
			<path class="st0" d="M155.9,254.1h2.5l5,12.9h-2.6l-1-2.7h-5.3l-1.1,2.7h-2.6L155.9,254.1z M157.2,257.5l-1.7,4.4h3.5
				L157.2,257.5z"/>
			<path class="st0" d="M177.2,256.4l-1.7,1.6c-1.2-1.2-2.5-1.9-4-1.9c-1.2,0-2.3,0.4-3.1,1.3c-0.8,0.8-1.3,1.9-1.3,3.1
				c0,0.9,0.2,1.6,0.6,2.3c0.4,0.7,0.9,1.2,1.6,1.6s1.4,0.6,2.3,0.6c0.7,0,1.4-0.1,2-0.4c0.6-0.3,1.2-0.8,2-1.5l1.7,1.7
				c-1,0.9-1.9,1.6-2.7,1.9c-0.8,0.4-1.8,0.5-2.9,0.5c-2,0-3.7-0.6-4.9-1.9s-1.9-2.9-1.9-4.9c0-1.3,0.3-2.4,0.9-3.4
				c0.6-1,1.4-1.8,2.5-2.4s2.3-0.9,3.5-0.9c1.1,0,2.1,0.2,3.1,0.7C175.6,254.9,176.5,255.5,177.2,256.4z"/>
			<path class="st0" d="M179.2,254.1h2.4V267h-2.4V254.1z"/>
			<path class="st0" d="M190.5,253.8c1.8,0,3.4,0.7,4.7,2s2,2.9,2,4.8c0,1.9-0.7,3.5-2,4.8c-1.3,1.3-2.9,2-4.7,2
				c-1.9,0-3.6-0.7-4.8-2c-1.3-1.3-1.9-2.9-1.9-4.8c0-1.2,0.3-2.4,0.9-3.4s1.4-1.9,2.5-2.5C188.1,254.1,189.3,253.8,190.5,253.8z
				 M190.5,256.2c-1.2,0-2.2,0.4-3,1.3c-0.8,0.8-1.2,1.9-1.2,3.2c0,1.4,0.5,2.6,1.5,3.4c0.8,0.7,1.7,1,2.7,1c1.2,0,2.2-0.4,3-1.3
				s1.2-1.9,1.2-3.1c0-1.2-0.4-2.3-1.2-3.1S191.6,256.2,190.5,256.2z M190.9,249.7h2.8l-3.2,3.4h-1.7L190.9,249.7z"/>
			<path class="st0" d="M199.5,254.1h2.4l5.5,8.5v-8.5h2.5V267h-2.4l-5.5-8.5v8.5h-2.5V254.1z"/>
			<path class="st0" d="M91.8,272.1h7.1v2.4h-4.6v2.3h4.6v2.4h-4.6v3.4h4.6v2.4h-7.1V272.1z"/>
			<path class="st0" d="M113,274.4l-1.7,1.6c-1.2-1.2-2.5-1.9-4-1.9c-1.2,0-2.3,0.4-3.1,1.3c-0.8,0.8-1.3,1.9-1.3,3.1
				c0,0.9,0.2,1.6,0.6,2.3c0.4,0.7,0.9,1.2,1.6,1.6s1.4,0.6,2.3,0.6c0.7,0,1.4-0.1,2-0.4c0.6-0.3,1.2-0.8,2-1.5l1.7,1.7
				c-1,0.9-1.9,1.6-2.7,1.9c-0.8,0.4-1.8,0.5-2.9,0.5c-2,0-3.7-0.6-4.9-1.9s-1.9-2.9-1.9-4.9c0-1.3,0.3-2.4,0.9-3.4
				c0.6-1,1.4-1.8,2.5-2.4s2.3-0.9,3.5-0.9c1.1,0,2.1,0.2,3.1,0.7C111.5,272.9,112.3,273.5,113,274.4z"/>
			<path class="st0" d="M121.3,271.8c1.8,0,3.4,0.7,4.7,2s2,2.9,2,4.8c0,1.9-0.7,3.5-2,4.8c-1.3,1.3-2.9,2-4.7,2
				c-1.9,0-3.6-0.7-4.8-2c-1.3-1.3-1.9-2.9-1.9-4.8c0-1.2,0.3-2.4,0.9-3.4s1.4-1.9,2.5-2.5C119,272.1,120.1,271.8,121.3,271.8z
				 M121.3,274.2c-1.2,0-2.2,0.4-3,1.3c-0.8,0.8-1.2,1.9-1.2,3.2c0,1.4,0.5,2.6,1.5,3.4c0.8,0.7,1.7,1,2.7,1c1.2,0,2.2-0.4,3-1.3
				s1.2-1.9,1.2-3.1c0-1.2-0.4-2.3-1.2-3.1S122.5,274.2,121.3,274.2z"/>
			<path class="st0" d="M130.3,272.1h2.5v10.6h3.6v2.3h-6.1V272.1z"/>
			<path class="st0" d="M144.4,271.8c1.8,0,3.4,0.7,4.7,2s2,2.9,2,4.8c0,1.9-0.7,3.5-2,4.8c-1.3,1.3-2.9,2-4.7,2
				c-1.9,0-3.6-0.7-4.8-2c-1.3-1.3-1.9-2.9-1.9-4.8c0-1.2,0.3-2.4,0.9-3.4s1.4-1.9,2.5-2.5C142,272.1,143.2,271.8,144.4,271.8z
				 M144.3,274.2c-1.2,0-2.2,0.4-3,1.3c-0.8,0.8-1.2,1.9-1.2,3.2c0,1.4,0.5,2.6,1.5,3.4c0.8,0.7,1.7,1,2.7,1c1.2,0,2.2-0.4,3-1.3
				s1.2-1.9,1.2-3.1c0-1.2-0.4-2.3-1.2-3.1S145.5,274.2,144.3,274.2z M144.8,267.7h2.8l-3.2,3.4h-1.7L144.8,267.7z"/>
			<path class="st0" d="M165.3,274.2l-1.7,1.7c-1.1-1.2-2.4-1.7-3.8-1.7c-1.3,0-2.3,0.4-3.2,1.3c-0.9,0.8-1.3,1.9-1.3,3.1
				c0,1.2,0.4,2.3,1.3,3.2s2,1.3,3.3,1.3c0.9,0,1.6-0.2,2.2-0.5c0.6-0.4,1.1-0.9,1.4-1.7h-3.7v-2.3h6.5l0,0.5c0,1.1-0.3,2.2-0.9,3.2
				c-0.6,1-1.3,1.8-2.3,2.3c-0.9,0.5-2,0.8-3.3,0.8c-1.3,0-2.5-0.3-3.6-0.9c-1.1-0.6-1.9-1.4-2.5-2.5c-0.6-1.1-0.9-2.2-0.9-3.5
				c0-1.7,0.6-3.2,1.7-4.5c1.3-1.5,3.1-2.3,5.2-2.3c1.1,0,2.2,0.2,3.2,0.6C163.7,272.8,164.5,273.4,165.3,274.2z"/>
			<path class="st0" d="M168.3,272.1h2.4V285h-2.4V272.1z"/>
			<path class="st0" d="M185.4,274.4l-1.7,1.6c-1.2-1.2-2.5-1.9-4-1.9c-1.2,0-2.3,0.4-3.1,1.3c-0.8,0.8-1.3,1.9-1.3,3.1
				c0,0.9,0.2,1.6,0.6,2.3c0.4,0.7,0.9,1.2,1.6,1.6s1.4,0.6,2.3,0.6c0.7,0,1.4-0.1,2-0.4c0.6-0.3,1.2-0.8,2-1.5l1.7,1.7
				c-1,0.9-1.9,1.6-2.7,1.9c-0.8,0.4-1.8,0.5-2.9,0.5c-2,0-3.7-0.6-4.9-1.9s-1.9-2.9-1.9-4.9c0-1.3,0.3-2.4,0.9-3.4
				c0.6-1,1.4-1.8,2.5-2.4s2.3-0.9,3.5-0.9c1.1,0,2.1,0.2,3.1,0.7C183.9,272.9,184.7,273.5,185.4,274.4z"/>
			<path class="st0" d="M191.6,272.1h2.5l5,12.9h-2.6l-1-2.7h-5.3l-1.1,2.7h-2.6L191.6,272.1z M192.8,275.5l-1.7,4.4h3.5
				L192.8,275.5z"/>
		</g>
	</g>
</g>
</svg>
