<?xml version="1.0" encoding="utf-8"?>
<!-- Generator: Adobe Illustrator 24.0.0, SVG Export Plug-In . SVG Version: 6.00 Build 0)  -->
<svg version="1.1" id="Layer_1" xmlns="http://www.w3.org/2000/svg" xmlns:xlink="http://www.w3.org/1999/xlink" x="0px" y="0px"
	 viewBox="0 0 65 137.9" style="enable-background:new 0 0 65 137.9;" xml:space="preserve">
<style type="text/css">
	.st0{clip-path:url(#SVGID_1_);fill-rule:evenodd;clip-rule:evenodd;fill:url(#SVGID_2_);}
	.st1{clip-path:url(#SVGID_1_);fill-rule:evenodd;clip-rule:evenodd;fill:url(#SVGID_3_);}
	.st2{clip-path:url(#SVGID_1_);fill-rule:evenodd;clip-rule:evenodd;fill:url(#SVGID_4_);}
	.st3{clip-path:url(#SVGID_1_);fill-rule:evenodd;clip-rule:evenodd;fill:url(#SVGID_5_);}
	.st4{clip-path:url(#SVGID_1_);fill-rule:evenodd;clip-rule:evenodd;fill:url(#SVGID_6_);}
	.st5{clip-path:url(#SVGID_1_);fill-rule:evenodd;clip-rule:evenodd;fill:url(#SVGID_7_);}
	.st6{clip-path:url(#SVGID_1_);fill-rule:evenodd;clip-rule:evenodd;fill:url(#SVGID_8_);}
	.st7{clip-path:url(#SVGID_1_);fill-rule:evenodd;clip-rule:evenodd;fill:url(#SVGID_9_);}
	.st8{clip-path:url(#SVGID_1_);fill-rule:evenodd;clip-rule:evenodd;fill:url(#SVGID_10_);}
	.st9{clip-path:url(#SVGID_1_);fill-rule:evenodd;clip-rule:evenodd;fill:url(#SVGID_11_);}
	.st10{clip-path:url(#SVGID_1_);fill-rule:evenodd;clip-rule:evenodd;fill:url(#SVGID_12_);}
	.st11{clip-path:url(#SVGID_1_);fill-rule:evenodd;clip-rule:evenodd;fill:url(#SVGID_13_);}
	.st12{clip-path:url(#SVGID_1_);fill-rule:evenodd;clip-rule:evenodd;fill:url(#SVGID_14_);}
	.st13{clip-path:url(#SVGID_1_);fill-rule:evenodd;clip-rule:evenodd;fill:url(#SVGID_15_);}
	.st14{clip-path:url(#SVGID_1_);fill-rule:evenodd;clip-rule:evenodd;fill:url(#SVGID_16_);}
	.st15{clip-path:url(#SVGID_1_);fill-rule:evenodd;clip-rule:evenodd;fill:url(#SVGID_17_);}
	.st16{clip-path:url(#SVGID_1_);fill-rule:evenodd;clip-rule:evenodd;fill:url(#SVGID_18_);}
	.st17{clip-path:url(#SVGID_1_);fill-rule:evenodd;clip-rule:evenodd;fill:url(#SVGID_19_);}
	.st18{clip-path:url(#SVGID_1_);fill-rule:evenodd;clip-rule:evenodd;fill:url(#SVGID_20_);}
	.st19{clip-path:url(#SVGID_1_);fill-rule:evenodd;clip-rule:evenodd;fill:url(#SVGID_21_);}
	.st20{clip-path:url(#SVGID_1_);fill-rule:evenodd;clip-rule:evenodd;fill:url(#SVGID_22_);}
	.st21{clip-path:url(#SVGID_1_);fill-rule:evenodd;clip-rule:evenodd;fill:url(#SVGID_23_);}
	.st22{clip-path:url(#SVGID_1_);fill-rule:evenodd;clip-rule:evenodd;fill:url(#SVGID_24_);}
	.st23{clip-path:url(#SVGID_1_);fill-rule:evenodd;clip-rule:evenodd;fill:url(#SVGID_25_);}
</style>
<g>
	<defs>
		<rect id="SVGID_27_" x="0" y="0" width="65" height="138.2"/>
	</defs>
	<clipPath id="SVGID_1_">
		<use xlink:href="#SVGID_27_"  style="overflow:visible;"/>
	</clipPath>
	<linearGradient id="SVGID_2_" gradientUnits="userSpaceOnUse" x1="7.718425e-04" y1="141.0134" x2="7.718425e-04" y2="-1.9859">
		<stop  offset="7.262570e-02" style="stop-color:#A5A4A5"/>
		<stop  offset="1" style="stop-color:#181737"/>
	</linearGradient>
	<path class="st0" d="M4.4,1.4c-0.7,3.3-1.6,6.5-2.6,9.7c0,0.1-0.1,0.2-0.1,0.3c-0.2,0.4-0.6,0.7-1,0.7c-0.2,0-0.4,0-0.7,0
		c-0.2,0-0.4,0-0.7,0c-0.4,0-0.8-0.3-1-0.7c0-0.1-0.1-0.2-0.1-0.3c-1-3.2-1.9-6.4-2.6-9.7C-4.4,1-4.1,0.5-3.7,0.4c0,0,0,0,0.1,0
		C-3,0.4-2.4,0.3-1.8,0.3c0.6,0,1.2,0,1.8,0c0.6,0,1.2,0,1.8,0c0.6,0,1.2,0.1,1.8,0.1c0,0,0,0,0.1,0C4.1,0.5,4.4,1,4.4,1.4z"/>
	<linearGradient id="SVGID_3_" gradientUnits="userSpaceOnUse" x1="65.0231" y1="141.0134" x2="65.0231" y2="-1.9859">
		<stop  offset="7.262570e-02" style="stop-color:#A5A4A5"/>
		<stop  offset="1" style="stop-color:#181737"/>
	</linearGradient>
	<path class="st1" d="M69.4,1.4c-0.7,3.3-1.6,6.5-2.6,9.7c0,0.1-0.1,0.2-0.1,0.3c-0.2,0.4-0.6,0.7-1,0.7c-0.2,0-0.4,0-0.7,0
		c-0.2,0-0.4,0-0.7,0c-0.4,0-0.8-0.3-1-0.7c0-0.1-0.1-0.2-0.1-0.3c-1-3.2-1.9-6.4-2.6-9.7C60.6,1,61,0.5,61.4,0.4c0,0,0,0,0.1,0
		c0.6-0.1,1.2-0.1,1.8-0.1c0.6,0,1.2,0,1.8,0c0.6,0,1.2,0,1.8,0c0.6,0,1.2,0.1,1.8,0.1c0,0,0,0,0.1,0C69.1,0.5,69.5,1,69.4,1.4z"/>
	<linearGradient id="SVGID_4_" gradientUnits="userSpaceOnUse" x1="7.718425e-04" y1="141.0134" x2="7.718425e-04" y2="-1.9859">
		<stop  offset="7.262570e-02" style="stop-color:#A5A4A5"/>
		<stop  offset="1" style="stop-color:#181737"/>
	</linearGradient>
	<path class="st2" d="M4.4,17.3c-0.7,3.3-1.6,6.5-2.6,9.7c0,0.1-0.1,0.2-0.1,0.3c-0.2,0.4-0.6,0.7-1,0.7c-0.2,0-0.4,0-0.7,0
		c-0.2,0-0.4,0-0.7,0c-0.4,0-0.8-0.3-1-0.7c0-0.1-0.1-0.2-0.1-0.3c-1-3.2-1.9-6.4-2.6-9.7c-0.1-0.4,0.3-0.9,0.7-0.9c0,0,0,0,0.1,0
		c0.6-0.1,1.2-0.1,1.8-0.1c0.6,0,1.2,0,1.8,0c0.6,0,1.2,0,1.8,0c0.6,0,1.2,0.1,1.8,0.1c0,0,0,0,0.1,0C4.1,16.5,4.4,17,4.4,17.3z"/>
	<linearGradient id="SVGID_5_" gradientUnits="userSpaceOnUse" x1="65.0231" y1="141.0134" x2="65.0231" y2="-1.9859">
		<stop  offset="7.262570e-02" style="stop-color:#A5A4A5"/>
		<stop  offset="1" style="stop-color:#181737"/>
	</linearGradient>
	<path class="st3" d="M69.4,17.3c-0.7,3.3-1.6,6.5-2.6,9.7c0,0.1-0.1,0.2-0.1,0.3c-0.2,0.4-0.6,0.7-1,0.7c-0.2,0-0.4,0-0.7,0
		c-0.2,0-0.4,0-0.7,0c-0.4,0-0.8-0.3-1-0.7c0-0.1-0.1-0.2-0.1-0.3c-1-3.2-1.9-6.4-2.6-9.7c-0.1-0.4,0.3-0.9,0.7-0.9c0,0,0,0,0.1,0
		c0.6-0.1,1.2-0.1,1.8-0.1c0.6,0,1.2,0,1.8,0c0.6,0,1.2,0,1.8,0c0.6,0,1.2,0.1,1.8,0.1c0,0,0,0,0.1,0C69.1,16.5,69.5,17,69.4,17.3z"
		/>
	<linearGradient id="SVGID_6_" gradientUnits="userSpaceOnUse" x1="7.718425e-04" y1="141.0134" x2="7.718425e-04" y2="-1.9859">
		<stop  offset="7.262570e-02" style="stop-color:#A5A4A5"/>
		<stop  offset="1" style="stop-color:#181737"/>
	</linearGradient>
	<path class="st4" d="M4.4,33.3c-0.7,3.3-1.6,6.5-2.6,9.7c0,0.1-0.1,0.2-0.1,0.3c-0.2,0.4-0.6,0.7-1,0.7c-0.2,0-0.4,0-0.7,0
		c-0.2,0-0.4,0-0.7,0c-0.4,0-0.8-0.3-1-0.7c0-0.1-0.1-0.2-0.1-0.3c-1-3.2-1.9-6.4-2.6-9.7c-0.1-0.4,0.3-0.9,0.7-0.9c0,0,0,0,0.1,0
		c0.6-0.1,1.2-0.1,1.8-0.1c0.6,0,1.2,0,1.8,0c0.6,0,1.2,0,1.8,0c0.6,0,1.2,0.1,1.8,0.1c0,0,0,0,0.1,0C4.1,32.4,4.4,32.9,4.4,33.3z"
		/>
	<linearGradient id="SVGID_7_" gradientUnits="userSpaceOnUse" x1="65.0231" y1="141.0134" x2="65.0231" y2="-1.9859">
		<stop  offset="7.262570e-02" style="stop-color:#A5A4A5"/>
		<stop  offset="1" style="stop-color:#181737"/>
	</linearGradient>
	<path class="st5" d="M69.4,33.3c-0.7,3.3-1.6,6.5-2.6,9.7c0,0.1-0.1,0.2-0.1,0.3c-0.2,0.4-0.6,0.7-1,0.7c-0.2,0-0.4,0-0.7,0
		c-0.2,0-0.4,0-0.7,0c-0.4,0-0.8-0.3-1-0.7c0-0.1-0.1-0.2-0.1-0.3c-1-3.2-1.9-6.4-2.6-9.7c-0.1-0.4,0.3-0.9,0.7-0.9c0,0,0,0,0.1,0
		c0.6-0.1,1.2-0.1,1.8-0.1c0.6,0,1.2,0,1.8,0c0.6,0,1.2,0,1.8,0c0.6,0,1.2,0.1,1.8,0.1c0,0,0,0,0.1,0C69.1,32.4,69.5,32.9,69.4,33.3
		z"/>
	<linearGradient id="SVGID_8_" gradientUnits="userSpaceOnUse" x1="7.718425e-04" y1="141.0134" x2="7.718425e-04" y2="-1.9859">
		<stop  offset="7.262570e-02" style="stop-color:#A5A4A5"/>
		<stop  offset="1" style="stop-color:#181737"/>
	</linearGradient>
	<path class="st6" d="M4.4,49.3c-0.7,3.3-1.6,6.5-2.6,9.7c0,0.1-0.1,0.2-0.1,0.3c-0.2,0.4-0.6,0.7-1,0.7c-0.2,0-0.4,0-0.7,0
		c-0.2,0-0.4,0-0.7,0c-0.4,0-0.8-0.3-1-0.7c0-0.1-0.1-0.2-0.1-0.3c-1-3.2-1.9-6.4-2.6-9.7c-0.1-0.4,0.3-0.9,0.7-0.9c0,0,0,0,0.1,0
		c0.6-0.1,1.2-0.1,1.8-0.1c0.6,0,1.2,0,1.8,0c0.6,0,1.2,0,1.8,0c0.6,0,1.2,0.1,1.8,0.1c0,0,0,0,0.1,0C4.1,48.4,4.4,48.9,4.4,49.3z"
		/>
	<linearGradient id="SVGID_9_" gradientUnits="userSpaceOnUse" x1="65.0231" y1="141.0134" x2="65.0231" y2="-1.9859">
		<stop  offset="7.262570e-02" style="stop-color:#A5A4A5"/>
		<stop  offset="1" style="stop-color:#181737"/>
	</linearGradient>
	<path class="st7" d="M69.4,49.3c-0.7,3.3-1.6,6.5-2.6,9.7c0,0.1-0.1,0.2-0.1,0.3c-0.2,0.4-0.6,0.7-1,0.7c-0.2,0-0.4,0-0.7,0
		c-0.2,0-0.4,0-0.7,0c-0.4,0-0.8-0.3-1-0.7c0-0.1-0.1-0.2-0.1-0.3c-1-3.2-1.9-6.4-2.6-9.7c-0.1-0.4,0.3-0.9,0.7-0.9c0,0,0,0,0.1,0
		c0.6-0.1,1.2-0.1,1.8-0.1c0.6,0,1.2,0,1.8,0c0.6,0,1.2,0,1.8,0c0.6,0,1.2,0.1,1.8,0.1c0,0,0,0,0.1,0C69.1,48.4,69.5,48.9,69.4,49.3
		z"/>
	<linearGradient id="SVGID_10_" gradientUnits="userSpaceOnUse" x1="7.718425e-04" y1="141.0134" x2="7.718425e-04" y2="-1.9859">
		<stop  offset="7.262570e-02" style="stop-color:#A5A4A5"/>
		<stop  offset="1" style="stop-color:#181737"/>
	</linearGradient>
	<path class="st8" d="M4.4,65.2c-0.7,3.3-1.6,6.5-2.6,9.7c0,0.1-0.1,0.2-0.1,0.3c-0.2,0.4-0.6,0.7-1,0.7c-0.2,0-0.4,0-0.7,0
		c-0.2,0-0.4,0-0.7,0c-0.4,0-0.8-0.3-1-0.7c0-0.1-0.1-0.2-0.1-0.3c-1-3.2-1.9-6.4-2.6-9.7c-0.1-0.4,0.3-0.9,0.7-0.9c0,0,0,0,0.1,0
		c0.6-0.1,1.2-0.1,1.8-0.1c0.6,0,1.2,0,1.8,0c0.6,0,1.2,0,1.8,0c0.6,0,1.2,0.1,1.8,0.1c0,0,0,0,0.1,0C4.1,64.4,4.4,64.9,4.4,65.2z"
		/>
	<linearGradient id="SVGID_11_" gradientUnits="userSpaceOnUse" x1="65.0231" y1="141.0134" x2="65.0231" y2="-1.9859">
		<stop  offset="7.262570e-02" style="stop-color:#A5A4A5"/>
		<stop  offset="1" style="stop-color:#181737"/>
	</linearGradient>
	<path class="st9" d="M69.4,65.2c-0.7,3.3-1.6,6.5-2.6,9.7c0,0.1-0.1,0.2-0.1,0.3c-0.2,0.4-0.6,0.7-1,0.7c-0.2,0-0.4,0-0.7,0
		c-0.2,0-0.4,0-0.7,0c-0.4,0-0.8-0.3-1-0.7c0-0.1-0.1-0.2-0.1-0.3c-1-3.2-1.9-6.4-2.6-9.7c-0.1-0.4,0.3-0.9,0.7-0.9c0,0,0,0,0.1,0
		c0.6-0.1,1.2-0.1,1.8-0.1c0.6,0,1.2,0,1.8,0c0.6,0,1.2,0,1.8,0c0.6,0,1.2,0.1,1.8,0.1c0,0,0,0,0.1,0C69.1,64.4,69.5,64.9,69.4,65.2
		z"/>
	<linearGradient id="SVGID_12_" gradientUnits="userSpaceOnUse" x1="7.718425e-04" y1="141.0134" x2="7.718425e-04" y2="-1.9859">
		<stop  offset="7.262570e-02" style="stop-color:#A5A4A5"/>
		<stop  offset="1" style="stop-color:#181737"/>
	</linearGradient>
	<path class="st10" d="M4.4,81.2c-0.7,3.3-1.6,6.5-2.6,9.7c0,0.1-0.1,0.2-0.1,0.3c-0.2,0.4-0.6,0.7-1,0.7c-0.2,0-0.4,0-0.7,0
		c-0.2,0-0.4,0-0.7,0c-0.4,0-0.8-0.3-1-0.7c0-0.1-0.1-0.2-0.1-0.3c-1-3.2-1.9-6.4-2.6-9.7c-0.1-0.4,0.3-0.9,0.7-0.9c0,0,0,0,0.1,0
		c0.6-0.1,1.2-0.1,1.8-0.1c0.6,0,1.2,0,1.8,0c0.6,0,1.2,0,1.8,0c0.6,0,1.2,0.1,1.8,0.1c0,0,0,0,0.1,0C4.1,80.4,4.4,80.9,4.4,81.2z"
		/>
	<linearGradient id="SVGID_13_" gradientUnits="userSpaceOnUse" x1="65.0231" y1="141.0134" x2="65.0231" y2="-1.9859">
		<stop  offset="7.262570e-02" style="stop-color:#A5A4A5"/>
		<stop  offset="1" style="stop-color:#181737"/>
	</linearGradient>
	<path class="st11" d="M69.4,81.2c-0.7,3.3-1.6,6.5-2.6,9.7c0,0.1-0.1,0.2-0.1,0.3c-0.2,0.4-0.6,0.7-1,0.7c-0.2,0-0.4,0-0.7,0
		c-0.2,0-0.4,0-0.7,0c-0.4,0-0.8-0.3-1-0.7c0-0.1-0.1-0.2-0.1-0.3c-1-3.2-1.9-6.4-2.6-9.7c-0.1-0.4,0.3-0.9,0.7-0.9c0,0,0,0,0.1,0
		c0.6-0.1,1.2-0.1,1.8-0.1c0.6,0,1.2,0,1.8,0c0.6,0,1.2,0,1.8,0c0.6,0,1.2,0.1,1.8,0.1c0,0,0,0,0.1,0C69.1,80.4,69.5,80.9,69.4,81.2
		z"/>
	<linearGradient id="SVGID_14_" gradientUnits="userSpaceOnUse" x1="7.718425e-04" y1="141.0134" x2="7.718425e-04" y2="-1.9859">
		<stop  offset="7.262570e-02" style="stop-color:#A5A4A5"/>
		<stop  offset="1" style="stop-color:#181737"/>
	</linearGradient>
	<path class="st12" d="M4.4,97.2c-0.7,3.3-1.6,6.5-2.6,9.7c0,0.1-0.1,0.2-0.1,0.3c-0.2,0.4-0.6,0.7-1,0.7c-0.2,0-0.4,0-0.7,0
		c-0.2,0-0.4,0-0.7,0c-0.4,0-0.8-0.3-1-0.7c0-0.1-0.1-0.2-0.1-0.3c-1-3.2-1.9-6.4-2.6-9.7c-0.1-0.4,0.3-0.9,0.7-0.9c0,0,0,0,0.1,0
		c0.6-0.1,1.2-0.1,1.8-0.1c0.6,0,1.2,0,1.8,0c0.6,0,1.2,0,1.8,0c0.6,0,1.2,0.1,1.8,0.1c0,0,0,0,0.1,0C4.1,96.3,4.4,96.8,4.4,97.2z"
		/>
	<linearGradient id="SVGID_15_" gradientUnits="userSpaceOnUse" x1="65.0231" y1="141.0134" x2="65.0231" y2="-1.9859">
		<stop  offset="7.262570e-02" style="stop-color:#A5A4A5"/>
		<stop  offset="1" style="stop-color:#181737"/>
	</linearGradient>
	<path class="st13" d="M69.4,97.2c-0.7,3.3-1.6,6.5-2.6,9.7c0,0.1-0.1,0.2-0.1,0.3c-0.2,0.4-0.6,0.7-1,0.7c-0.2,0-0.4,0-0.7,0
		c-0.2,0-0.4,0-0.7,0c-0.4,0-0.8-0.3-1-0.7c0-0.1-0.1-0.2-0.1-0.3c-1-3.2-1.9-6.4-2.6-9.7c-0.1-0.4,0.3-0.9,0.7-0.9c0,0,0,0,0.1,0
		c0.6-0.1,1.2-0.1,1.8-0.1c0.6,0,1.2,0,1.8,0c0.6,0,1.2,0,1.8,0c0.6,0,1.2,0.1,1.8,0.1c0,0,0,0,0.1,0C69.1,96.3,69.5,96.8,69.4,97.2
		z"/>
	<linearGradient id="SVGID_16_" gradientUnits="userSpaceOnUse" x1="7.718425e-04" y1="141.0134" x2="7.718425e-04" y2="-1.9859">
		<stop  offset="7.262570e-02" style="stop-color:#A5A4A5"/>
		<stop  offset="1" style="stop-color:#181737"/>
	</linearGradient>
	<path class="st14" d="M4.4,113.2c-0.7,3.3-1.6,6.5-2.6,9.7c0,0.1-0.1,0.2-0.1,0.3c-0.2,0.4-0.6,0.7-1,0.7c-0.2,0-0.4,0-0.7,0
		c-0.2,0-0.4,0-0.7,0c-0.4,0-0.8-0.3-1-0.7c0-0.1-0.1-0.2-0.1-0.3c-1-3.2-1.9-6.4-2.6-9.7c-0.1-0.4,0.3-0.9,0.7-0.9c0,0,0,0,0.1,0
		c0.6-0.1,1.2-0.1,1.8-0.1c0.6,0,1.2,0,1.8,0c0.6,0,1.2,0,1.8,0c0.6,0,1.2,0.1,1.8,0.1c0,0,0,0,0.1,0C4.1,112.3,4.4,112.8,4.4,113.2
		z"/>
	<linearGradient id="SVGID_17_" gradientUnits="userSpaceOnUse" x1="65.0231" y1="141.0134" x2="65.0231" y2="-1.9859">
		<stop  offset="7.262570e-02" style="stop-color:#A5A4A5"/>
		<stop  offset="1" style="stop-color:#181737"/>
	</linearGradient>
	<path class="st15" d="M69.4,113.2c-0.7,3.3-1.6,6.5-2.6,9.7c0,0.1-0.1,0.2-0.1,0.3c-0.2,0.4-0.6,0.7-1,0.7c-0.2,0-0.4,0-0.7,0
		c-0.2,0-0.4,0-0.7,0c-0.4,0-0.8-0.3-1-0.7c0-0.1-0.1-0.2-0.1-0.3c-1-3.2-1.9-6.4-2.6-9.7c-0.1-0.4,0.3-0.9,0.7-0.9c0,0,0,0,0.1,0
		c0.6-0.1,1.2-0.1,1.8-0.1c0.6,0,1.2,0,1.8,0c0.6,0,1.2,0,1.8,0c0.6,0,1.2,0.1,1.8,0.1c0,0,0,0,0.1,0
		C69.1,112.3,69.5,112.8,69.4,113.2z"/>
	<linearGradient id="SVGID_18_" gradientUnits="userSpaceOnUse" x1="30.7751" y1="141.0134" x2="30.7751" y2="-1.9859">
		<stop  offset="7.262570e-02" style="stop-color:#A5A4A5"/>
		<stop  offset="1" style="stop-color:#181737"/>
	</linearGradient>
	<path class="st16" d="M-4,3.3C-3.3,3.1-2.7,3-2,2.9c0.2,0,0.3-0.1,0.5-0.1c0.2,0,0.3,0,0.5,0c0.1,0,0.2,0,0.3,0c0.2,0,0.5,0,0.7,0
		c0.2,0,0.5,0,0.7,0c0.1,0,0.2,0,0.3,0c0.2,0,0.3,0,0.5,0c0.2,0,0.3,0,0.5,0.1C2.7,3,3.3,3.1,4,3.3c2.5,0.6,4.9,1.6,7.1,2.9
		c1.1,0.6,2.1,1.3,3.1,2c1.3,0.9,2.5,1.8,3.7,2.8c1.5,1.1,2.9,2.3,4.4,3.4c1.1,0.8,2.2,1.6,3.4,2.4c0.2,0.1,0.5,0.3,0.7,0.4
		c0.2,0.2,0.5,0.3,0.7,0.4c0.2,0.1,0.5,0.3,0.8,0.4c1.1,0.5,2.2,0.7,3.3,0.8c0,0,0.1,0,0.1,0c0,0,0.1,0,0.1,0c0.1,0,0.1,0,0.2,0
		c0,0,0.1,0,0.1,0c1.2,0,2.3-0.2,3.4-0.8c0.3-0.1,0.5-0.2,0.8-0.4c0.2-0.1,0.5-0.3,0.7-0.4c0.2-0.1,0.5-0.3,0.7-0.4
		c1.2-0.7,2.3-1.5,3.4-2.4c1.5-1.1,2.9-2.2,4.4-3.4c1.2-0.9,2.4-1.9,3.7-2.8c1-0.7,2-1.4,3.1-2c2.2-1.3,4.6-2.3,7.1-2.9
		c1.1-0.3,2.2-0.4,3.3-0.4c0.7,0,1.5,0,2.2,0c0.2,0,0.4,0,0.5,0.1c0.2,0,0.4,0.3,0.4,0.5c-0.4,1.9-0.9,3.7-1.5,5.5
		c0,0.1,0,0.1-0.1,0.2c-0.1,0.2-0.3,0.4-0.6,0.4c-0.3,0-0.6,0-0.9,0c-0.3,0-0.6,0-0.9,0.1c-1.1,0.2-2.2,0.4-3.2,0.8
		c-1.5,0.5-2.8,1.2-4.2,2c-0.4,0.2-0.7,0.4-1.1,0.7c-1,0.6-2,1.3-2.9,2c-1.1,0.8-2.2,1.7-3.4,2.6c-1.2,0.9-2.3,1.8-3.5,2.7
		c-1.3,1-2.6,1.9-4,2.7c-0.2,0.1-0.5,0.3-0.7,0.4c-0.2,0.1-0.5,0.3-0.7,0.4c-0.7,0.3-1.5,0.6-2.2,0.9c-0.2,0.1-0.4,0.1-0.5,0.2
		c-0.1,0-0.1,0-0.2,0.1c-1.1,0.3-2.3,0.4-3.5,0.4c-1.2,0-2.3,0-3.5-0.4c-0.1,0-0.1,0-0.2-0.1c-0.2-0.1-0.4-0.1-0.5-0.2
		c-0.8-0.3-1.5-0.6-2.2-0.9c-0.2-0.1-0.5-0.2-0.7-0.4c-0.2-0.1-0.5-0.3-0.7-0.4c-1.4-0.8-2.7-1.7-4-2.7c-1.2-0.9-2.3-1.8-3.5-2.7
		c-1.1-0.9-2.2-1.7-3.4-2.6c-0.9-0.7-1.9-1.4-2.9-2c-0.4-0.2-0.7-0.5-1.1-0.7c-1.3-0.8-2.7-1.5-4.2-2c-1-0.4-2.1-0.6-3.2-0.8
		c-0.3-0.1-0.6,0-0.9-0.1c-0.2,0-0.4,0-0.6,0c-0.2,0-0.4,0-0.6,0c-0.3,0-0.6,0-0.9,0.1L-4,3.3z"/>
	<linearGradient id="SVGID_19_" gradientUnits="userSpaceOnUse" x1="30.7751" y1="141.0134" x2="30.7751" y2="-1.9859">
		<stop  offset="7.262570e-02" style="stop-color:#A5A4A5"/>
		<stop  offset="1" style="stop-color:#181737"/>
	</linearGradient>
	<path class="st17" d="M-4,19.2c0.6-0.1,1.3-0.3,1.9-0.3c0.2,0,0.3-0.1,0.5-0.1c0.2,0,0.3,0,0.5,0c0.1,0,0.2,0,0.3,0
		c0.2,0,0.5,0,0.7,0c0.2,0,0.5,0,0.7,0c0.1,0,0.2,0,0.3,0c0.2,0,0.3,0,0.5,0c0.2,0,0.3,0,0.5,0.1C2.7,19,3.3,19.1,4,19.2
		c2.5,0.6,4.9,1.6,7.1,2.9c1.1,0.6,2.1,1.3,3.1,2c1.3,0.9,2.5,1.8,3.7,2.8c1.5,1.1,2.9,2.3,4.4,3.4c1.1,0.8,2.2,1.6,3.4,2.4
		c0.2,0.1,0.5,0.3,0.7,0.4c0.2,0.2,0.5,0.3,0.7,0.4c0.2,0.1,0.5,0.3,0.8,0.4c1.1,0.5,2.2,0.7,3.3,0.8c0,0,0.1,0,0.1,0
		c0,0,0.1,0,0.1,0c0.1,0,0.1,0,0.2,0c0,0,0.1,0,0.1,0c1.2,0,2.3-0.2,3.4-0.8c0.3-0.1,0.5-0.2,0.8-0.4c0.2-0.1,0.5-0.3,0.7-0.4
		c0.2-0.1,0.5-0.3,0.7-0.4c1.2-0.7,2.3-1.5,3.4-2.4c1.5-1.1,2.9-2.2,4.4-3.4c1.2-0.9,2.4-1.9,3.7-2.8c1-0.7,2-1.4,3.1-2
		c2.2-1.3,4.6-2.3,7.1-2.9c1.1-0.3,2.2-0.4,3.3-0.4c0.7,0,1.5,0,2.2,0c0.2,0,0.4,0,0.5,0.1c0.2,0,0.4,0.3,0.4,0.5
		c-0.4,1.9-0.9,3.7-1.5,5.5c0,0.1,0,0.1-0.1,0.2c-0.1,0.2-0.3,0.4-0.6,0.4c-0.3,0-0.6,0-0.9,0c-0.3,0-0.6,0-0.9,0.1
		c-1.1,0.2-2.2,0.4-3.2,0.8c-1.5,0.5-2.8,1.2-4.2,2c-0.4,0.2-0.7,0.4-1.1,0.7c-1,0.6-2,1.3-2.9,2c-1.1,0.8-2.2,1.7-3.4,2.6
		c-1.2,0.9-2.3,1.8-3.5,2.7c-1.3,1-2.6,1.9-4,2.7c-0.2,0.1-0.5,0.3-0.7,0.4c-0.2,0.1-0.5,0.3-0.7,0.4c-0.7,0.3-1.5,0.6-2.2,0.9
		c-0.2,0.1-0.4,0.1-0.5,0.2c-0.1,0-0.1,0-0.2,0.1c-1.1,0.3-2.3,0.4-3.5,0.4c-1.2,0-2.3,0-3.5-0.4c-0.1,0-0.1,0-0.2-0.1
		c-0.2-0.1-0.4-0.1-0.5-0.2c-0.8-0.3-1.5-0.6-2.2-0.9c-0.2-0.1-0.5-0.2-0.7-0.4c-0.2-0.1-0.5-0.3-0.7-0.4c-1.4-0.8-2.7-1.7-4-2.7
		c-1.2-0.9-2.3-1.8-3.5-2.7c-1.1-0.9-2.2-1.7-3.4-2.6c-0.9-0.7-1.9-1.4-2.9-2c-0.4-0.2-0.7-0.5-1.1-0.7c-1.3-0.8-2.7-1.5-4.2-2
		c-1-0.4-2.1-0.6-3.2-0.8c-0.3-0.1-0.6,0-0.9-0.1c-0.2,0-0.4,0-0.6,0c-0.2,0-0.4,0-0.6,0c-0.3,0-0.6,0-0.9,0.1L-4,19.2z"/>
	<linearGradient id="SVGID_20_" gradientUnits="userSpaceOnUse" x1="30.7751" y1="141.0134" x2="30.7751" y2="-1.9859">
		<stop  offset="7.262570e-02" style="stop-color:#A5A4A5"/>
		<stop  offset="1" style="stop-color:#181737"/>
	</linearGradient>
	<path class="st18" d="M-4,35.2c0.6-0.1,1.3-0.3,1.9-0.3c0.2,0,0.3-0.1,0.5-0.1c0.2,0,0.3,0,0.5,0c0.1,0,0.2,0,0.3,0
		c0.2,0,0.5,0,0.7,0c0.2,0,0.5,0,0.7,0c0.1,0,0.2,0,0.3,0c0.2,0,0.3,0,0.5,0c0.2,0,0.3,0,0.5,0.1c0.6,0.1,1.3,0.2,1.9,0.3
		c2.5,0.6,4.9,1.6,7.1,2.9c1.1,0.6,2.1,1.3,3.1,2c1.3,0.9,2.5,1.8,3.7,2.8c1.5,1.1,2.9,2.3,4.4,3.4c1.1,0.8,2.2,1.6,3.4,2.4
		c0.2,0.1,0.5,0.3,0.7,0.4c0.2,0.2,0.5,0.3,0.7,0.4c0.2,0.1,0.5,0.3,0.8,0.4c1.1,0.5,2.2,0.7,3.3,0.8c0,0,0.1,0,0.1,0
		c0,0,0.1,0,0.1,0c0.1,0,0.1,0,0.2,0c0,0,0.1,0,0.1,0c1.2,0,2.3-0.2,3.4-0.8c0.3-0.1,0.5-0.2,0.8-0.4c0.2-0.1,0.5-0.3,0.7-0.4
		c0.2-0.1,0.5-0.3,0.7-0.4c1.2-0.7,2.3-1.5,3.4-2.4c1.5-1.1,2.9-2.2,4.4-3.4c1.2-0.9,2.4-1.9,3.7-2.8c1-0.7,2-1.4,3.1-2
		c2.2-1.3,4.6-2.3,7.1-2.9c1.1-0.3,2.2-0.4,3.3-0.4c0.7,0,1.5,0,2.2,0c0.2,0,0.4,0,0.5,0.1c0.2,0,0.4,0.3,0.4,0.5
		c-0.4,1.9-0.9,3.7-1.5,5.5c0,0.1,0,0.1-0.1,0.2c-0.1,0.2-0.3,0.4-0.6,0.4c-0.3,0-0.6,0-0.9,0c-0.3,0-0.6,0-0.9,0.1
		c-1.1,0.2-2.2,0.4-3.2,0.8c-1.5,0.5-2.8,1.2-4.2,2c-0.4,0.2-0.7,0.4-1.1,0.7c-1,0.6-2,1.3-2.9,2c-1.1,0.8-2.2,1.7-3.4,2.6
		c-1.2,0.9-2.3,1.8-3.5,2.7c-1.3,1-2.6,1.9-4,2.7c-0.2,0.1-0.5,0.3-0.7,0.4c-0.2,0.1-0.5,0.3-0.7,0.4c-0.7,0.3-1.5,0.6-2.2,0.9
		c-0.2,0.1-0.4,0.1-0.5,0.2c-0.1,0-0.1,0-0.2,0.1c-1.1,0.3-2.3,0.4-3.5,0.4c-1.2,0-2.3,0-3.5-0.4c-0.1,0-0.1,0-0.2-0.1
		c-0.2-0.1-0.4-0.1-0.5-0.2c-0.8-0.3-1.5-0.6-2.2-0.9c-0.2-0.1-0.5-0.2-0.7-0.4c-0.2-0.1-0.5-0.3-0.7-0.4c-1.4-0.8-2.7-1.7-4-2.7
		c-1.2-0.9-2.3-1.8-3.5-2.7c-1.1-0.9-2.2-1.7-3.4-2.6c-0.9-0.7-1.9-1.4-2.9-2c-0.4-0.2-0.7-0.5-1.1-0.7c-1.3-0.8-2.7-1.5-4.2-2
		c-1-0.4-2.1-0.6-3.2-0.8c-0.3-0.1-0.6,0-0.9-0.1c-0.2,0-0.4,0-0.6,0c-0.2,0-0.4,0-0.6,0c-0.3,0-0.6,0-0.9,0.1L-4,35.2z"/>
	<linearGradient id="SVGID_21_" gradientUnits="userSpaceOnUse" x1="30.7751" y1="141.0134" x2="30.7751" y2="-1.9859">
		<stop  offset="7.262570e-02" style="stop-color:#A5A4A5"/>
		<stop  offset="1" style="stop-color:#181737"/>
	</linearGradient>
	<path class="st19" d="M-4,51.2c0.6-0.1,1.3-0.3,1.9-0.3c0.2,0,0.3-0.1,0.5-0.1c0.2,0,0.3,0,0.5,0c0.1,0,0.2,0,0.3,0
		c0.2,0,0.5,0,0.7,0c0.2,0,0.5,0,0.7,0c0.1,0,0.2,0,0.3,0c0.2,0,0.3,0,0.5,0c0.2,0,0.3,0,0.5,0.1C2.7,50.9,3.3,51,4,51.2
		c2.5,0.6,4.9,1.6,7.1,2.9c1.1,0.6,2.1,1.3,3.1,2c1.3,0.9,2.5,1.8,3.7,2.8c1.5,1.1,2.9,2.3,4.4,3.4c1.1,0.8,2.2,1.6,3.4,2.4
		c0.2,0.1,0.5,0.3,0.7,0.4c0.2,0.2,0.5,0.3,0.7,0.4c0.2,0.1,0.5,0.3,0.8,0.4c1.1,0.5,2.2,0.7,3.3,0.8c0,0,0.1,0,0.1,0
		c0,0,0.1,0,0.1,0c0.1,0,0.1,0,0.2,0c0,0,0.1,0,0.1,0c1.2,0,2.3-0.2,3.4-0.8c0.3-0.1,0.5-0.2,0.8-0.4c0.2-0.1,0.5-0.3,0.7-0.4
		c0.2-0.1,0.5-0.3,0.7-0.4c1.2-0.7,2.3-1.5,3.4-2.4c1.5-1.1,2.9-2.2,4.4-3.4c1.2-0.9,2.4-1.9,3.7-2.8c1-0.7,2-1.4,3.1-2
		c2.2-1.3,4.6-2.3,7.1-2.9c1.1-0.3,2.2-0.4,3.3-0.4c0.7,0,1.5,0,2.2,0c0.2,0,0.4,0,0.5,0.1c0.2,0,0.4,0.3,0.4,0.5
		c-0.4,1.9-0.9,3.7-1.5,5.5c0,0.1,0,0.1-0.1,0.2c-0.1,0.2-0.3,0.4-0.6,0.4c-0.3,0-0.6,0-0.9,0c-0.3,0-0.6,0-0.9,0.1
		c-1.1,0.2-2.2,0.4-3.2,0.8c-1.5,0.5-2.8,1.2-4.2,2c-0.4,0.2-0.7,0.4-1.1,0.7c-1,0.6-2,1.3-2.9,2c-1.1,0.8-2.2,1.7-3.4,2.6
		c-1.2,0.9-2.3,1.8-3.5,2.7c-1.3,1-2.6,1.9-4,2.7c-0.2,0.1-0.5,0.3-0.7,0.4c-0.2,0.1-0.5,0.3-0.7,0.4c-0.7,0.3-1.5,0.6-2.2,0.9
		c-0.2,0.1-0.4,0.1-0.5,0.2c-0.1,0-0.1,0-0.2,0.1c-1.1,0.3-2.3,0.4-3.5,0.4c-1.2,0-2.3,0-3.5-0.4c-0.1,0-0.1,0-0.2-0.1
		c-0.2-0.1-0.4-0.1-0.5-0.2c-0.8-0.3-1.5-0.6-2.2-0.9c-0.2-0.1-0.5-0.2-0.7-0.4c-0.2-0.1-0.5-0.3-0.7-0.4c-1.4-0.8-2.7-1.7-4-2.7
		c-1.2-0.9-2.3-1.8-3.5-2.7c-1.1-0.9-2.2-1.7-3.4-2.6c-0.9-0.7-1.9-1.4-2.9-2c-0.4-0.2-0.7-0.5-1.1-0.7c-1.3-0.8-2.7-1.5-4.2-2
		c-1-0.4-2.1-0.6-3.2-0.8c-0.3-0.1-0.6,0-0.9-0.1c-0.2,0-0.4,0-0.6,0c-0.2,0-0.4,0-0.6,0c-0.3,0-0.6,0-0.9,0.1L-4,51.2z"/>
	<linearGradient id="SVGID_22_" gradientUnits="userSpaceOnUse" x1="30.7751" y1="141.0134" x2="30.7751" y2="-1.9859">
		<stop  offset="7.262570e-02" style="stop-color:#A5A4A5"/>
		<stop  offset="1" style="stop-color:#181737"/>
	</linearGradient>
	<path class="st20" d="M-4,67.2c0.6-0.1,1.3-0.3,1.9-0.3c0.2,0,0.3-0.1,0.5-0.1c0.2,0,0.3,0,0.5,0c0.1,0,0.2,0,0.3,0
		c0.2,0,0.5,0,0.7,0c0.2,0,0.5,0,0.7,0c0.1,0,0.2,0,0.3,0c0.2,0,0.3,0,0.5,0c0.2,0,0.3,0,0.5,0.1C2.7,66.9,3.3,67,4,67.2
		c2.5,0.6,4.9,1.6,7.1,2.9c1.1,0.6,2.1,1.3,3.1,2c1.3,0.9,2.5,1.8,3.7,2.8c1.5,1.1,2.9,2.3,4.4,3.4c1.1,0.8,2.2,1.6,3.4,2.4
		c0.2,0.1,0.5,0.3,0.7,0.4c0.2,0.2,0.5,0.3,0.7,0.4c0.2,0.1,0.5,0.3,0.8,0.4c1.1,0.5,2.2,0.7,3.3,0.8c0,0,0.1,0,0.1,0
		c0,0,0.1,0,0.1,0c0.1,0,0.1,0,0.2,0c0,0,0.1,0,0.1,0c1.2,0,2.3-0.2,3.4-0.8c0.3-0.1,0.5-0.2,0.8-0.4c0.2-0.1,0.5-0.3,0.7-0.4
		c0.2-0.1,0.5-0.3,0.7-0.4c1.2-0.7,2.3-1.5,3.4-2.4c1.5-1.1,2.9-2.2,4.4-3.4c1.2-0.9,2.4-1.9,3.7-2.8c1-0.7,2-1.4,3.1-2
		c2.2-1.3,4.6-2.3,7.1-2.9c1.1-0.3,2.2-0.4,3.3-0.4c0.7,0,1.5,0,2.2,0c0.2,0,0.4,0,0.5,0.1c0.2,0,0.4,0.3,0.4,0.5
		c-0.4,1.9-0.9,3.7-1.5,5.5c0,0.1,0,0.1-0.1,0.2c-0.1,0.2-0.3,0.4-0.6,0.4c-0.3,0-0.6,0-0.9,0c-0.3,0-0.6,0-0.9,0.1
		c-1.1,0.2-2.2,0.4-3.2,0.8c-1.5,0.5-2.8,1.2-4.2,2c-0.4,0.2-0.7,0.4-1.1,0.7c-1,0.6-2,1.3-2.9,2c-1.1,0.8-2.2,1.7-3.4,2.6
		c-1.2,0.9-2.3,1.8-3.5,2.7c-1.3,1-2.6,1.9-4,2.7c-0.2,0.1-0.5,0.3-0.7,0.4c-0.2,0.1-0.5,0.3-0.7,0.4c-0.7,0.3-1.5,0.6-2.2,0.9
		c-0.2,0.1-0.4,0.1-0.5,0.2c-0.1,0-0.1,0-0.2,0.1c-1.1,0.3-2.3,0.4-3.5,0.4c-1.2,0-2.3,0-3.5-0.4c-0.1,0-0.1,0-0.2-0.1
		c-0.2-0.1-0.4-0.1-0.5-0.2c-0.8-0.3-1.5-0.6-2.2-0.9c-0.2-0.1-0.5-0.2-0.7-0.4c-0.2-0.1-0.5-0.3-0.7-0.4c-1.4-0.8-2.7-1.7-4-2.7
		c-1.2-0.9-2.3-1.8-3.5-2.7c-1.1-0.9-2.2-1.7-3.4-2.6c-0.9-0.7-1.9-1.4-2.9-2c-0.4-0.2-0.7-0.5-1.1-0.7c-1.3-0.8-2.7-1.5-4.2-2
		c-1-0.4-2.1-0.6-3.2-0.8c-0.3-0.1-0.6,0-0.9-0.1c-0.2,0-0.4,0-0.6,0c-0.2,0-0.4,0-0.6,0c-0.3,0-0.6,0-0.9,0.1L-4,67.2z"/>
	<linearGradient id="SVGID_23_" gradientUnits="userSpaceOnUse" x1="30.7751" y1="141.0134" x2="30.7751" y2="-1.9859">
		<stop  offset="7.262570e-02" style="stop-color:#A5A4A5"/>
		<stop  offset="1" style="stop-color:#181737"/>
	</linearGradient>
	<path class="st21" d="M-4,99.1c0.6-0.1,1.3-0.3,1.9-0.3c0.2,0,0.3-0.1,0.5-0.1c0.2,0,0.3,0,0.5,0c0.1,0,0.2,0,0.3,0
		c0.2,0,0.5,0,0.7,0c0.2,0,0.5,0,0.7,0c0.1,0,0.2,0,0.3,0c0.2,0,0.3,0,0.5,0c0.2,0,0.3,0,0.5,0.1c0.6,0.1,1.3,0.2,1.9,0.3
		c2.5,0.6,4.9,1.6,7.1,2.9c1.1,0.6,2.1,1.3,3.1,2c1.3,0.9,2.5,1.8,3.7,2.8c1.5,1.1,2.9,2.3,4.4,3.4c1.1,0.8,2.2,1.6,3.4,2.4
		c0.2,0.1,0.5,0.3,0.7,0.4c0.2,0.2,0.5,0.3,0.7,0.4c0.2,0.1,0.5,0.3,0.8,0.4c1.1,0.5,2.2,0.7,3.3,0.8c0,0,0.1,0,0.1,0
		c0,0,0.1,0,0.1,0c0.1,0,0.1,0,0.2,0c0,0,0.1,0,0.1,0c1.2,0,2.3-0.2,3.4-0.8c0.3-0.1,0.5-0.2,0.8-0.4c0.2-0.1,0.5-0.3,0.7-0.4
		c0.2-0.1,0.5-0.3,0.7-0.4c1.2-0.7,2.3-1.5,3.4-2.4c1.5-1.1,2.9-2.2,4.4-3.4c1.2-0.9,2.4-1.9,3.7-2.8c1-0.7,2-1.4,3.1-2
		c2.2-1.3,4.6-2.3,7.1-2.9c1.1-0.3,2.2-0.4,3.3-0.4c0.7,0,1.5,0,2.2,0c0.2,0,0.4,0,0.5,0.1c0.2,0,0.4,0.3,0.4,0.5
		c-0.4,1.9-0.9,3.7-1.5,5.5c0,0.1,0,0.1-0.1,0.2c-0.1,0.2-0.3,0.4-0.6,0.4c-0.3,0-0.6,0-0.9,0c-0.3,0-0.6,0-0.9,0.1
		c-1.1,0.2-2.2,0.4-3.2,0.8c-1.5,0.5-2.8,1.2-4.2,2c-0.4,0.2-0.7,0.4-1.1,0.7c-1,0.6-2,1.3-2.9,2c-1.1,0.8-2.2,1.7-3.4,2.6
		c-1.2,0.9-2.3,1.8-3.5,2.7c-1.3,1-2.6,1.9-4,2.7c-0.2,0.1-0.5,0.3-0.7,0.4c-0.2,0.1-0.5,0.3-0.7,0.4c-0.7,0.3-1.5,0.6-2.2,0.9
		c-0.2,0.1-0.4,0.1-0.5,0.2c-0.1,0-0.1,0-0.2,0.1c-1.1,0.3-2.3,0.4-3.5,0.4c-1.2,0-2.3,0-3.5-0.4c-0.1,0-0.1,0-0.2-0.1
		c-0.2-0.1-0.4-0.1-0.5-0.2c-0.8-0.3-1.5-0.6-2.2-0.9c-0.2-0.1-0.5-0.2-0.7-0.4c-0.2-0.1-0.5-0.3-0.7-0.4c-1.4-0.8-2.7-1.7-4-2.7
		c-1.2-0.9-2.3-1.8-3.5-2.7c-1.1-0.9-2.2-1.7-3.4-2.6c-0.9-0.7-1.9-1.4-2.9-2c-0.4-0.2-0.7-0.5-1.1-0.7c-1.3-0.8-2.7-1.5-4.2-2
		c-1-0.4-2.1-0.6-3.2-0.8c-0.3-0.1-0.6,0-0.9-0.1c-0.2,0-0.4,0-0.6,0c-0.2,0-0.4,0-0.6,0c-0.3,0-0.6,0-0.9,0.1L-4,99.1z"/>
	<linearGradient id="SVGID_24_" gradientUnits="userSpaceOnUse" x1="30.7751" y1="141.0134" x2="30.7751" y2="-1.9859">
		<stop  offset="7.262570e-02" style="stop-color:#A5A4A5"/>
		<stop  offset="1" style="stop-color:#181737"/>
	</linearGradient>
	<path class="st22" d="M-4,83.1c0.6-0.1,1.3-0.3,1.9-0.3c0.2,0,0.3-0.1,0.5-0.1c0.2,0,0.3,0,0.5,0c0.1,0,0.2,0,0.3,0
		c0.2,0,0.5,0,0.7,0c0.2,0,0.5,0,0.7,0c0.1,0,0.2,0,0.3,0c0.2,0,0.3,0,0.5,0c0.2,0,0.3,0,0.5,0.1C2.7,82.9,3.3,83,4,83.1
		c2.5,0.6,4.9,1.6,7.1,2.9c1.1,0.6,2.1,1.3,3.1,2c1.3,0.9,2.5,1.8,3.7,2.8c1.5,1.1,2.9,2.3,4.4,3.4c1.1,0.8,2.2,1.6,3.4,2.4
		c0.2,0.1,0.5,0.3,0.7,0.4c0.2,0.2,0.5,0.3,0.7,0.4c0.2,0.1,0.5,0.3,0.8,0.4c1.1,0.5,2.2,0.7,3.3,0.8c0,0,0.1,0,0.1,0
		c0,0,0.1,0,0.1,0c0.1,0,0.1,0,0.2,0c0,0,0.1,0,0.1,0c1.2,0,2.3-0.2,3.4-0.8c0.3-0.1,0.5-0.2,0.8-0.4c0.2-0.1,0.5-0.3,0.7-0.4
		c0.2-0.1,0.5-0.3,0.7-0.4c1.2-0.7,2.3-1.5,3.4-2.4c1.5-1.1,2.9-2.2,4.4-3.4c1.2-0.9,2.4-1.9,3.7-2.8c1-0.7,2-1.4,3.1-2
		c2.2-1.3,4.6-2.3,7.1-2.9c1.1-0.3,2.2-0.4,3.3-0.4c0.7,0,1.5,0,2.2,0c0.2,0,0.4,0,0.5,0.1c0.2,0,0.4,0.3,0.4,0.5
		c-0.4,1.9-0.9,3.7-1.5,5.5c0,0.1,0,0.1-0.1,0.2c-0.1,0.2-0.3,0.4-0.6,0.4c-0.3,0-0.6,0-0.9,0c-0.3,0-0.6,0-0.9,0.1
		c-1.1,0.2-2.2,0.4-3.2,0.8c-1.5,0.5-2.8,1.2-4.2,2c-0.4,0.2-0.7,0.4-1.1,0.7c-1,0.6-2,1.3-2.9,2c-1.1,0.8-2.2,1.7-3.4,2.6
		c-1.2,0.9-2.3,1.8-3.5,2.7c-1.3,1-2.6,1.9-4,2.7c-0.2,0.1-0.5,0.3-0.7,0.4c-0.2,0.1-0.5,0.3-0.7,0.4c-0.7,0.3-1.5,0.6-2.2,0.9
		c-0.2,0.1-0.4,0.1-0.5,0.2c-0.1,0-0.1,0-0.2,0.1c-1.1,0.3-2.3,0.4-3.5,0.4c-1.2,0-2.3,0-3.5-0.4c-0.1,0-0.1,0-0.2-0.1
		c-0.2-0.1-0.4-0.1-0.5-0.2c-0.8-0.3-1.5-0.6-2.2-0.9c-0.2-0.1-0.5-0.2-0.7-0.4c-0.2-0.1-0.5-0.3-0.7-0.4c-1.4-0.8-2.7-1.7-4-2.7
		c-1.2-0.9-2.3-1.8-3.5-2.7c-1.1-0.9-2.2-1.7-3.4-2.6c-0.9-0.7-1.9-1.4-2.9-2c-0.4-0.2-0.7-0.5-1.1-0.7c-1.3-0.8-2.7-1.5-4.2-2
		c-1-0.4-2.1-0.6-3.2-0.8c-0.3-0.1-0.6,0-0.9-0.1c-0.2,0-0.4,0-0.6,0c-0.2,0-0.4,0-0.6,0c-0.3,0-0.6,0-0.9,0.1L-4,83.1z"/>
	<linearGradient id="SVGID_25_" gradientUnits="userSpaceOnUse" x1="30.7751" y1="141.0134" x2="30.7751" y2="-1.9859">
		<stop  offset="7.262570e-02" style="stop-color:#A5A4A5"/>
		<stop  offset="1" style="stop-color:#181737"/>
	</linearGradient>
	<path class="st23" d="M-4,115.1c0.6-0.1,1.3-0.3,1.9-0.3c0.2,0,0.3-0.1,0.5-0.1c0.2,0,0.3,0,0.5,0c0.1,0,0.2,0,0.3,0
		c0.2,0,0.5,0,0.7,0c0.2,0,0.5,0,0.7,0c0.1,0,0.2,0,0.3,0c0.2,0,0.3,0,0.5,0c0.2,0,0.3,0,0.5,0.1c0.6,0.1,1.3,0.2,1.9,0.3
		c2.5,0.6,4.9,1.6,7.1,2.9c1.1,0.6,2.1,1.3,3.1,2c1.3,0.9,2.5,1.8,3.7,2.8c1.5,1.1,2.9,2.3,4.4,3.4c1.1,0.8,2.2,1.6,3.4,2.4
		c0.2,0.1,0.5,0.3,0.7,0.4c0.2,0.2,0.5,0.3,0.7,0.4c0.2,0.1,0.5,0.3,0.8,0.4c1.1,0.5,2.2,0.7,3.3,0.8c0,0,0.1,0,0.1,0
		c0,0,0.1,0,0.1,0c0.1,0,0.1,0,0.2,0c0,0,0.1,0,0.1,0c1.2,0,2.3-0.2,3.4-0.8c0.3-0.1,0.5-0.2,0.8-0.4c0.2-0.1,0.5-0.3,0.7-0.4
		c0.2-0.1,0.5-0.3,0.7-0.4c1.2-0.7,2.3-1.5,3.4-2.4c1.5-1.1,2.9-2.2,4.4-3.4c1.2-0.9,2.4-1.9,3.7-2.8c1-0.7,2-1.4,3.1-2
		c2.2-1.3,4.6-2.3,7.1-2.9c1.1-0.3,2.2-0.4,3.3-0.4c0.7,0,1.5,0,2.2,0c0.2,0,0.4,0,0.5,0.1c0.2,0,0.4,0.3,0.4,0.5
		c-0.4,1.9-0.9,3.7-1.5,5.5c0,0.1,0,0.1-0.1,0.2c-0.1,0.2-0.3,0.4-0.6,0.4c-0.3,0-0.6,0-0.9,0c-0.3,0-0.6,0-0.9,0.1
		c-1.1,0.2-2.2,0.4-3.2,0.8c-1.5,0.5-2.8,1.2-4.2,2c-0.4,0.2-0.7,0.4-1.1,0.7c-1,0.6-2,1.3-2.9,2c-1.1,0.8-2.2,1.7-3.4,2.6
		c-1.2,0.9-2.3,1.8-3.5,2.7c-1.3,1-2.6,1.9-4,2.7c-0.2,0.1-0.5,0.3-0.7,0.4c-0.2,0.1-0.5,0.3-0.7,0.4c-0.7,0.3-1.5,0.6-2.2,0.9
		c-0.2,0.1-0.4,0.1-0.5,0.2c-0.1,0-0.1,0-0.2,0.1c-1.1,0.3-2.3,0.4-3.5,0.4c-1.2,0-2.3,0-3.5-0.4c-0.1,0-0.1,0-0.2-0.1
		c-0.2-0.1-0.4-0.1-0.5-0.2c-0.8-0.3-1.5-0.6-2.2-0.9c-0.2-0.1-0.5-0.2-0.7-0.4c-0.2-0.1-0.5-0.3-0.7-0.4c-1.4-0.8-2.7-1.7-4-2.7
		c-1.2-0.9-2.3-1.8-3.5-2.7c-1.1-0.9-2.2-1.7-3.4-2.6c-0.9-0.7-1.9-1.4-2.9-2c-0.4-0.2-0.7-0.5-1.1-0.7c-1.3-0.8-2.7-1.5-4.2-2
		c-1-0.4-2.1-0.6-3.2-0.8c-0.3-0.1-0.6,0-0.9-0.1c-0.2,0-0.4,0-0.6,0c-0.2,0-0.4,0-0.6,0c-0.3,0-0.6,0-0.9,0.1L-4,115.1z"/>
</g>
</svg>
