<?xml version="1.0" encoding="UTF-8"?>
<svg enable-background="new 0 0 552 44" version="1.1" viewBox="0 0 552 44" xml:space="preserve" xmlns="http://www.w3.org/2000/svg" xmlns:xlink="http://www.w3.org/1999/xlink">
	<style type="text/css">
	.st0{fill:#C19C49;}
	</style>
	<image transform="translate(-7.1663 -6.1663)" width="566" height="56" opacity=".25" overflow="visible" xlink:href="/assets/img/main-logo-shadow.png">
	</image>
	<path class="st0" d="m32.1 24.9l3.6 5.4-0.5 0.3c-0.4-0.3-0.6-0.5-0.9-0.5-0.2 0-0.9 0.3-1.9 0.9-2.2 1.3-4 2.1-5.5 2.5s-3.3 0.7-5.3 0.7c-4.1 0-7.4-1-10-2.9-1.5-1.1-2.8-2.5-3.6-4.2-1-1.9-1.5-4-1.5-6.3 0-3.1 0.9-5.9 2.7-8.2 2.8-3.5 6.9-5.2 12.5-5.2 2 0 3.8 0.2 5.3 0.6s3.3 1.3 5.5 2.5c1 0.6 1.7 0.9 1.9 0.9s0.5-0.2 0.9-0.5l0.5 0.3-3.6 5.4-0.5-0.3v-0.5c0-0.4-0.2-0.7-0.5-1s-0.9-0.7-1.7-1.2c-2.2-1.3-4.6-1.9-7.1-1.9-3 0-5.3 0.7-7.1 2.2-2.1 1.7-3.1 4-3.1 6.8s1 5 3.1 6.8c1.8 1.5 4.1 2.2 7.1 2.2 2.5 0 4.9-0.6 7.1-1.9 0.8-0.5 1.4-0.8 1.7-1.2 0.3-0.3 0.5-0.7 0.5-1v-0.5l0.4-0.2z"/>
	<path class="st0" d="m73.5 24.5h-11.8v7.3c0 0.4 0.1 0.7 0.3 0.9s0.5 0.4 0.9 0.5v0.5h-7.5v-0.5c0.4-0.1 0.8-0.3 0.9-0.5 0.2-0.2 0.3-0.5 0.3-0.9v-17.3c0-0.4-0.1-0.7-0.3-0.9s-0.5-0.4-0.9-0.5v-0.5h7.5v0.5c-0.5 0.1-0.8 0.3-0.9 0.5-0.2 0.2-0.3 0.5-0.3 0.9v6.2h11.9v-6.2c0-0.4-0.1-0.7-0.3-0.9s-0.5-0.4-1-0.5v-0.5h7.5v0.5c-0.5 0.1-0.8 0.3-0.9 0.5-0.2 0.2-0.3 0.5-0.3 0.9v17.3c0 0.4 0.1 0.7 0.3 0.9s0.5 0.4 0.9 0.5v0.5h-7.5v-0.5c0.4-0.1 0.8-0.3 0.9-0.5 0.2-0.2 0.3-0.5 0.3-0.9v-7.3z"/>
	<path class="st0" d="m116.6 14.5v17.3c0 0.4 0.1 0.7 0.3 0.9s0.5 0.4 0.9 0.5v0.5h-7.5v-0.5c0.4-0.1 0.8-0.3 0.9-0.5 0.2-0.2 0.3-0.5 0.3-0.9v-17.3c0-0.4-0.1-0.7-0.3-0.9s-0.5-0.4-0.9-0.5v-0.5h7.5v0.5c-0.5 0.1-0.8 0.3-0.9 0.5-0.2 0.2-0.3 0.5-0.3 0.9z"/>
	<path class="st0" d="m153.8 19.8v12c0 0.4 0.1 0.7 0.3 0.9s0.5 0.4 0.9 0.5v0.5h-7v-0.5c0.4-0.1 0.8-0.3 0.9-0.5 0.2-0.2 0.3-0.5 0.3-0.9v-17.3c0-0.4-0.1-0.7-0.3-0.9s-0.5-0.4-0.9-0.5v-0.5h8.2v0.5c-0.6 0.1-0.8 0.4-0.8 0.7s0.2 0.7 0.6 1.1l11.4 11.3v-11.7c0-0.4-0.1-0.7-0.3-0.9s-0.5-0.4-0.9-0.5v-0.5h7.1v0.5c-0.5 0.1-0.8 0.3-0.9 0.5-0.2 0.2-0.3 0.5-0.3 0.9v17.3c0 0.4 0.1 0.7 0.3 0.9s0.5 0.4 0.9 0.5v0.5h-7.6v-0.5c0.6-0.1 0.8-0.3 0.8-0.7 0-0.2-0.1-0.4-0.2-0.5-0.2-0.2-0.5-0.6-1-1.1l-11.5-11.1z"/>
	<path class="st0" d="m211.5 28.5h-9.8l-1.1 2.3c-0.3 0.6-0.4 1-0.4 1.3 0 0.6 0.4 1 1.2 1.2v0.5h-7.8v-0.5c0.5-0.1 0.8-0.2 1.1-0.4 0.2-0.2 0.5-0.6 0.8-1.3l7.8-15.7c0.3-0.6 0.4-1.1 0.4-1.6s-0.4-0.9-1.1-1.2v-0.5h8.2v0.5c-0.7 0.3-1 0.7-1 1.3 0 0.4 0.2 0.9 0.5 1.5l8 15.2c0.4 0.8 0.8 1.4 1 1.6 0.3 0.2 0.6 0.4 1.2 0.5v0.5h-8.7v-0.5c0.8-0.1 1.2-0.5 1.2-1.2 0-0.4-0.2-0.9-0.5-1.5l-1-2zm-1.6-3l-3.5-6.8-3.3 6.8h6.8z"/>
	<path class="st0" d="m253.1 33.8l-7.7-14v12c0 0.4 0.1 0.7 0.3 0.9s0.5 0.4 0.9 0.5v0.5h-7.1v-0.5c0.4-0.1 0.8-0.3 0.9-0.5 0.2-0.2 0.3-0.5 0.3-0.9v-17.3c0-0.4-0.1-0.7-0.3-0.9s-0.5-0.4-0.9-0.5v-0.5h9v0.5c-0.6 0.2-0.9 0.5-0.9 1.1 0 0.5 0.2 1.2 0.6 1.9l5.3 9.6 5.3-9.5c0.6-1 0.9-1.7 0.9-2.1 0-0.5-0.3-0.8-0.9-1v-0.5h8.7v0.5c-0.5 0.1-0.8 0.3-0.9 0.5-0.2 0.2-0.3 0.5-0.3 0.9v17.3c0 0.4 0.1 0.7 0.3 0.9s0.5 0.4 0.9 0.5v0.5h-7.5v-0.5c0.4-0.1 0.8-0.3 0.9-0.5 0.2-0.2 0.3-0.5 0.3-0.9v-12l-8.1 14z"/>
	<path class="st0" d="m295.1 25.1v6.8c0 0.4 0.1 0.7 0.3 0.9s0.5 0.4 0.9 0.5v0.5h-7.5v-0.5c0.4-0.1 0.8-0.3 0.9-0.5 0.2-0.2 0.3-0.5 0.3-0.9v-17.4c0-0.4-0.1-0.7-0.3-0.9s-0.5-0.4-0.9-0.5v-0.5h13.8c2.7 0 4.8 0.4 6.2 1.2 0.8 0.5 1.4 1.2 1.9 2 0.5 0.9 0.7 1.9 0.7 3 0 2.1-0.7 3.7-2.2 4.7-1.4 1-3.6 1.5-6.6 1.5h-7.5zm0-3.9h7.2c1.3 0 2.3-0.1 2.8-0.4 0.8-0.4 1.1-1 1.1-2s-0.4-1.7-1.1-2c-0.5-0.3-1.4-0.4-2.8-0.4h-7.2v4.8z"/>
	<path class="st0" d="m350.9 28.5h-9.8l-1.1 2.3c-0.3 0.6-0.4 1-0.4 1.3 0 0.6 0.4 1 1.2 1.2v0.5h-7.8v-0.5c0.5-0.1 0.8-0.2 1.1-0.4 0.2-0.2 0.5-0.6 0.8-1.3l7.8-15.7c0.3-0.6 0.4-1.1 0.4-1.6s-0.4-0.9-1.1-1.2v-0.5h8.2v0.5c-0.7 0.3-1 0.7-1 1.3 0 0.4 0.2 0.9 0.5 1.5l8 15.2c0.4 0.8 0.8 1.4 1 1.6 0.3 0.2 0.6 0.4 1.2 0.5v0.5h-8.7v-0.5c0.8-0.1 1.2-0.5 1.2-1.2 0-0.4-0.2-0.9-0.5-1.5l-1-2zm-1.5-3l-3.5-6.8-3.3 6.8h6.8z"/>
	<path class="st0" d="m395.6 24.5v7.4c0 0.4 0.1 0.7 0.3 0.9s0.5 0.4 0.9 0.5v0.5h-7.5v-0.5c0.5-0.1 0.8-0.3 0.9-0.5 0.2-0.2 0.3-0.5 0.3-0.9v-7.4l-6.3-8.7c-0.7-1-1.3-1.6-1.7-2s-0.9-0.6-1.5-0.7v-0.5h9.6v0.5c-0.8 0.2-1.2 0.6-1.2 1.2 0 0.3 0.3 0.8 0.9 1.7l3.1 4.3 3-4.3c0.6-0.8 0.9-1.4 0.9-1.7 0-0.5-0.4-0.9-1.2-1.1v-0.5h9.1v0.5c-0.6 0.1-1.1 0.4-1.5 0.7-0.4 0.4-1 1-1.7 2l-6.4 8.6z"/>
	<path class="st0" d="m439.5 12.1c3.4 0 6.2 0.9 8.4 2.6 2.7 2.1 4 5 4 8.7 0 3.5-1.3 6.3-4 8.3-2.2 1.7-5 2.6-8.4 2.6s-6.2-0.9-8.4-2.6c-2.7-2.1-4.1-4.9-4.1-8.5s1.4-6.5 4.1-8.5c2.3-1.7 5.1-2.6 8.4-2.6zm0 4c-2.2 0-4 0.7-5.4 2.1-1.3 1.3-1.9 3-1.9 4.9 0 2 0.6 3.6 1.9 4.9 1.4 1.4 3.2 2.1 5.4 2.1s4-0.7 5.4-2.1c1.3-1.3 1.9-2.9 1.9-4.8 0-2.1-0.6-3.8-1.9-5-1.4-1.3-3.2-2.1-5.4-2.1z"/>
	<path class="st0" d="m482.3 29.9h11.9c0.4 0 0.7-0.1 0.9-0.3s0.4-0.5 0.5-1h0.5v6.4h-0.5c-0.1-0.5-0.3-0.8-0.5-0.9-0.2-0.2-0.5-0.3-0.9-0.3h-18.2v-0.5c0.4-0.1 0.8-0.3 0.9-0.5 0.2-0.2 0.3-0.5 0.3-0.9v-17.4c0-0.4-0.1-0.7-0.3-0.9s-0.5-0.4-0.9-0.5v-0.5h7.5v0.5c-0.5 0.1-0.8 0.3-0.9 0.5-0.2 0.2-0.3 0.5-0.3 0.9v15.4z"/>
	<path class="st0" d="m532.5 12.1c3.4 0 6.2 0.9 8.4 2.6 2.7 2.1 4 5 4 8.7 0 3.5-1.3 6.3-4 8.3-2.2 1.7-5 2.6-8.4 2.6s-6.2-0.9-8.4-2.6c-2.7-2.1-4.1-4.9-4.1-8.5s1.4-6.5 4.1-8.5c2.3-1.7 5.1-2.6 8.4-2.6zm0 4c-2.2 0-4 0.7-5.4 2.1-1.3 1.3-1.9 3-1.9 4.9 0 2 0.6 3.6 1.9 4.9 1.4 1.4 3.2 2.1 5.4 2.1s4-0.7 5.4-2.1c1.3-1.3 1.9-2.9 1.9-4.8 0-2.1-0.6-3.8-1.9-5-1.4-1.3-3.2-2.1-5.4-2.1z"/>
</svg>
