<?xml version="1.0" encoding="utf-8"?>
<!-- Generator: Adobe Illustrator 24.0.0, SVG Export Plug-In . SVG Version: 6.00 Build 0)  -->
<svg version="1.1" id="Layer_1" xmlns="http://www.w3.org/2000/svg" xmlns:xlink="http://www.w3.org/1999/xlink" x="0px" y="0px"
	 viewBox="0 0 512 512" style="enable-background:new 0 0 512 512;" xml:space="preserve">
<style type="text/css">
	.st0{fill:#95C11F;}
	.st1{fill:#FFFFFF;}
</style>
<path class="st0" d="M482.6,512H29.3C13.1,512,0,498.9,0,482.7V29.9C0,13.7,13.1,0.6,29.3,0.6h453.3c16.2,0,29.3,13.1,29.3,29.3
	v452.8C511.8,498.9,498.7,512,482.6,512z"/>
<g>
	<path class="st1" d="M374.7,19h-61.9c-69.1,0-114.2,46.1-114.2,117v54h-61.2c-5.4,0-9.7,4.3-9.7,9.7v78.1c0,5.4,4.3,9.7,9.7,9.7
		h61.9v196.6c0,5.4,4.3,9.7,9.7,9.7h81c5.4,0,9.7-4.3,9.7-9.7v-197h72.7c5.4,0,9.7-4.3,9.7-9.7v-78.1c0-2.5-1.1-5-2.9-6.8
		c-1.8-1.8-4.3-2.9-6.8-2.9h-72.7v-45.4c0-21.6,5.4-33.1,33.5-33.1h41.4c5.4,0,9.7-4.3,9.7-9.7V28.7C384.4,23.3,380.1,19,374.7,19z"
		/>
</g>
</svg>
