<?xml version="1.0" encoding="utf-8"?>
<!-- Generator: Adobe Illustrator 24.0.0, SVG Export Plug-In . SVG Version: 6.00 Build 0)  -->
<svg version="1.1" id="Layer_1" xmlns="http://www.w3.org/2000/svg" xmlns:xlink="http://www.w3.org/1999/xlink" x="0px" y="0px"
	 viewBox="0 0 512 512" style="enable-background:new 0 0 512 512;" xml:space="preserve">
<style type="text/css">
	.st0{fill:#95C11F;}
	.st1{fill:#FFFFFF;}
</style>
<path class="st0" d="M482.6,512H29.3C13.1,512,0,498.9,0,482.7V29.9C0,13.7,13.1,0.6,29.3,0.6h453.3c16.2,0,29.3,13.1,29.3,29.3
	v452.8C511.8,498.9,498.7,512,482.6,512z"/>
<path class="st1" d="M434.4,164.5c0.3,4,0.3,8,0.3,12c0,121.7-92.6,262-262,262c-52.2,0-100.6-15.1-141.4-41.3
	c7.4,0.9,14.5,1.1,22.2,1.1c43,0,82.7-14.5,114.3-39.3c-40.5-0.9-74.4-27.4-86.1-63.9c5.7,0.9,11.4,1.4,17.4,1.4
	c8.3,0,16.5-1.1,24.2-3.1c-42.2-8.6-73.8-45.6-73.8-90.4v-1.1c12.3,6.8,26.5,11.1,41.6,11.7c-24.8-16.5-41-44.8-41-76.7
	c0-17.1,4.6-32.8,12.5-46.5c45.3,55.9,113.4,92.4,189.8,96.3c-1.4-6.8-2.3-14-2.3-21.1c0-50.7,41-92.1,92.1-92.1
	c26.5,0,50.5,11.1,67.3,29.1c20.8-4,40.8-11.7,58.4-22.2c-6.8,21.4-21.4,39.3-40.5,50.7c18.5-2,36.5-7.1,53-14.3
	C468.1,135.1,452.4,151.4,434.4,164.5L434.4,164.5z"/>
</svg>
