<?xml version="1.0" encoding="utf-8"?>
<!-- Generator: Adobe Illustrator 24.0.0, SVG Export Plug-In . SVG Version: 6.00 Build 0)  -->
<svg version="1.1" id="Layer_1" xmlns="http://www.w3.org/2000/svg" xmlns:xlink="http://www.w3.org/1999/xlink" x="0px" y="0px"
	 viewBox="0 0 512 512" style="enable-background:new 0 0 512 512;" xml:space="preserve">
<style type="text/css">
	.st0{fill:#95C11F;}
	.st1{fill:#FFFFFF;}
</style>
<path class="st0" d="M482.6,512H29.3C13.1,512,0,498.9,0,482.7V29.9C0,13.7,13.1,0.6,29.3,0.6h453.3c16.2,0,29.3,13.1,29.3,29.3
	v452.8C511.8,498.9,498.7,512,482.6,512z"/>
<path class="st1" d="M457.7,154.3c-4.8-18.2-19.1-32.6-37.2-37.5C387.6,108,256,108,256,108s-131.6,0-164.5,8.9
	c-18.1,4.9-32.4,19.2-37.2,37.5c-8.8,33-8.8,102-8.8,102s0,68.9,8.8,102c4.8,18.2,19.1,32,37.2,36.9C124.4,404,256,404,256,404
	s131.6,0,164.5-8.9c18.1-4.9,32.4-18.6,37.2-36.9c8.8-33,8.8-102,8.8-102S466.5,187.4,457.7,154.3z M213,318.9V193.7l110,62.6
	L213,318.9L213,318.9z"/>
</svg>
