<?xml version="1.0" encoding="utf-8"?>
<!-- Generator: Adobe Illustrator 24.0.0, SVG Export Plug-In . SVG Version: 6.00 Build 0)  -->
<svg version="1.1" id="Layer_1" xmlns="http://www.w3.org/2000/svg" xmlns:xlink="http://www.w3.org/1999/xlink" x="0px" y="0px"
	 viewBox="0 0 80 80" style="enable-background:new 0 0 80 80;" xml:space="preserve">
<style type="text/css">
	.st0{fill:#EE7919;}
	.st1{fill-rule:evenodd;clip-rule:evenodd;fill:#FFFFFF;}
</style>
<path class="st0" d="M40,0C24.2,0,11.4,12.7,11.4,28.6S40,80,40,80s28.6-35.6,28.6-51.4C68.3,12.7,55.5,0,40,0z"/>
<g>
	<g>
		<g>
			<path class="st1" d="M40,19.3c0.1,0,0.3,0,0.4,0c0.1,0,0.2,0,0.3,0c1.8,0.1,3.3,0.9,4.4,1.8c1.2,1,2.1,2.4,2.5,3.9
				c0.2,0.9,0.3,1.7,0.3,2.6c-0.3,3.7-2.8,6.3-5.8,7.1c-0.4,0.1-0.9,0.2-1.3,0.2c-0.1,0-0.3,0-0.4,0c-0.1,0-0.3,0-0.4,0
				c-0.4,0-0.8,0-1.2-0.1c-0.5-0.1-1-0.2-1.4-0.4c-2.4-0.9-4.2-2.8-4.9-5.2c-0.2-0.6-0.3-1.2-0.3-1.8c0-0.2,0-0.4,0-0.6
				c0-1.4,0.4-2.7,1.2-3.9c1.2-1.8,2.8-3,4.9-3.5C38.8,19.4,39.3,19.3,40,19.3z"/>
		</g>
		<g>
			<path class="st1" d="M40.1,7.2c-0.8,0-1.6,0-2.3,0c-0.2,0-0.3,0-0.5,0c-0.8,0-1.4,0.4-1.9,0.9c-0.3,0.3-0.4,0.7-0.5,1.1
				c0,0.3-0.1,0.6-0.1,0.9c0,0.9,0.1,1.9,0.1,2.8c0.1,0.6,0.1,1.1,0.2,1.7c0.1,0.6,0.2,1.3,0.3,1.9c0.1,0.4,0.3,0.9,0.4,1.3
				c0,0,0,0.1,0,0.1c0,0.1,0,0.2-0.1,0.2c0,0-0.1,0.1-0.1,0.1c-0.5,0.2-0.9,0.5-1.4,0.8c0,0-0.1,0-0.1,0c-0.1,0-0.2,0-0.2-0.1
				c0-0.2-0.1-0.4-0.1-0.6c-0.2-1-0.4-1.9-0.7-2.8c-0.2-0.6-0.4-1.2-0.6-1.8c-0.1-0.3-0.1-0.5-0.2-0.8c0-0.5-0.1-1-0.2-1.5
				c0,0,0,0,0-0.1c-0.1-0.9-0.2-1.8-0.2-2.7c0-0.1,0-0.3,0-0.4c0-1,0.4-1.8,1.2-2.5c0.3-0.3,0.6-0.5,1-0.7c0.1-0.1,0.2-0.1,0.3-0.1
				c0.4-0.2,0.9-0.4,1.4-0.4c0.4,0,0.9-0.1,1.3-0.2c0.5-0.1,1-0.1,1.5-0.2c0.1,0,0.2,0,0.3,0c0.5-0.1,1.1-0.1,1.6-0.1
				c0.3,0,0.5,0,0.7,0c0.1,0,0.2,0,0.3,0c0.7,0.1,1.3,0.1,1.9,0.3c0.4,0,0.7,0.1,1.1,0.1c1.2,0.1,2.2,0.8,2.8,1.4
				c0.5,0.5,0.8,1.1,0.9,1.8c0.1,0.3,0.1,0.6,0.1,0.9c0,0.2,0,0.4,0,0.6c0,0.7-0.1,1.5-0.2,2.2c0,0.2,0,0.3,0,0.5
				c0,0.1,0,0.3-0.1,0.4c-0.1,0.2-0.1,0.4-0.2,0.6c-0.4,1.1-0.7,2.2-1,3.3c-0.3,1-0.4,1.7-0.6,2.4c0,0.1,0,0.2-0.1,0.3
				c0,0,0,0.1-0.1,0.1c0,0-0.1,0-0.1,0c0,0,0,0,0,0c-0.4-0.3-0.9-0.5-1.3-0.7c0,0-0.1,0-0.1-0.1c0,0-0.1-0.1-0.1-0.1s0-0.1,0-0.1
				c0.3-0.8,0.5-1.7,0.7-2.5c0.1-0.4,0.1-0.9,0.2-1.3c0-0.1,0-0.2,0-0.3s0-0.2,0-0.3c0.1-1,0.1-2.1,0.1-3.1c0-0.3,0-0.7,0-1
				c-0.1-0.4-0.3-0.9-0.6-1.2c-0.1-0.2-0.3-0.3-0.5-0.4c-0.5-0.3-1-0.5-1.5-0.5c-0.3,0-0.6,0-0.8,0C41.4,7.2,40.8,7.2,40.1,7.2z"/>
		</g>
		<g>
			<path class="st1" d="M35.8,10.9c0-0.3,0-0.6,0-0.8c0-0.2,0-0.4,0-0.6c0-0.3,0.2-0.6,0.4-0.8c0.3-0.3,0.7-0.4,1.2-0.4
				c0.1,0,0.2,0,0.3,0c1.6,0,3.2,0,4.8,0c0.1,0,0.1,0,0.2,0c0.4,0,0.7,0.1,1,0.3c0.3,0.2,0.4,0.4,0.6,0.7c0,0.1,0,0.1,0,0.2
				c0,0.1,0,0.3,0,0.4c0,0.6,0,1.2,0,1.8c0,0.2,0,0.4,0,0.6c0,0.1,0,0.2,0,0.3c0,0.6-0.1,1.1-0.1,1.6c-0.1,0.8-0.2,1.5-0.4,2.3
				c-0.1,0.3-0.2,0.6-0.3,0.8c0,0-0.1,0.1-0.1,0.1l0,0c-0.1,0-0.1,0-0.2,0c-0.2,0-0.4-0.1-0.6-0.1c-1-0.3-2.1-0.3-3.2-0.3
				c-0.7,0-1.4,0.1-2.1,0.4c-0.1,0-0.2,0-0.3,0.1c0,0-0.1,0-0.1-0.1c0,0-0.1-0.1-0.1-0.1c-0.2-0.5-0.3-1-0.4-1.6
				c-0.1-0.6-0.2-1.1-0.3-1.6c-0.1-0.6-0.1-1.2-0.2-1.9C35.8,11.8,35.8,11.4,35.8,10.9C35.8,10.9,35.8,10.9,35.8,10.9z"/>
		</g>
		<g>
			<path class="st1" d="M36.2,39.1c0-0.7,0-1.5,0.1-2.2c0-0.2,0-0.4,0-0.7c0-0.1,0.1-0.1,0.1-0.1c0,0,0.1,0,0.1,0.1
				c0.1,0,0.3,0.1,0.4,0.1c1,0.4,2.1,0.5,3.3,0.5c1,0,2.1-0.2,3-0.6c0.1,0,0.3-0.1,0.4-0.1c0,0,0.1,0,0.1,0.1c0,0,0,0.1,0,0.1
				c0,0.1,0,0.3,0,0.4c0,0.4,0,0.8,0,1.3c0,0.5,0,1.1,0.1,1.6c0,0.7,0,1.4,0,2.1c0,0.1,0,0.2-0.1,0.3c0,0-0.1,0.1-0.1,0.1
				c-0.2,0.1-0.4,0.3-0.5,0.4c-0.7,0.6-1.4,1.3-2,2c-0.4,0.6-0.8,1.1-1.1,1.7c0,0.1-0.1,0.1-0.1,0.2h0l0,0c0-0.1-0.1-0.1-0.1-0.2
				C39.1,45,38.3,44,37.2,43c-0.3-0.3-0.6-0.5-0.9-0.8c-0.1,0-0.1-0.1-0.2-0.1c0,0-0.1-0.1-0.1-0.1c0-0.1,0-0.3,0-0.4
				c0-0.6,0-1.2,0.1-1.8C36.2,39.5,36.2,39.3,36.2,39.1L36.2,39.1z"/>
		</g>
		<g>
			<g>
				<path class="st1" d="M32.9,19.7C32.9,19.7,32.8,19.7,32.9,19.7l-0.4,0.4c-0.6,0.6-1.1,1.3-1.5,2c-0.2,0.4-0.4,0.9-0.7,1.5l0,0.1
					c-0.1-0.1-0.2-0.3-0.3-0.5c-0.3-0.4-0.5-1-0.7-1.5c-0.3-0.9-0.6-1.9-0.8-2.9c-0.1-0.6-0.2-1.2-0.3-1.8c0-0.3,0-0.6-0.1-0.9
					l0-0.4l0-1c0-0.3,0.1-0.7,0.2-1c0.1-0.4,0.4-0.8,0.9-1c0.1-0.1,0.3-0.2,0.5-0.3c0.1,0,0.1,0,0.3-0.1c0,0,0.1,0,0.2,0
					c0.2,0,0.3,0.1,0.5,0.2c0.1,0.1,0.2,0.1,0.3,0.2s0.1,0.1,0.1,0.1c0,0.1,0,0.1,0,0.2c0,0.1,0,0.1,0,0.3c0,0.3,0.1,0.6,0.2,0.9
					c0.2,0.6,0.4,1.2,0.6,1.8c0.2,0.7,0.4,1.6,0.6,2.4v0.1c0,0.2,0.1,0.4,0.1,0.6C32.6,19.2,32.7,19.4,32.9,19.7z"/>
			</g>
		</g>
		<g>
			<g>
				<path class="st1" d="M52,15v0.6c0,0.3,0,0.7,0,0.9c0,0.1,0,0.1,0,0.3c0,0.5-0.1,1-0.2,1.6c-0.2,1.1-0.5,2.2-1,3.4
					c-0.3,0.6-0.5,1.2-0.8,1.7l0,0l0-0.1c-0.5-1.3-1.3-2.5-2.3-3.4l-0.3-0.3c0.1-0.2,0.2-0.4,0.2-0.7c0.3-1.8,0.9-3.6,1.3-5
					c0.1-0.3,0.2-0.6,0.3-0.8l0.2-0.5c0-0.1,0-0.1,0.1-0.1l0.1,0c0,0,0.1,0,0.1-0.1c0.4-0.1,0.4-0.1,0.8,0c0.1,0.1,0.3,0.1,0.4,0.2
					c0.5,0.3,0.8,0.7,1,1.2C51.8,14.1,51.9,14.5,52,15z"/>
			</g>
		</g>
		<g>
			<g>
				<g>
					<path class="st1" d="M32.5,34.2H31h-0.6h-0.6c-0.3,0-0.5,0-0.8,0h-0.1c-0.5,0-1.1-0.1-1.6-0.2c-0.9-0.3-1.7-0.7-2.4-1.3
						c-0.6-0.5-1.1-1.2-1.5-1.9c-0.3-0.6-0.6-1.3-0.7-2.1c0,0,0,0,0-0.1c0-0.2,0-0.4,0-0.6l0-0.4c0-0.2,0-0.4-0.1-0.6
						c0-0.2,0-0.4-0.1-0.7l0-0.2l0-0.3l0-0.4c-0.1-0.6-0.1-1.2-0.3-1.9c-0.1-0.8-0.2-1.5-0.3-2.1c-0.4-2.1-0.9-3.9-1.7-5.6
						c-0.2-0.4-0.4-0.8-0.6-1.2c-0.3-0.4-0.4-0.9-0.5-1.4c0-0.3,0-0.6,0-0.9c0.1-0.3,0.2-0.5,0.4-0.7c0.1-0.1,0.2-0.2,0.3-0.3
						c0.4-0.3,1-0.5,1.5-0.6c0.2,0,0.3,0,0.5,0c0.4,0,0.8,0.1,1.2,0.3c0.4,0.2,0.8,0.4,1.2,0.8c0.4,0.4,0.8,0.8,1.2,1.3
						c0.4,0.6,0.8,1.2,1.2,1.9c0.1,0.3,0.3,0.6,0.5,1l0.2,0.4c0.1,1.4,0.3,2.8,0.7,4.2c0.3,0.9,0.5,1.6,0.8,2.4
						c0.2,0.5,0.4,0.9,0.7,1.3c0.2,0.4,0.5,0.7,0.7,1v0c-0.1,0.6-0.1,1.2-0.1,1.8c0,2.4,0.8,4.6,2.3,6.5
						C32.2,33.8,32.3,34,32.5,34.2z"/>
				</g>
			</g>
		</g>
		<g>
			<g>
				<g>
					<path class="st1" d="M61.2,12.6c0,0.3,0,0.7-0.1,1c-0.1,0.4-0.2,0.7-0.4,0.9c-0.4,0.6-0.7,1.4-1,2.3c-0.5,1.3-0.9,2.7-1.2,4.1
						c-0.1,0.8-0.3,1.5-0.4,2.2l0,0.3c-0.1,0.6-0.1,1.2-0.3,1.8c0,0.4-0.1,0.8-0.1,1.2l0,0.3c0,0.4-0.1,0.8-0.1,1.2l0,0.6
						c0,0,0,0.1,0,0.1c-0.2,0.8-0.4,1.4-0.7,2c-0.9,1.6-2.2,2.7-4,3.2c-0.3,0.1-0.7,0.1-1.2,0.2c-0.1,0-0.2,0-0.3,0h-3.7
						c0.3-0.3,0.6-0.7,0.8-1c0.9-1.2,1.5-2.6,1.7-4.1c0.1-0.6,0.2-1.3,0.1-2c0-0.6-0.1-1.3-0.2-1.9c0.5-0.6,0.8-1.2,1-1.7
						c0.4-0.8,0.7-1.6,1-2.7c0.3-0.9,0.4-1.8,0.6-2.8c0.1-0.6,0.1-1.2,0.1-1.6c0.3-0.7,0.7-1.5,1.1-2.2c0.3-0.6,0.7-1,1-1.5
						c0.4-0.4,0.7-0.8,1.1-1.1c0.4-0.3,0.7-0.5,1.1-0.6c0.3-0.1,0.6-0.2,1-0.2c0,0,0.1,0,0.1,0c0.3,0,0.6,0,0.9,0.1
						c0.3,0.1,0.6,0.2,0.9,0.4c0.2,0.1,0.3,0.2,0.4,0.4C61,12,61.2,12.3,61.2,12.6z"/>
				</g>
			</g>
		</g>
	</g>
	<g>
		<g>
			<path class="st1" d="M27.8,49.8c0.9,0,0.9,0,1.7-0.3c0.1,0,0.1,0,0.2-0.1c0.1-0.1,0.3-0.1,0.4-0.2c0.6-0.4,1-0.9,1.2-1.5
				c0.2-0.5,0.3-1.1,0.1-1.6c0-0.1-0.1-0.3-0.1-0.4c-0.1-0.1-0.1-0.2-0.2-0.3c-0.2-0.2-0.5-0.4-0.8-0.4c-0.3-0.1-0.6-0.1-0.9,0
				c-0.1,0-0.2,0-0.3,0.1c-0.6,0.2-1.1,0.7-1.5,1.2c-0.1,0.1-0.1,0.2-0.2,0.4s-0.3,0.1-0.4,0c0-0.1-0.1-0.1-0.1-0.2
				c0-0.2,0-0.4,0-0.6c0-0.1,0-0.1,0-0.1c0.1-0.3,0.2-0.5,0.4-0.7c0.1-0.1,0.3-0.3,0.5-0.4c0.5-0.3,1-0.5,1.6-0.5c0.1,0,0.3,0,0.4,0
				c0.3,0,0.5,0,0.7,0.1c0.3,0.1,0.4,0.2,0.7,0.3c0.3,0.2,0.5,0.5,0.7,0.8c0.2,0.3,0.3,0.6,0.3,1c0.1,0.7,0,1.5-0.4,2.2
				c-0.5,0.9-1.2,1.6-2.2,1.9c-0.4,0.1-0.7,0.2-1.1,0.3c-0.1,0-0.2,0-0.3,0.1c0,0-0.1,0.1-0.1,0.1c0,0.1,0,0.1,0,0.2
				c0,0.6-0.1,1.7,0,2.4c0,0.1,0,0.1,0,0.2h23.1c0-0.2,0.1-0.9,0.1-1.1c0-0.3,0-0.6,0.1-0.9c0-0.3,0-0.5,0-0.8c0,0,0-0.1,0-0.1
				c0,0,0-0.1-0.1-0.1c-0.1,0-0.2,0-0.3-0.1c-0.4-0.1-0.7-0.1-1.1-0.3c-1.7-0.6-2.8-2.2-2.6-4c0-0.4,0.1-0.7,0.3-1s0.4-0.6,0.7-0.9
				c0.1-0.1,0.3-0.2,0.4-0.3c0.2-0.1,0.4-0.1,0.7-0.1c0.3,0,0.6,0,0.9,0c0.1,0,0.1,0,0.2,0c0.3,0.1,0.5,0.1,0.7,0.2
				c0.3,0.1,0.5,0.3,0.7,0.5c0.1,0.1,0.3,0.3,0.4,0.4c0.1,0.2,0.2,0.5,0.2,0.7c0,0.1,0,0.2,0,0.3c0,0.1,0,0.1,0,0.1
				c0,0.1-0.1,0.2-0.2,0.2c0,0-0.1,0-0.1,0c-0.1,0-0.1-0.1-0.2-0.1c-0.1-0.1-0.1-0.3-0.2-0.4c-0.3-0.6-0.8-1-1.4-1.2
				c-0.1,0-0.3-0.1-0.4-0.1c-0.3,0-0.5,0-0.8,0c0,0,0,0,0,0c-0.4,0.1-0.7,0.4-0.9,0.7l0,0c0,0.1-0.1,0.2-0.1,0.3
				c-0.1,0.4,0,0.7,0,1.1c0.1,0.7,0.4,1.3,1,1.8c0.3,0.3,0.6,0.4,1,0.6c0.2,0.1,0.5,0.1,0.7,0.2c0.1,0,0.2,0,0.3,0
				c0.6,0,1.2,0,1.8-0.1c0.5-0.1,1-0.3,1.5-0.6c0.5-0.4,0.8-0.9,1-1.4c0.1-0.2,0.1-0.4,0.1-0.6c0.1-0.4,0.1-0.8,0.1-1.2
				c0-0.1,0-0.3-0.1-0.4c-0.1-0.6-0.4-1.1-0.7-1.6c-0.7-1-1.8-1.8-3-2.1c-0.6-0.2-1.2-0.3-1.9-0.3c-0.5,0-1.1,0-1.6,0.1
				c-0.6,0.1-1.2,0.3-1.7,0.4c-0.5,0.1-1,0.4-1.4,0.7c-0.6,0.4-1.2,0.8-1.8,1.3c-0.7,0.6-1.3,1.3-1.9,2.2c-0.4,0.6-0.7,1.3-1,2
				c-0.1,0.3-0.2,0.6-0.3,0.9c0,0.1-0.1,0.2-0.1,0.3c0,0.1-0.1,0.1-0.1,0.1c-0.3,0.2-0.6,0.2-0.9,0c-0.1,0-0.1-0.1-0.2-0.2
				c0-0.1-0.1-0.2-0.1-0.3c0-0.1-0.1-0.3-0.1-0.5c-0.3-0.9-0.6-1.8-1.2-2.6c-0.2-0.3-0.4-0.5-0.6-0.8c-0.9-1-1.9-1.9-3-2.6
				c-0.4-0.3-0.9-0.5-1.3-0.6c-0.5-0.1-1-0.3-1.5-0.4c-0.2,0-0.4-0.1-0.7-0.1c-1-0.1-1.9,0-2.8,0.2c-0.9,0.2-1.7,0.7-2.4,1.3
				c-0.6,0.5-1,1.2-1.3,1.9c-0.1,0.4-0.2,0.8-0.2,1.2c0,0.6,0.1,1.1,0.2,1.6c0.1,0.5,0.4,1,0.9,1.3c0.4,0.4,1,0.6,1.5,0.7
				C27,49.7,27.4,49.8,27.8,49.8z"/>
		</g>
		<g>
			<path class="st1" d="M50.9,54.8c-0.2,0-0.1,0-0.3,0c0,0,0,0-0.1,0c-2.8,0-13.8,0-19.2,0c-0.2,0-0.4,0-0.5,0c-0.7,0-1.3,0-2,0
				c0,0,0,0-0.1,0c-0.1,0-0.3,0-0.4,0c-0.1,0.1,0,0.2,0,0.3v0v0c0,0,0,0,0,0.1c0.1,0.6,0.1,1.1,0.3,1.7c0,0.1,0.1,0.2,0.1,0.4
				c0.2,0.8,0.5,1.7,0.8,2.5c0.4,1.1,1,2.2,1.7,3.2c0.3,0.4,0.5,0.7,0.8,1c0.3,0.3,0.6,0.6,0.9,0.9c4.1,4.6,11.1,3.8,14.8-1.1
				c0.3-0.4,0.6-0.7,0.9-1.1c0.2-0.4,0.4-0.7,0.6-1.1s0.4-0.8,0.5-1.2c0.4-1.1,0.8-2.2,1-3.3c0-0.1,0.1-0.3,0.1-0.4l0,0l0,0
				c0-0.1,0-0.1,0-0.2c0,0,0-0.1,0-0.1c0-0.3,0.1-0.6,0.1-1v0v0v0c0-0.1,0-0.1,0-0.3C51.1,54.8,51,54.8,50.9,54.8z"/>
		</g>
	</g>
</g>
</svg>
