<?xml version="1.0" encoding="utf-8"?>
<!-- Generator: Adobe Illustrator 24.0.0, SVG Export Plug-In . SVG Version: 6.00 Build 0)  -->
<svg version="1.1" id="Layer_1" xmlns="http://www.w3.org/2000/svg" xmlns:xlink="http://www.w3.org/1999/xlink" x="0px" y="0px"
	 viewBox="0 0 284.6 284.6" style="enable-background:new 0 0 284.6 284.6;" xml:space="preserve">
<style type="text/css">
	.st0{fill:#FBB03B;}
	.st1{fill:#142E44;stroke:#93A078;stroke-width:1.083;stroke-miterlimit:10;}
	.st2{fill:#E8A24D;}
	.st3{fill:#142E44;stroke:#FFFFFF;stroke-width:1.083;stroke-miterlimit:10;}
	.st4{fill-rule:evenodd;clip-rule:evenodd;fill:#E8A24D;}
	.st5{fill-rule:evenodd;clip-rule:evenodd;fill:#162F44;}
	.st6{fill:#FFFFFF;}
	.st7{fill:#142E44;}
	.st8{fill-rule:evenodd;clip-rule:evenodd;fill:#FFFFFF;}
	.st9{clip-path:url(#SVGID_2_);}
	.st10{fill:none;stroke:#142E44;stroke-width:6.0594;stroke-linecap:round;stroke-miterlimit:10;}
	.st11{fill:#172E44;}
</style>
<g>
	<g>
		<g>
			<g>
				<g>
					<path class="st0" d="M94.8,84.5l1.1,1.4l1.2,1.6l-14.3,14.3l-1.4-1.1l-1.2-1l-7.9-13.8l-8.2-14.3c-0.4-0.7-0.3-1.7,0.3-2.3
						l0.4-0.4c0.6-0.6,1.5-0.7,2.3-0.3l14.3,8.2L94.8,84.5z"/>
					<path class="st1" d="M86.1,96.4c-1.3-1.8-2.1-4-2.3-6.2l-2.2-23.3c-0.2-2,2.4-2.8,3.5-1.1c0.4,0.4,0.7,1.2,1,1.7
						c0.3,0.6,0.7,1.1,1,1.7c0.7,1.1,1.4,2.3,2.1,3.4c2.5,4.2,5.1,8.4,7.7,12.6c1.3,2.1,2.6,4.1,3.5,6.4c0.9,2.2,1.4,4.6,1.5,6.9
						c0.1,2.4-0.3,4.7-2.3,6.2c-2.8,2-6.8,1.2-8.7-1.6L86.1,96.4z"/>
				</g>
				<path class="st1" d="M92.4,90c-1.8-1.3-4-2.1-6.2-2.3l-23.3-2.2c-2-0.2-2.8,2.4-1.1,3.5c0.4,0.4,1.2,0.7,1.7,1
					c0.6,0.3,1.1,0.7,1.7,1c1.1,0.7,2.3,1.4,3.4,2.1c4.2,2.5,8.4,5.1,12.6,7.7c2.1,1.3,4.1,2.6,6.4,3.5c2.2,0.9,4.6,1.4,6.9,1.5
					c2.4,0.1,4.7-0.3,6.2-2.3c2-2.8,1.2-6.8-1.6-8.7L92.4,90z"/>
			</g>
		</g>
		<g>
			<g>
				<g>
					<path class="st0" d="M188.4,84.5l-1.1,1.4l-1.2,1.6l14.3,14.3l1.4-1.1l1.2-1l7.9-13.8l8.2-14.3c0.4-0.7,0.3-1.7-0.3-2.3
						l-0.4-0.4c-0.6-0.6-1.5-0.7-2.3-0.3l-14.3,8.2L188.4,84.5z"/>
					<path class="st1" d="M197.2,96.4c1.3-1.8,2.1-4,2.3-6.2l2.2-23.3c0.2-2-2.4-2.8-3.5-1.1c-0.4,0.4-0.7,1.2-1,1.7
						c-0.3,0.6-0.7,1.1-1,1.7c-0.7,1.1-1.4,2.3-2.1,3.4c-2.5,4.2-5.1,8.4-7.7,12.6c-1.3,2.1-2.6,4.1-3.5,6.4
						c-0.9,2.2-1.4,4.6-1.5,6.9c-0.1,2.4,0.3,4.7,2.3,6.2c2.8,2,6.8,1.2,8.7-1.6L197.2,96.4z"/>
				</g>
				<path class="st1" d="M190.8,90c1.8-1.3,4-2.1,6.2-2.3l23.3-2.2c2-0.2,2.8,2.4,1.1,3.5c-0.4,0.4-1.2,0.7-1.7,1
					c-0.6,0.3-1.1,0.7-1.7,1c-1.1,0.7-2.3,1.4-3.4,2.1c-4.2,2.5-8.4,5.1-12.6,7.7c-2.1,1.3-4.1,2.6-6.4,3.5
					c-2.2,0.9-4.6,1.4-6.9,1.5c-2.4,0.1-4.7-0.3-6.2-2.3c-2-2.8-1.2-6.8,1.6-8.7L190.8,90z"/>
			</g>
		</g>
	</g>
	<g>
		<g>
			<g>
				<g>
					<path class="st2" d="M94.8,84.5l1.1,1.4l1.2,1.6l-14.3,14.3l-1.4-1.1l-1.2-1l-7.9-13.8l-8.2-14.3c-0.4-0.7-0.3-1.7,0.3-2.3
						l0.4-0.4c0.6-0.6,1.5-0.7,2.3-0.3l14.3,8.2L94.8,84.5z"/>
					<path class="st3" d="M86.1,96.4c-1.3-1.8-2.1-4-2.3-6.2l-2.2-23.3c-0.2-2,2.4-2.8,3.5-1.1c0.4,0.4,0.7,1.2,1,1.7
						c0.3,0.6,0.7,1.1,1,1.7c0.7,1.1,1.4,2.3,2.1,3.4c2.5,4.2,5.1,8.4,7.7,12.6c1.3,2.1,2.6,4.1,3.5,6.4c0.9,2.2,1.4,4.6,1.5,6.9
						c0.1,2.4-0.3,4.7-2.3,6.2c-2.8,2-6.8,1.2-8.7-1.6L86.1,96.4z"/>
				</g>
				<path class="st3" d="M92.4,90c-1.8-1.3-4-2.1-6.2-2.3l-23.3-2.2c-2-0.2-2.8,2.4-1.1,3.5c0.4,0.4,1.2,0.7,1.7,1
					c0.6,0.3,1.1,0.7,1.7,1c1.1,0.7,2.3,1.4,3.4,2.1c4.2,2.5,8.4,5.1,12.6,7.7c2.1,1.3,4.1,2.6,6.4,3.5c2.2,0.9,4.6,1.4,6.9,1.5
					c2.4,0.1,4.7-0.3,6.2-2.3c2-2.8,1.2-6.8-1.6-8.7L92.4,90z"/>
			</g>
		</g>
		<g>
			<g>
				<g>
					<path class="st2" d="M188.4,84.5l-1.1,1.4l-1.2,1.6l14.3,14.3l1.4-1.1l1.2-1l7.9-13.8l8.2-14.3c0.4-0.7,0.3-1.7-0.3-2.3
						l-0.4-0.4c-0.6-0.6-1.5-0.7-2.3-0.3l-14.3,8.2L188.4,84.5z"/>
					<path class="st3" d="M197.2,96.4c1.3-1.8,2.1-4,2.3-6.2l2.2-23.3c0.2-2-2.4-2.8-3.5-1.1c-0.4,0.4-0.7,1.2-1,1.7
						c-0.3,0.6-0.7,1.1-1,1.7c-0.7,1.1-1.4,2.3-2.1,3.4c-2.5,4.2-5.1,8.4-7.7,12.6c-1.3,2.1-2.6,4.1-3.5,6.4
						c-0.9,2.2-1.4,4.6-1.5,6.9c-0.1,2.4,0.3,4.7,2.3,6.2c2.8,2,6.8,1.2,8.7-1.6L197.2,96.4z"/>
				</g>
				<path class="st3" d="M190.8,90c1.8-1.3,4-2.1,6.2-2.3l23.3-2.2c2-0.2,2.8,2.4,1.1,3.5c-0.4,0.4-1.2,0.7-1.7,1
					c-0.6,0.3-1.1,0.7-1.7,1c-1.1,0.7-2.3,1.4-3.4,2.1c-4.2,2.5-8.4,5.1-12.6,7.7c-2.1,1.3-4.1,2.6-6.4,3.5
					c-2.2,0.9-4.6,1.4-6.9,1.5c-2.4,0.1-4.7-0.3-6.2-2.3c-2-2.8-1.2-6.8,1.6-8.7L190.8,90z"/>
			</g>
		</g>
	</g>
	<g>
		<g>
			<g>
				<g>
					<path class="st2" d="M188.4,207.2l-1.1-1.4l-1.2-1.6l14.3-14.3l1.4,1.1l1.2,1l7.9,13.8l8.2,14.3c0.4,0.7,0.3,1.7-0.3,2.3
						l-0.4,0.4c-0.6,0.6-1.5,0.7-2.3,0.3l-14.3-8.2L188.4,207.2z"/>
					<path class="st3" d="M197.2,195.2c1.3,1.8,2.1,4,2.3,6.2l2.2,23.3c0.2,2-2.4,2.8-3.5,1.1c-0.4-0.4-0.7-1.2-1-1.7
						c-0.3-0.6-0.7-1.1-1-1.7c-0.7-1.1-1.4-2.3-2.1-3.4c-2.5-4.2-5.1-8.4-7.7-12.6c-1.3-2.1-2.6-4.1-3.5-6.4
						c-0.9-2.2-1.4-4.6-1.5-6.9c-0.1-2.4,0.3-4.7,2.3-6.2c2.8-2,6.8-1.2,8.7,1.6L197.2,195.2z"/>
				</g>
				<path class="st3" d="M190.8,201.6c1.8,1.3,4,2.1,6.2,2.3l23.3,2.2c2,0.2,2.8-2.4,1.1-3.5c-0.4-0.4-1.2-0.7-1.7-1
					c-0.6-0.3-1.1-0.7-1.7-1c-1.1-0.7-2.3-1.4-3.4-2.1c-4.2-2.5-8.4-5.1-12.6-7.7c-2.1-1.3-4.1-2.6-6.4-3.5
					c-2.2-0.9-4.6-1.4-6.9-1.5c-2.4-0.1-4.7,0.3-6.2,2.3c-2,2.8-1.2,6.8,1.6,8.7L190.8,201.6z"/>
			</g>
		</g>
		<g>
			<g>
				<g>
					<path class="st2" d="M94.8,207.2l1.1-1.4l1.2-1.6l-14.3-14.3l-1.4,1.1l-1.2,1l-7.9,13.8l-8.2,14.3c-0.4,0.7-0.3,1.7,0.3,2.3
						l0.4,0.4c0.6,0.6,1.5,0.7,2.3,0.3l14.3-8.2L94.8,207.2z"/>
					<path class="st3" d="M86.1,195.2c-1.3,1.8-2.1,4-2.3,6.2l-2.2,23.3c-0.2,2,2.4,2.8,3.5,1.1c0.4-0.4,0.7-1.2,1-1.7
						c0.3-0.6,0.7-1.1,1-1.7c0.7-1.1,1.4-2.3,2.1-3.4c2.5-4.2,5.1-8.4,7.7-12.6c1.3-2.1,2.6-4.1,3.5-6.4c0.9-2.2,1.4-4.6,1.5-6.9
						c0.1-2.4-0.3-4.7-2.3-6.2c-2.8-2-6.8-1.2-8.7,1.6L86.1,195.2z"/>
				</g>
				<path class="st3" d="M92.4,201.6c-1.8,1.3-4,2.1-6.2,2.3L62.9,206c-2,0.2-2.8-2.4-1.1-3.5c0.4-0.4,1.2-0.7,1.7-1
					c0.6-0.3,1.1-0.7,1.7-1c1.1-0.7,2.3-1.4,3.4-2.1c4.2-2.5,8.4-5.1,12.6-7.7c2.1-1.3,4.1-2.6,6.4-3.5c2.2-0.9,4.6-1.4,6.9-1.5
					c2.4-0.1,4.7,0.3,6.2,2.3c2,2.8,1.2,6.8-1.6,8.7L92.4,201.6z"/>
			</g>
		</g>
	</g>
	<g>
		<path class="st4" d="M149.9,54c0,1.1,0,2.1-0.1,3.2c0,0.4,0,0.7-0.1,1.1c0,0.2,0,0.4-0.1,0.6c0,0.1,0,0.2,0,0.3
			c0,0.9-0.2,1.7-0.3,2.6c-0.1,0.4-0.1,0.8-0.2,1.3c-2.3-0.4-4.6-0.5-7-0.5c-2.3,0-4.6,0.2-6.8,0.5c-0.1-0.5-0.2-1-0.2-1.6
			c-0.1-0.8-0.2-1.7-0.2-2.5c0-0.2,0-0.5-0.1-0.7c-0.1-0.8-0.1-1.6-0.1-2.3h0c0-0.5,0-0.9,0-1.4c0-0.4,0-0.7,0-1.1
			c0.1-0.6,0.3-1,0.7-1.4c0.6-0.5,1.3-0.8,2-0.8c0.2,0,0.4,0,0.6,0h8.7c0.7,0,1.3,0.2,1.8,0.5c0.5,0.3,0.8,0.7,1,1.3
			c0,0.1,0.1,0.3,0.1,0.4C149.9,53.5,149.9,53.8,149.9,54z"/>
		<path class="st5" d="M159.7,50.3c0,0.4,0,0.8,0,1.2c-0.1,1.5-0.2,3.1-0.4,4.6c0,0.4-0.1,0.7-0.1,1.1c0,0.3-0.1,0.6-0.2,1
			c-0.1,0.4-0.3,0.8-0.4,1.2c-0.3,1-0.7,1.9-1,2.9c-0.3,1-0.6,2-0.9,3c-1.3-0.3-2.5-0.7-3.8-0.9c0.1-0.9,0.2-1.7,0.4-2.6
			c0-0.2,0-0.4,0.1-0.6c0-0.1,0-0.2,0-0.2c0-0.2,0-0.3,0-0.5c0.3-2.1,0.3-4.3,0.3-6.5c0-0.7,0-1.4-0.1-2.1c-0.1-1-0.5-1.8-1.2-2.5
			c-0.3-0.4-0.7-0.7-1.1-0.9c-1-0.6-2-1-3.2-1c-0.6,0-1.1,0-1.7,0c-1.4,0-2.8,0-4.2,0c-1.6,0-3.3,0-4.9,0c-0.4,0-0.7,0-1.1,0
			c-1.6,0.1-3,0.8-4.1,1.9c-0.6,0.6-1,1.4-1.1,2.3c-0.1,0.6-0.2,1.2-0.2,1.8c0,2,0.1,4,0.2,6c0,0.4,0.1,0.7,0.1,1.1
			c0.1,0.8,0.2,1.6,0.3,2.5c0.1,0.5,0.1,0.9,0.2,1.4c-1.4,0.3-2.8,0.6-4.2,1c0-0.1-0.1-0.2-0.1-0.3c-0.3-1.1-0.6-2.2-1-3.2
			c-0.1-0.2-0.1-0.4-0.2-0.6c-0.2-0.5-0.3-1.1-0.4-1.7c-0.1-1-0.3-2-0.4-3c0,0,0-0.1,0-0.1c-0.2-1.9-0.4-3.8-0.4-5.7
			c0-0.3,0-0.7,0-1c0.1-2.1,0.9-3.9,2.4-5.3c0.6-0.6,1.3-1.1,2.1-1.5c0.2-0.1,0.4-0.2,0.6-0.3c0.9-0.5,1.9-0.8,2.9-0.9
			c0.9-0.1,1.9-0.3,2.8-0.4c1.1-0.1,2.1-0.3,3.2-0.4c0.2,0,0.4,0,0.6-0.1c1.1-0.2,2.3-0.2,3.4-0.1c0.5,0,1.1,0,1.6,0.1
			c0.2,0,0.4,0.1,0.6,0.1c1.3,0.1,2.7,0.3,4,0.5c0.8,0.1,1.5,0.2,2.3,0.3c2.4,0.3,4.7,1.8,5.9,3c1,1.1,1.7,2.4,2,3.9
			C159.6,49.1,159.7,49.7,159.7,50.3z"/>
		<g>
			<path class="st5" d="M117.5,66.9c0.1,1.1,0.2,2.2,0.3,3.3c-3.9,2.3-6.9,7.9-10,11.1c-0.1-0.6-0.8-4-0.9-4.6
				c-0.8-4-1.8-7.5-3.3-10.9c-0.4-0.9-0.7-1.6-1.1-2.3c-0.5-0.9-0.8-1.8-0.9-2.7c-0.1-0.6-0.1-1.1,0-1.6c0.1-0.5,0.4-1,0.7-1.4
				c0.2-0.2,0.4-0.4,0.6-0.5c0.9-0.6,1.9-1.1,3-1.3c0.3-0.1,0.7-0.1,1-0.1c0.4,0,0.8,0,1.2,0.1c0.4,0.1,0.8,0.2,1.2,0.4
				c0.8,0.3,1.6,0.8,2.3,1.5c0.8,0.7,1.6,1.5,2.3,2.5c0.8,1.1,1.6,2.3,2.3,3.6c0.3,0.6,0.6,1.3,0.9,1.9
				C117.3,66.3,117.4,66.5,117.5,66.9L117.5,66.9L117.5,66.9C117.5,66.8,117.5,66.8,117.5,66.9L117.5,66.9z"/>
		</g>
		<g>
			<g>
				<path class="st4" d="M125.1,61.2c0.1,0.1,0.1,0.2,0.2,0.3c-2.3,1.2-4.4,2.7-6.5,4.2c-0.1-0.4-0.3-0.9-0.4-1.3
					c-0.2-0.6-0.3-1.1-0.4-1.7c-0.1-0.2-0.1-0.5-0.2-0.7l0-0.2c-0.1-0.6-0.2-1.2-0.2-1.7c-0.1-0.6-0.1-1.3,0.1-2.1
					c0.2-0.9,0.6-1.7,1.3-2.3c0.3-0.3,0.6-0.5,0.9-0.7c0.1-0.1,0.3-0.2,0.4-0.2l0.1,0c0.1,0,0.2-0.1,0.3-0.1c0.4,0,0.7,0.1,1,0.2
					c0.2,0.1,0.3,0.2,0.6,0.3c0.1,0.1,0.2,0.2,0.2,0.2c0,0.1,0.1,0.2,0.1,0.4c0.1,0.2,0.1,0.3,0.2,0.5c0.2,0.6,0.4,1.2,0.7,1.7
					C124,59,124.5,60,125.1,61.2z"/>
				<path class="st5" d="M117.4,66.9c0.1,1.1,0.2,2.2,0.3,3.3c-3.9,2.3-6.9,7.9-10,11.1c-0.1-0.6-0.8-4-0.9-4.6
					c-0.8-4-1.8-7.5-3.3-10.9c-0.4-0.9-0.7-1.6-1.1-2.3c-0.5-0.9-0.8-1.8-0.9-2.7c-0.1-0.6-0.1-1.1,0-1.6c0.1-0.5,0.4-1,0.7-1.4
					c0.2-0.2,0.4-0.4,0.6-0.5c0.9-0.6,1.9-1.1,3-1.3c0.3-0.1,0.7-0.1,1-0.1c0.4,0,0.8,0,1.2,0.1c0.4,0.1,0.8,0.2,1.2,0.4
					c0.8,0.3,1.6,0.8,2.3,1.5c0.8,0.7,1.6,1.5,2.3,2.5c0.8,1.1,1.6,2.3,2.3,3.6c0.3,0.6,0.6,1.3,0.9,1.9
					C117.2,66.3,117.3,66.5,117.4,66.9L117.4,66.9L117.4,66.9C117.4,66.8,117.4,66.8,117.4,66.9L117.4,66.9z"/>
			</g>
			<g>
				<path class="st4" d="M158.8,61.2c-0.1,0.1-0.1,0.2-0.2,0.3c2.3,1.2,4.4,2.7,6.5,4.2c0.1-0.4,0.3-0.9,0.4-1.3
					c0.2-0.6,0.3-1.1,0.4-1.7c0.1-0.2,0.1-0.5,0.2-0.7l0-0.2c0.1-0.6,0.2-1.2,0.2-1.7c0.1-0.6,0.1-1.3-0.1-2.1
					c-0.2-0.9-0.6-1.7-1.3-2.3c-0.3-0.3-0.6-0.5-0.9-0.7c-0.1-0.1-0.3-0.2-0.4-0.2l-0.1,0c-0.1,0-0.2-0.1-0.3-0.1
					c-0.4,0-0.7,0.1-1,0.2c-0.2,0.1-0.3,0.2-0.6,0.3c-0.1,0.1-0.2,0.2-0.2,0.2c0,0.1-0.1,0.2-0.1,0.4c-0.1,0.2-0.1,0.3-0.2,0.5
					c-0.2,0.6-0.4,1.2-0.7,1.7C160,59,159.4,60,158.8,61.2z"/>
				<path class="st5" d="M166.5,66.9c-0.1,1.1-0.2,2.2-0.3,3.3c3.9,2.3,6.9,7.9,10,11.1c0.1-0.6,0.8-4,0.9-4.6
					c0.8-4,1.8-7.5,3.3-10.9c0.4-0.9,0.7-1.6,1.1-2.3c0.5-0.9,0.8-1.8,0.9-2.7c0.1-0.6,0.1-1.1,0-1.6c-0.1-0.5-0.4-1-0.7-1.4
					c-0.2-0.2-0.4-0.4-0.6-0.5c-0.9-0.6-1.9-1.1-3-1.3c-0.3-0.1-0.7-0.1-1-0.1c-0.4,0-0.8,0-1.2,0.1c-0.4,0.1-0.8,0.2-1.2,0.4
					c-0.8,0.3-1.6,0.8-2.3,1.5c-0.8,0.7-1.6,1.5-2.3,2.5c-0.8,1.1-1.6,2.3-2.3,3.6c-0.3,0.6-0.6,1.3-0.9,1.9
					C166.7,66.3,166.6,66.5,166.5,66.9L166.5,66.9L166.5,66.9C166.5,66.8,166.5,66.8,166.5,66.9L166.5,66.9z"/>
			</g>
		</g>
		<path class="st6" d="M217.2,142.3C217.2,142.3,217.2,142.3,217.2,142.3c-2.1-0.9-4.3-1.3-6.4-1.1c-0.4,0-0.8,0.1-1.2,0.2
			c-0.5,0.1-1,0.2-1.5,0.4c-1,0.3-1.9,0.7-2.8,1.2c-0.2,0.1-0.5,0.3-0.7,0.4c-1,0.6-2,1.3-3.1,1.8c-0.1,0.1-0.3,0.2-0.4,0.2
			c-0.2,0.1-0.5,0.2-0.7,0.4c-0.7,0.3-1.4,0.7-2.2,1c-0.3,0.1-0.5,0.2-0.8,0.3c-0.5,0.2-1,0.3-1.6,0.4c-0.3,0-0.5,0.1-0.8,0.1
			c-0.8,0.1-1.6,0.1-2.4,0c-0.3,0-0.5-0.1-0.8-0.1c-1.1-0.2-2.1-0.6-3.1-1c-0.3-0.1-0.5-0.2-0.8-0.3c-0.5-0.2-1.1-0.5-1.6-0.8
			c-0.2-0.1-0.4-0.2-0.7-0.4c0,0,0,0,0,0c0,0,0.1-0.1,0.1-0.1c-0.7-0.4-1.4-0.8-2.1-1.3c-0.2-0.1-0.4-0.2-0.7-0.4
			c-1.6-1-3.2-1.8-5-2c-0.3,0-0.5-0.1-0.8-0.1c-0.1,0-0.2,0-0.4,0h0c-0.1,0-0.2,0-0.2,0c-0.2,0-0.4,0-0.6,0c-0.4,0-1,0.1-1.7,0.2
			c-0.1,0-0.2,0-0.3,0.1c-0.6,0.1-1.2,0.3-1.7,0.5c0,0,0,0,0,0c-0.1,0-0.1,0-0.2,0.1c-1,0.3-1.9,0.7-2.8,1.2l-0.7,0.4
			c-1,0.6-2,1.3-3.1,1.8c-0.1,0.1-0.3,0.2-0.4,0.2c-0.2,0.1-0.5,0.2-0.7,0.4c-0.7,0.3-1.4,0.7-2.2,1c-0.3,0.1-0.5,0.2-0.8,0.3
			c-0.5,0.2-1,0.3-1.6,0.4c-0.3,0-0.5,0.1-0.8,0.1c-0.8,0.1-1.6,0.1-2.4,0c-0.3,0-0.5-0.1-0.8-0.1c-1.1-0.2-2.1-0.6-3.1-1
			c-0.3-0.1-0.5-0.2-0.8-0.3c-0.5-0.2-1.1-0.5-1.6-0.8c-0.2-0.1-0.4-0.2-0.7-0.4c0,0,0,0,0,0c0,0,0,0,0.1-0.1
			c-0.7-0.4-1.4-0.8-2.1-1.3l-0.1-0.1c-1.7-1.1-3.4-2.1-5.5-2.3c-0.3,0-0.5-0.1-0.8-0.1c-0.1,0-0.2,0-0.4,0h0c-0.1,0-0.2,0-0.2,0
			c-0.2,0-0.4,0-0.6,0c-0.4,0-1,0.1-1.7,0.2c-0.5,0.1-1.1,0.2-1.6,0.3c-0.3,0.1-0.5,0.1-0.8,0.2c-1,0.3-1.9,0.7-2.8,1.2
			c-0.2,0.1-0.5,0.3-0.7,0.4c-1,0.6-2,1.3-3.1,1.8c-0.1,0.1-0.3,0.2-0.4,0.2c-0.2,0.1-0.5,0.2-0.7,0.4c-0.7,0.3-1.4,0.7-2.2,1
			c-0.3,0.1-0.5,0.2-0.8,0.3c-0.5,0.2-1,0.3-1.6,0.4c-0.3,0-0.5,0.1-0.8,0.1c-0.8,0.1-1.6,0.1-2.4,0c-0.3,0-0.5-0.1-0.8-0.1
			c-1.1-0.2-2.1-0.6-3.1-1c-0.3-0.1-0.5-0.2-0.8-0.3c-0.5-0.2-1.1-0.5-1.6-0.8c-0.2-0.1-0.4-0.2-0.7-0.4c0,0,0,0,0,0
			c0,0,0.1-0.1,0.1-0.1c-0.7-0.4-1.4-0.8-2.1-1.3c-0.2-0.1-0.4-0.2-0.7-0.4c-1.6-1-3.2-1.8-5-2c-0.1,0-0.2,0-0.3,0
			c-0.2,0-0.3,0-0.5,0c-0.1,0-0.2,0-0.4,0h0c-0.1,0-0.2,0-0.2,0c-0.2,0-0.4,0-0.6,0c-0.4,0-1,0.1-1.7,0.2c-0.7,0.1-1.4,0.3-2.1,0.5
			c0,0,0,0,0,0c-0.1,0-0.1,0-0.2,0.1c-1,0.3-1.9,0.7-2.8,1.2c-0.2,0.1-0.5,0.3-0.7,0.4c-1,0.6-2,1.3-3.1,1.8
			c-0.1,0.1-0.3,0.2-0.4,0.2c-0.2,0.1-0.5,0.2-0.7,0.4c-0.7,0.3-1.4,0.7-2.2,1c-0.3,0.1-0.5,0.2-0.8,0.3c-0.5,0.2-1,0.3-1.6,0.4
			c-0.3,0-0.5,0.1-0.8,0.1c-0.8,0.1-1.6,0.1-2.4,0c-0.3,0-0.5-0.1-0.8-0.1c-1.1-0.2-2.1-0.6-3.1-1c-0.3-0.1-0.5-0.2-0.8-0.3
			c-0.5-0.2-1.1-0.5-1.6-0.8c-0.2-0.1-0.4-0.2-0.7-0.4c-0.2-0.2-0.5-0.3-0.7-0.5c-2.2-1.4-4.3-3-6.9-3.2c-0.2,0-0.5-0.1-0.8-0.1
			c-0.1,0-0.2,0-0.4,0c-0.1,0-0.2,0-0.2,0c-0.2,0-0.4,0-0.6,0c-0.4,0-1,0.1-1.6,0.2c0.9-7.5,4.3-14.5,9.7-19.9
			c6.4-6.4,14.9-9.9,24-9.9h7.7v-7.7c0-9.1,3.5-17.6,9.9-24c6.4-6.4,14.9-9.9,24-9.9c9.1,0,17.6,3.5,24,9.9c6.4,6.4,9.9,14.9,9.9,24
			v7.7h7.7c9.1,0,17.6,3.5,24,9.9C213.1,127.1,216.5,134.4,217.2,142.3z"/>
		<g>
			<g>
				<g>
					<g>
						<path class="st7" d="M141.8,233.1c-7.4,0-14.7-1.8-21.2-5.2c-13.9-7.2-23.3-21.2-24.7-36.7C72.4,189.1,54,169.2,54,145.4
							c0-23.8,18.3-43.7,41.8-45.9C98,76,118,57.7,141.8,57.7c23.8,0,43.7,18.3,45.9,41.9c23.6,2.1,41.9,22.1,41.9,45.9
							c0,23.8-18.3,43.7-41.9,45.9c-1.5,15.8-11.1,29.9-25.4,37C155.8,231.5,149,233.1,141.8,233.1z M100.1,108.4
							c-20,0-36.6,16.3-37,36.3c-0.2,9.9,3.6,19.3,10.6,26.4c7.1,7.3,16.7,11.3,26.8,11.3h4.2l0,1.2v3.5c0,17.5,12.4,32.7,29.6,36.2
							c2.4,0.5,4.9,0.7,7.4,0.7s5-0.2,7.4-0.7c17.1-3.5,29.6-18.7,29.6-36.2v-4.7l1.2,0h3.5c20,0,36.6-16.3,37-36.3
							c0.2-9.9-3.6-19.3-10.6-26.4c-7.1-7.3-16.7-11.3-26.8-11.3h-4.2l0-1.2v-3.5c0-20-16.3-36.6-36.3-37c-0.2,0-0.4,0-0.7,0
							c-20.4,0-37,16.8-37,37.4v4.2l-1.2,0H100.1z"/>
						<path class="st6" d="M141.8,58.9c23.7,0,43.1,18.5,44.7,41.7c0,0,0,0,0,0c23.3,1.6,41.7,21,41.7,44.7
							c0,23.7-18.5,43.1-41.7,44.7c0,0,0,0,0,0c-1.1,16.2-10.9,30.1-24.8,37.1c-6,3-12.8,4.7-20,4.7c-7.4,0-14.4-1.8-20.6-5
							c-13.5-7-23-20.7-24.1-36.7c0,0,0,0,0,0c-23.3-1.6-41.7-21-41.7-44.7c0-23.7,18.5-43.1,41.7-44.7c0,0,0,0,0,0
							C98.6,77.4,118.1,58.9,141.8,58.9 M100.5,183.6h3c0,0,0,0,0,0v3.5c0,18.4,13.1,33.9,30.6,37.4c2.5,0.5,5,0.8,7.6,0.8
							s5.2-0.3,7.6-0.8c17.4-3.5,30.6-19,30.6-37.4v-3.5c0,0,0,0,0,0h3.5c20.8,0,37.8-16.8,38.2-37.5c0.4-21.4-17.2-38.9-38.6-38.9
							h-3c0,0,0,0,0,0v-3.5c0-20.8-16.8-37.8-37.5-38.2c-0.2,0-0.4,0-0.7,0c-21.1,0-38.2,17.4-38.2,38.6v3c0,0,0,0,0,0h-3.5
							c-20.8,0-37.8,16.8-38.2,37.5C61.6,166.1,79.1,183.6,100.5,183.6 M141.8,56.5c-24.1,0-44.3,18.3-47,42
							c-23.7,2.7-42,22.9-42,47c0,24.1,18.3,44.3,42,47c1.8,15.5,11.3,29.4,25.2,36.6c6.7,3.5,14.2,5.3,21.7,5.3
							c7.4,0,14.5-1.7,21-4.9c14.3-7.2,24.1-21.2,25.9-37c23.7-2.7,42-22.9,42-47c0-24.1-18.3-44.3-42-47
							C186.1,74.8,165.8,56.5,141.8,56.5L141.8,56.5z M100.5,181.2c-9.8,0-19.1-3.9-26-10.9c-6.8-6.9-10.4-15.9-10.2-25.5
							c0.3-19.4,16.4-35.1,35.7-35.1h3.5h2.4l0-2.4v-3c0-20,16-36.2,35.8-36.2c0.2,0,0.4,0,0.6,0c19.4,0.3,35.1,16.4,35.1,35.7v3.5
							v2.4l2.4,0h3c9.8,0,19.1,3.9,26,10.9c6.8,6.9,10.4,15.9,10.2,25.5c-0.3,19.4-16.4,35.1-35.7,35.1H180h-2.4l0,2.4v3.5
							c0,16.9-12,31.7-28.6,35c-2.3,0.5-4.7,0.7-7.1,0.7s-4.8-0.2-7.1-0.7c-16.6-3.4-28.6-18.1-28.6-35v-3.5v-2.4l-2.4,0H100.5
							L100.5,181.2z"/>
					</g>
				</g>
			</g>
		</g>
		<path class="st8" d="M170.3,138.4h-58.1c1.5-14.7,13.9-26.2,29-26.2C156.3,112.2,168.8,123.6,170.3,138.4z"/>
		<path class="st7" d="M159.4,96.3l-3.1,3.9l-2.5,1.2l-4.5-0.5l-1.7-2.7l-1,2.8l0.8,13.8l-0.7,0.1l1.2,11.5l-1.4,13l-4.4-0.2
			l-0.1-15.2l-1.1-4.3l-0.9,3.1l-0.7,17.7h-5.1l-0.8-18.9l-0.3-7.7l-0.9-2.1l-2.3-5.8l-0.5-3.2l0.8-5.1l2.3-6l1.9-2.2l2.2-1.3
			l2.8-0.7l0.1-1.6l-4.5-0.4c-0.3,0-0.5-0.2-0.5-0.5l0,0c0-0.2,0.1-0.4,0.3-0.5l1.2-0.7l3.3-0.7l0.6,0l0.3-4.1l1.9-1.4l2.7-0.2
			l2.2,1.5l0.3,4.3c0,0,3.7,0.8,3.9,0.9l0.5,0.1c0.4,0.1,0.6,0.5,0.5,0.9l0,0c-0.1,0.2-0.3,0.4-0.5,0.4l-3.4,0.6h-1.7l-0.1,1.7
			l0.3,0.3l3,3.6l2.3,4.2l5.4-1.9L159.4,96.3z"/>
		<path class="st7" d="M174,138.4v3c-0.6,0.1-1.2,0.3-1.7,0.5c0,0,0,0,0,0c-0.1,0-0.1,0-0.2,0.1c-1,0.3-1.9,0.7-2.8,1.2l-0.7,0.4
			c-1,0.6-2,1.3-3.1,1.8c-0.1,0.1-0.3,0.2-0.4,0.2c-0.2,0.1-0.5,0.2-0.7,0.4c-0.7,0.3-1.4,0.7-2.2,1c-0.3,0.1-0.5,0.2-0.8,0.3
			c-0.5,0.2-1,0.3-1.6,0.4c-0.3,0-0.5,0.1-0.8,0.1c-0.8,0.1-1.6,0.1-2.4,0c-0.3,0-0.5-0.1-0.8-0.1c-1.1-0.2-2.1-0.6-3.1-1
			c-0.3-0.1-0.5-0.2-0.8-0.3c-0.5-0.2-1.1-0.5-1.6-0.8c-0.2-0.1-0.4-0.2-0.7-0.4c0,0,0,0,0,0c0,0,0,0,0.1-0.1
			c-0.7-0.4-1.4-0.8-2.1-1.3l-0.1-0.1c-1.7-1.1-3.4-2.1-5.5-2.3c-0.3,0-0.5-0.1-0.8-0.1c-0.1,0-0.2,0-0.4,0h0c-0.1,0-0.2,0-0.2,0
			c-0.2,0-0.4,0-0.6,0c-0.4,0-1,0.1-1.7,0.2c-0.5,0.1-1.1,0.2-1.6,0.3c-0.3,0.1-0.5,0.1-0.8,0.2c-1,0.3-1.9,0.7-2.8,1.2
			c-0.2,0.1-0.5,0.3-0.7,0.4c-1,0.6-2,1.3-3.1,1.8c-0.1,0.1-0.3,0.2-0.4,0.2c-0.2,0.1-0.5,0.2-0.7,0.4c-0.7,0.3-1.4,0.7-2.2,1
			c-0.3,0.1-0.5,0.2-0.8,0.3c-0.5,0.2-1,0.3-1.6,0.4c-0.3,0-0.5,0.1-0.8,0.1c-0.8,0.1-1.6,0.1-2.4,0c-0.3,0-0.5-0.1-0.8-0.1
			c-1.1-0.2-2.1-0.6-3.1-1c-0.3-0.1-0.5-0.2-0.8-0.3c-0.5-0.2-1.1-0.5-1.6-0.8c-0.2-0.1-0.4-0.2-0.7-0.4c0,0,0,0,0,0
			c0,0,0.1-0.1,0.1-0.1c-0.7-0.4-1.4-0.8-2.1-1.3c-0.2-0.1-0.4-0.2-0.7-0.4c-1.6-1-3.2-1.8-5-2c-0.1,0-0.2,0-0.3,0v-2.9H174z"/>
		<g>
			<defs>
				<path id="SVGID_1_" d="M141.8,72c8.8,0,17.1,3.4,23.3,9.7c6.2,6.2,9.7,14.5,9.7,23.3v0.1v7.4h7.4h0.1c8.8,0,17.1,3.4,23.3,9.7
					c6.2,6.2,9.7,14.5,9.7,23.3s-3.4,17.1-9.7,23.3c-6.2,6.2-14.5,9.7-23.3,9.7h-0.1h-7.4v7.4v0.1c0,8.8-3.4,17.1-9.7,23.3
					c-6.2,6.2-14.5,9.7-23.3,9.7c-8.8,0-17.1-3.4-23.3-9.7c-6.2-6.2-9.7-14.5-9.7-23.3v-0.1v-7.4h-7.4h-0.1
					c-8.8,0-17.1-3.4-23.3-9.7c-6.2-6.2-9.7-14.5-9.7-23.3s3.4-17.1,9.7-23.3c6.2-6.2,14.5-9.7,23.3-9.7h0.1h7.4v-7.4v-0.1
					c0-8.8,3.4-17.1,9.7-23.3C124.7,75.4,132.9,72,141.8,72"/>
			</defs>
			<clipPath id="SVGID_2_">
				<use xlink:href="#SVGID_1_"  style="overflow:visible;"/>
			</clipPath>
			<g class="st9">
				<g>
					<g>
						<path class="st7" d="M220.6,217.2l2.3,1.5l-2.2,1.7c-1.1,0.8-2.2,1.6-3.4,2.4l-1,0.6l-1-0.6c-0.6-0.4-1.2-0.7-1.7-0.9
							c-0.7-0.3-1.4-0.6-2-0.7c-0.5-0.1-0.9-0.2-1.4-0.2c-0.6,0-1.3,0.1-1.9,0.2c-0.1,0-0.2,0.1-0.4,0.1c-0.1,0-0.2,0.1-0.3,0.1
							c-0.7,0.3-1.4,0.7-2.1,1.1c-0.6,0.3-1.2,0.7-1.8,1l-0.1,0c-0.2,0.1-0.3,0.2-0.5,0.3c-1.4,0.7-2.8,1.3-4.1,1.9
							c-0.2,0.1-0.4,0.2-0.7,0.2c-0.8,0.3-1.5,0.5-2.2,0.7c-0.2,0.1-0.5,0.1-0.7,0.2c-0.6,0.2-1.2,0.3-1.8,0.3
							c-1.4,0.2-2.9,0.1-4.4-0.3c-0.3-0.1-0.5-0.1-0.8-0.2c-1.3-0.3-2.5-0.8-3.8-1.4c-0.2-0.1-0.5-0.2-0.7-0.4l-0.1,0
							c-0.8-0.4-1.6-0.9-2.3-1.4c-0.1-0.1-0.2-0.1-0.3-0.2l0,0l-0.9-0.5c-0.7-0.4-1.2-0.7-1.7-0.9c-0.7-0.3-1.4-0.6-2.1-0.7
							c-0.4-0.1-0.8-0.1-1.3-0.2c-0.1,0-0.2,0-0.3,0l-0.1,0c-0.1,0-0.2,0-0.2,0c-0.1,0-0.2,0-0.3,0l-0.1,0c-0.1,0-0.3,0-0.4,0.1
							c-0.1,0-0.3,0.1-0.4,0.1c-0.5,0.1-0.9,0.3-1.2,0.5c-0.7,0.4-1.3,0.8-1.9,1.1l-0.9,0.5l-0.1,0c-0.2,0.1-0.3,0.2-0.5,0.3
							c-0.2,0.1-0.4,0.2-0.6,0.3c-1.4,0.7-2.8,1.3-4.1,1.9c-0.2,0.1-0.4,0.2-0.7,0.2c-0.8,0.3-1.5,0.5-2.3,0.7
							c-0.2,0.1-0.5,0.1-0.7,0.2c-0.6,0.2-1.2,0.3-1.8,0.3c-1.4,0.2-2.9,0.1-4.4-0.3c-0.3-0.1-0.6-0.1-0.8-0.2
							c-1.3-0.3-2.5-0.8-3.8-1.4c-0.2-0.1-0.5-0.2-0.7-0.4l0,0c-0.8-0.4-1.5-0.9-2.2-1.4l-0.1-0.1c-0.1-0.1-0.2-0.1-0.3-0.2l-0.1,0
							l-1-0.6c-0.6-0.4-1.2-0.7-1.7-0.9c-0.7-0.3-1.4-0.6-2.1-0.7c-0.4-0.1-0.9-0.2-1.3-0.2c-0.1,0-0.3,0-0.4,0
							c-0.1,0-0.3,0-0.4,0.1l-0.1,0c-0.1,0-0.3,0-0.4,0.1c-0.2,0-0.3,0.1-0.4,0.1c-0.5,0.1-0.9,0.3-1.2,0.5
							c-0.6,0.4-1.3,0.7-1.9,1.1l-1,0.5l-0.1-0.1c-0.2,0.1-0.3,0.2-0.5,0.3c-0.2,0.1-0.4,0.2-0.6,0.3c-1.4,0.7-2.8,1.3-4.1,1.9
							c-0.2,0.1-0.4,0.2-0.7,0.2c-0.8,0.3-1.5,0.5-2.2,0.7c-0.2,0.1-0.5,0.1-0.7,0.2c-0.6,0.2-1.2,0.3-1.8,0.3
							c-1.4,0.2-2.9,0.1-4.4-0.3c-0.3-0.1-0.5-0.1-0.8-0.2c-1.3-0.3-2.5-0.8-3.8-1.4c-0.2-0.1-0.5-0.2-0.7-0.4l-0.1,0
							c-0.8-0.4-1.5-0.9-2.2-1.4l-0.1-0.1c-0.1-0.1-0.2-0.1-0.3-0.2l0,0l-0.9-0.5c-0.6-0.4-1.2-0.7-1.7-0.9
							c-0.7-0.3-1.4-0.6-2.1-0.7c-0.4-0.1-0.8-0.1-1.3-0.2c-0.1,0-0.2,0-0.3,0l-0.1,0c-0.1,0-0.2,0-0.2,0c-0.1,0-0.2,0-0.3,0l-0.1,0
							c-0.1,0-0.3,0-0.4,0.1c-0.2,0-0.3,0.1-0.4,0.1c-0.5,0.1-0.9,0.3-1.2,0.5c-0.7,0.4-1.3,0.8-1.9,1.1l-1,0.6l-0.1,0
							c-0.1,0.1-0.3,0.1-0.4,0.2l-0.1,0c-0.2,0.1-0.3,0.2-0.5,0.3c-1.4,0.7-2.8,1.3-4.1,1.9c-0.2,0.1-0.4,0.2-0.7,0.2
							c-0.7,0.3-1.5,0.5-2.2,0.7c-0.2,0.1-0.5,0.1-0.7,0.2c-0.6,0.2-1.2,0.3-1.8,0.3c-0.5,0.1-0.9,0.1-1.4,0.1c-1,0-2-0.1-3-0.4
							c-0.3-0.1-0.6-0.1-0.8-0.2c-1.3-0.3-2.5-0.8-3.8-1.4c-0.2-0.1-0.5-0.2-0.7-0.4l0,0c-0.8-0.4-1.5-0.9-2.2-1.4l-0.1-0.1
							c-0.2-0.1-0.4-0.2-0.6-0.3l-0.2-0.1c-1.8-1.1-4.2-2.4-6.5-2l-0.1,0c-0.1,0-0.3,0-0.4,0.1c-0.1,0-0.3,0.1-0.4,0.1
							c-0.5,0.1-0.9,0.3-1.2,0.5c-0.6,0.4-1.3,0.7-1.9,1.1l-1,0.5l-1-0.6c-1.2-0.8-2.4-1.6-3.5-2.4l-2.3-1.8l2.6-1.4
							c0.5-0.3,1-0.5,1.4-0.8c0.9-0.5,1.7-0.9,2.5-1.4c1.3-0.8,2.7-1.2,4.2-1.4l0.2,0c0.6-0.1,1.2-0.2,1.7-0.2c0.2,0,0.5,0,0.7,0
							c0.1,0,0.2,0,0.2,0l0,0c0.1,0,0.2,0,0.4,0c0.3,0,0.6,0,0.8,0.1c2.8,0.3,5,1.8,7,3.1c0.2,0.1,0.4,0.2,0.6,0.4
							c0.2,0.1,0.4,0.3,0.6,0.4c0.2,0.1,0.4,0.2,0.6,0.3c0.6,0.3,1,0.5,1.5,0.7c0.2,0.1,0.5,0.2,0.7,0.3l0,0
							c0.9,0.4,1.8,0.7,2.6,0.9c0.2,0,0.4,0.1,0.7,0.1c0.6,0.1,1.2,0.1,1.9,0c0.2,0,0.4,0,0.6-0.1c0.4-0.1,0.9-0.2,1.3-0.4
							c0.2-0.1,0.4-0.1,0.6-0.2c0.6-0.2,1.2-0.5,1.9-0.9c0.2-0.1,0.3-0.2,0.5-0.3l0.2-0.1c0.1-0.1,0.3-0.1,0.4-0.2
							c0.7-0.4,1.4-0.8,2.1-1.2c0.3-0.2,0.6-0.3,0.9-0.5c0.2-0.1,0.5-0.3,0.7-0.4l0,0c1-0.5,2-1,3.1-1.3c0.1,0,0.1,0,0.2-0.1
							c0.8-0.3,1.6-0.5,2.4-0.6l0.2,0c0.6-0.1,1.2-0.2,1.7-0.2c0.2,0,0.5,0,0.7,0c0.1,0,0.2,0,0.2,0l0,0c0.1,0,0.2,0,0.3,0
							c0.3,0,0.6,0,0.8,0.1c2.2,0.3,4.1,1.2,5.6,2.2c0.2,0.1,0.4,0.2,0.6,0.3c0.6,0.4,1.3,0.8,2.1,1.3l1.2,0.7
							c0.2,0.1,0.5,0.2,0.7,0.3c0.2,0.1,0.5,0.2,0.7,0.3l0.1,0c0.9,0.4,1.7,0.7,2.6,0.9c0.2,0,0.5,0.1,0.7,0.1
							c0.6,0.1,1.2,0.1,1.9,0c0.2,0,0.4,0,0.6-0.1c0.4-0.1,0.9-0.2,1.3-0.4c0.2-0.1,0.4-0.1,0.6-0.2c0.6-0.2,1.2-0.5,1.9-0.9
							c0.2-0.1,0.4-0.2,0.7-0.3c0.1-0.1,0.3-0.1,0.4-0.2c0.7-0.4,1.3-0.8,2-1.2c0.3-0.2,0.6-0.3,0.9-0.5c0.2-0.1,0.5-0.3,0.7-0.4
							c1-0.6,2.1-1,3.1-1.3c0.2-0.1,0.3-0.1,0.5-0.1l0.2-0.2l0.3,0c0.5-0.1,1.1-0.3,1.6-0.3l0.2,0c0.6-0.1,1.2-0.2,1.7-0.2
							c0.2,0,0.5,0,0.7,0c0.1,0,0.1,0,0.2,0l0.1,0c0.1,0,0.2,0,0.3,0c0.3,0,0.6,0,0.8,0.1c2.3,0.3,4.3,1.3,6,2.5c0,0,0,0,0.1,0l0,0
							c0.6,0.4,1.3,0.7,2.1,1.3l0.9,0.6c0.4,0.2,0.7,0.4,1,0.5c0.2,0.1,0.5,0.2,0.7,0.3l0.1,0c0.9,0.4,1.7,0.7,2.6,0.9
							c0.2,0,0.5,0.1,0.7,0.1c0.6,0.1,1.2,0.1,1.9,0c0.2,0,0.4,0,0.6-0.1c0.4-0.1,0.9-0.2,1.3-0.4c0.2-0.1,0.4-0.1,0.6-0.2
							c0.6-0.2,1.2-0.5,1.9-0.9c0.2-0.1,0.4-0.2,0.7-0.3c0.1-0.1,0.3-0.1,0.4-0.2c0.7-0.4,1.3-0.8,2-1.2c0.3-0.2,0.6-0.3,0.9-0.5
							c0.2-0.1,0.5-0.3,0.7-0.4l0,0c1-0.5,2-1,3.1-1.3c0.1,0,0.1,0,0.2-0.1c0.8-0.3,1.6-0.5,2.4-0.6l0.2,0c0.6-0.1,1.2-0.2,1.7-0.2
							c0.2,0,0.5,0,0.7,0c0.1,0,0.2,0,0.2,0l0,0c0.1,0,0.2,0,0.4,0c0.3,0,0.6,0,0.8,0.1c2.2,0.3,4.1,1.2,5.6,2.2
							c0.2,0.1,0.4,0.2,0.6,0.3c0.6,0.4,1.3,0.8,2.1,1.3l1.2,0.8c0.2,0.1,0.4,0.2,0.7,0.3c0.2,0.1,0.4,0.2,0.7,0.3l0.1,0
							c0.9,0.4,1.8,0.7,2.6,0.9c0.2,0,0.4,0.1,0.7,0.1c0.6,0.1,1.2,0.1,1.9,0c0.2,0,0.4,0,0.6-0.1c0.4-0.1,0.9-0.2,1.3-0.4
							c0.2-0.1,0.4-0.1,0.6-0.2c0.6-0.2,1.2-0.5,1.9-0.9c0.2-0.1,0.4-0.2,0.7-0.3c0.1-0.1,0.3-0.1,0.4-0.2c0.7-0.4,1.3-0.8,2-1.2
							c0.3-0.2,0.6-0.4,0.9-0.5c0.2-0.1,0.5-0.3,0.7-0.4c1-0.6,2.1-1,3.1-1.3c0.5-0.2,1.1-0.3,1.6-0.4c0.4-0.1,0.9-0.2,1.3-0.2
							c2.4-0.3,4.9,0.1,7.2,1.1c0.4,0.2,0.8,0.3,1.1,0.5c0.6,0.3,1.1,0.6,1.6,0.9C219.1,216.3,219.8,216.8,220.6,217.2z"/>
						<path class="st7" d="M220.6,184.3l2.3,1.5l-2.2,1.7c-1.1,0.8-2.2,1.6-3.4,2.4l-1,0.6l-1-0.6c-0.6-0.4-1.2-0.7-1.7-0.9
							c-0.7-0.3-1.4-0.6-2-0.7c-0.5-0.1-0.9-0.2-1.4-0.2c-0.6,0-1.3,0.1-1.9,0.2c-0.1,0-0.2,0.1-0.4,0.1c-0.1,0-0.2,0.1-0.3,0.1
							c-0.7,0.3-1.4,0.7-2.1,1.1c-0.6,0.3-1.2,0.7-1.8,1c-0.2,0.1-0.4,0.2-0.6,0.3c-1.4,0.7-2.8,1.3-4.1,1.8
							c-0.2,0.1-0.4,0.2-0.7,0.2c-0.8,0.3-1.5,0.5-2.2,0.7c-0.2,0.1-0.5,0.1-0.7,0.2c-0.6,0.2-1.2,0.3-1.8,0.3
							c-1.4,0.2-2.9,0.1-4.4-0.3c-0.3-0.1-0.5-0.1-0.8-0.2c-1.3-0.3-2.5-0.8-3.8-1.4c-0.2-0.1-0.5-0.2-0.7-0.4l-0.1,0
							c-0.8-0.4-1.6-0.9-2.3-1.4c-0.1-0.1-0.2-0.1-0.3-0.2l0,0l-0.9-0.5c-0.7-0.4-1.2-0.7-1.7-0.9c-0.7-0.3-1.4-0.6-2.1-0.7
							c-0.4-0.1-0.8-0.1-1.3-0.2c-0.1,0-0.2,0-0.3,0l-0.1,0c-0.1,0-0.2,0-0.2,0c-0.1,0-0.2,0-0.3,0l-0.1,0c-0.1,0-0.3,0-0.4,0.1l0,0
							c-0.1,0-0.3,0.1-0.4,0.1c-0.5,0.1-0.9,0.3-1.2,0.5c-0.7,0.4-1.3,0.8-1.9,1.1l-0.9,0.5l-0.1,0c-0.2,0.1-0.3,0.2-0.5,0.3
							c-0.2,0.1-0.4,0.2-0.6,0.3c-1.4,0.7-2.8,1.3-4.1,1.8c-0.2,0.1-0.4,0.2-0.7,0.2c-0.8,0.3-1.5,0.5-2.3,0.7
							c-0.2,0.1-0.5,0.1-0.7,0.2c-0.6,0.2-1.2,0.3-1.8,0.3c-1.4,0.2-2.9,0.1-4.4-0.3c-0.3-0.1-0.6-0.1-0.8-0.2
							c-1.3-0.3-2.5-0.8-3.8-1.4c-0.2-0.1-0.5-0.2-0.7-0.4l0,0c-0.8-0.4-1.5-0.9-2.2-1.4l-0.1,0c-0.1-0.1-0.2-0.1-0.3-0.2l-0.1,0
							l-1-0.6c-0.6-0.4-1.2-0.7-1.7-0.9c-0.7-0.3-1.4-0.6-2.1-0.7c-0.4-0.1-0.9-0.2-1.3-0.2c-0.1,0-0.3,0-0.4,0
							c-0.2,0-0.3,0-0.5,0.1l-0.1,0c-0.1,0-0.3,0-0.4,0.1c-0.2,0-0.3,0.1-0.4,0.1c-0.5,0.1-0.9,0.3-1.2,0.5
							c-0.6,0.4-1.3,0.7-1.9,1.1l-1,0.5l-0.1-0.1c-0.2,0.1-0.3,0.2-0.5,0.3c-0.2,0.1-0.4,0.2-0.6,0.3c-1.4,0.7-2.8,1.3-4.1,1.8
							c-0.2,0.1-0.4,0.2-0.7,0.2c-0.7,0.3-1.5,0.5-2.2,0.7c-0.2,0.1-0.5,0.1-0.7,0.2c-0.6,0.2-1.2,0.3-1.8,0.3
							c-1.4,0.2-2.9,0.1-4.4-0.3c-0.3-0.1-0.5-0.1-0.8-0.2c-1.3-0.3-2.5-0.8-3.8-1.4c-0.2-0.1-0.5-0.2-0.7-0.4l-0.1,0
							c-0.8-0.4-1.5-0.9-2.2-1.4l-0.1,0c-0.1-0.1-0.2-0.1-0.3-0.2l0,0l-0.9-0.5c-0.6-0.4-1.2-0.7-1.7-0.9c-0.7-0.3-1.4-0.6-2.1-0.7
							c-0.4-0.1-0.8-0.1-1.3-0.2c-0.1,0-0.2,0-0.3,0l-0.1,0c-0.1,0-0.2,0-0.2,0c-0.1,0-0.2,0-0.3,0l-0.1,0c-0.1,0-0.3,0-0.4,0.1
							c-0.2,0-0.3,0.1-0.4,0.1c-0.5,0.1-0.9,0.3-1.2,0.5c-0.7,0.4-1.3,0.8-1.9,1.1l-1,0.6l-0.1,0c-0.1,0.1-0.3,0.1-0.4,0.2
							c-0.2,0.1-0.4,0.2-0.6,0.3c-1.4,0.7-2.8,1.3-4.1,1.8c-0.2,0.1-0.4,0.2-0.7,0.2c-0.7,0.3-1.5,0.5-2.2,0.7
							c-0.2,0.1-0.5,0.1-0.7,0.2c-0.6,0.2-1.2,0.3-1.8,0.3c-0.5,0.1-0.9,0.1-1.4,0.1c-1,0-2-0.1-3-0.4c-0.3-0.1-0.6-0.1-0.8-0.2
							c-1.3-0.3-2.5-0.8-3.8-1.4c-0.2-0.1-0.5-0.2-0.7-0.4l0,0c-0.8-0.4-1.5-0.9-2.2-1.4l-0.1,0c-0.2-0.1-0.3-0.2-0.5-0.3l-0.2-0.1
							c-1.8-1.1-4.2-2.4-6.5-2l-0.1,0c-0.1,0-0.3,0-0.4,0.1l0,0c-0.1,0-0.2,0-0.4,0.1c-0.5,0.1-0.9,0.3-1.2,0.5
							c-0.6,0.4-1.3,0.7-1.9,1.1l-1,0.5l-1-0.6c-1.2-0.8-2.4-1.6-3.5-2.4l-2.3-1.8l2.6-1.4c0.5-0.3,1-0.5,1.4-0.8
							c0.9-0.5,1.7-0.9,2.4-1.4c1.3-0.8,2.7-1.2,4.2-1.4l0.2,0c0.6-0.1,1.2-0.2,1.7-0.2c0.2,0,0.5,0,0.7,0c0.1,0,0.2,0,0.3,0l0,0
							c0.1,0,0.2,0,0.4,0c0.3,0,0.6,0,0.8,0.1c2.8,0.3,5,1.8,7,3.1c0.2,0.1,0.4,0.2,0.6,0.4c0.2,0.1,0.4,0.3,0.6,0.4
							c0.2,0.1,0.4,0.2,0.6,0.3c0.6,0.3,1,0.5,1.5,0.7c0.2,0.1,0.5,0.2,0.7,0.3l0,0c0.9,0.4,1.8,0.7,2.6,0.9c0.2,0,0.4,0.1,0.7,0.1
							c0.6,0.1,1.2,0.1,1.9,0c0.2,0,0.4,0,0.6-0.1c0.4-0.1,0.9-0.2,1.3-0.4c0.2-0.1,0.4-0.1,0.6-0.2c0.6-0.2,1.2-0.5,1.9-0.9
							c0.2-0.1,0.3-0.2,0.5-0.2l0.2-0.1c0.1-0.1,0.3-0.1,0.4-0.2c0.7-0.4,1.4-0.8,2.1-1.2c0.3-0.2,0.6-0.3,0.9-0.5
							c0.2-0.1,0.5-0.3,0.7-0.4l0,0c1-0.5,2-1,3.1-1.3c0.1,0,0.1,0,0.2-0.1c0.8-0.3,1.6-0.5,2.4-0.6l0.2,0c0.6-0.1,1.2-0.2,1.7-0.2
							c0.2,0,0.5,0,0.7,0c0.1,0,0.2,0,0.2,0l0,0c0.1,0,0.2,0,0.4,0c0.3,0,0.6,0,0.8,0.1c2.2,0.3,4.1,1.2,5.6,2.2
							c0.2,0.1,0.4,0.2,0.6,0.3c0.6,0.4,1.3,0.8,2.1,1.3l1.2,0.7c0.2,0.1,0.5,0.2,0.7,0.3c0.2,0.1,0.5,0.2,0.7,0.3l0.1,0
							c0.9,0.4,1.7,0.7,2.6,0.9c0.2,0,0.5,0.1,0.7,0.1c0.6,0.1,1.2,0.1,1.9,0c0.2,0,0.4,0,0.6-0.1c0.4-0.1,0.9-0.2,1.3-0.4
							c0.2-0.1,0.4-0.1,0.6-0.2c0.6-0.2,1.2-0.5,1.9-0.9c0.2-0.1,0.4-0.2,0.7-0.3c0.1-0.1,0.3-0.1,0.4-0.2c0.7-0.4,1.3-0.8,2-1.2
							c0.3-0.2,0.6-0.4,0.9-0.5c0.2-0.1,0.5-0.3,0.7-0.4l0,0c1-0.6,2-1,3.1-1.3c0.2-0.1,0.3-0.1,0.5-0.1l0.2-0.1l0.3,0
							c0.5-0.1,1.1-0.3,1.6-0.3l0.2,0c0.6-0.1,1.2-0.2,1.7-0.2c0.2,0,0.5,0,0.7,0c0.1,0,0.1,0,0.2,0l0.1,0c0.1,0,0.2,0,0.3,0
							c0.3,0,0.6,0,0.8,0.1c2.3,0.3,4.3,1.3,6,2.5c0,0,0,0,0.1,0l0,0c0.6,0.4,1.3,0.7,2.1,1.3l0.9,0.6c0.4,0.2,0.7,0.4,1,0.5
							c0.2,0.1,0.5,0.2,0.7,0.3l0.1,0c0.9,0.4,1.7,0.7,2.6,0.9c0.2,0,0.5,0.1,0.7,0.1c0.6,0.1,1.2,0.1,1.9,0c0.2,0,0.4,0,0.6-0.1
							c0.4-0.1,0.9-0.2,1.3-0.4c0.2-0.1,0.4-0.1,0.6-0.2c0.6-0.2,1.2-0.5,1.9-0.9c0.2-0.1,0.4-0.2,0.7-0.3c0.1-0.1,0.3-0.1,0.4-0.2
							c0.7-0.4,1.3-0.8,2-1.2c0.3-0.2,0.6-0.4,0.9-0.5c0.2-0.1,0.5-0.3,0.7-0.4l0,0c1-0.5,2-1,3.1-1.3c0.1,0,0.1,0,0.2-0.1
							c0.8-0.3,1.6-0.5,2.4-0.6l0.2,0c0.6-0.1,1.2-0.2,1.7-0.2c0.2,0,0.5,0,0.7,0c0.1,0,0.2,0,0.2,0l0,0c0.1,0,0.2,0,0.4,0
							c0.3,0,0.6,0,0.8,0.1c2.2,0.3,4.1,1.2,5.6,2.2c0.2,0.1,0.4,0.2,0.6,0.3c0.6,0.4,1.3,0.8,2.1,1.3l1.2,0.8
							c0.2,0.1,0.4,0.2,0.7,0.3c0.2,0.1,0.4,0.2,0.7,0.3l0.1,0c0.9,0.4,1.8,0.7,2.6,0.9c0.2,0,0.4,0.1,0.7,0.1
							c0.6,0.1,1.2,0.1,1.9,0c0.2,0,0.4,0,0.6-0.1c0.4-0.1,0.9-0.2,1.3-0.4c0.2-0.1,0.4-0.1,0.6-0.2c0.6-0.2,1.2-0.5,1.9-0.9
							c0.2-0.1,0.4-0.2,0.7-0.3l0,0c0.1-0.1,0.3-0.1,0.4-0.2c0.7-0.4,1.3-0.8,2-1.2c0.3-0.2,0.6-0.4,0.9-0.5
							c0.2-0.1,0.5-0.3,0.7-0.4l0,0c1-0.6,2-1,3.1-1.3c0.5-0.2,1.1-0.3,1.6-0.4c0.4-0.1,0.9-0.2,1.3-0.2c2.4-0.3,4.9,0.1,7.2,1.1
							c0.4,0.2,0.8,0.3,1.1,0.5c0.6,0.3,1.1,0.6,1.6,0.9C219.1,183.4,219.8,183.9,220.6,184.3z"/>
						<path class="st7" d="M220.6,200.8l2.3,1.5l-2.2,1.7c-1.1,0.8-2.2,1.6-3.4,2.4l-1,0.6l-1-0.6c-0.6-0.4-1.2-0.7-1.7-0.9
							c-0.7-0.3-1.4-0.6-2-0.7c-0.5-0.1-0.9-0.2-1.4-0.2c-0.6,0-1.3,0.1-1.9,0.2c-0.1,0-0.2,0.1-0.4,0.1c-0.1,0-0.2,0.1-0.3,0.1
							c-0.7,0.3-1.4,0.7-2.1,1.1c-0.6,0.3-1.2,0.7-1.8,1c-0.2,0.1-0.4,0.2-0.6,0.3c-1.4,0.7-2.8,1.3-4.1,1.9
							c-0.2,0.1-0.4,0.2-0.7,0.2c-0.8,0.3-1.5,0.5-2.2,0.7c-0.2,0.1-0.5,0.1-0.7,0.2c-0.6,0.2-1.2,0.3-1.8,0.3
							c-1.4,0.2-2.9,0.1-4.4-0.3c-0.3-0.1-0.5-0.1-0.8-0.2c-1.3-0.3-2.5-0.8-3.8-1.4c-0.2-0.1-0.5-0.2-0.7-0.4l-0.1,0
							c-0.8-0.4-1.6-0.9-2.3-1.4c-0.1-0.1-0.2-0.1-0.3-0.2l0,0l-1-0.5c-0.6-0.4-1.2-0.7-1.7-0.9c-0.7-0.3-1.4-0.6-2.1-0.7
							c-0.4-0.1-0.8-0.1-1.3-0.2c-0.1,0-0.2,0-0.3,0l-0.1,0c-0.1,0-0.2,0-0.2,0c-0.1,0-0.2,0-0.3,0l-0.1,0c-0.1,0-0.3,0-0.4,0.1
							c-0.2,0-0.3,0.1-0.4,0.1c-0.5,0.1-0.9,0.3-1.2,0.5c-0.7,0.4-1.3,0.8-1.9,1.1l-0.9,0.5l-0.1,0c-0.2,0.1-0.3,0.2-0.5,0.3
							c-0.2,0.1-0.4,0.2-0.6,0.3c-1.4,0.7-2.8,1.3-4.1,1.9c-0.2,0.1-0.4,0.2-0.7,0.2c-0.8,0.3-1.5,0.5-2.3,0.7
							c-0.2,0.1-0.5,0.1-0.7,0.2c-0.6,0.2-1.2,0.3-1.8,0.3c-1.4,0.2-2.9,0.1-4.4-0.3c-0.3-0.1-0.5-0.1-0.8-0.2
							c-1.3-0.3-2.5-0.8-3.8-1.4c-0.2-0.1-0.5-0.2-0.7-0.4l0,0c-0.8-0.4-1.5-0.9-2.2-1.4l-0.1-0.1c-0.1-0.1-0.2-0.1-0.3-0.2l-0.1,0
							l-1-0.6c-0.6-0.4-1.2-0.7-1.7-0.9c-0.7-0.3-1.4-0.6-2.1-0.7c-0.4-0.1-0.9-0.2-1.3-0.2c-0.3,0-0.6,0-0.8,0.1l-0.1,0
							c-0.1,0-0.3,0-0.4,0.1c-0.2,0-0.3,0.1-0.4,0.1c-0.5,0.1-0.9,0.3-1.2,0.5c-0.6,0.4-1.3,0.7-1.9,1.1l-1,0.5l-0.1-0.1
							c-0.2,0.1-0.3,0.2-0.5,0.3c-0.2,0.1-0.4,0.2-0.6,0.3c-1.4,0.7-2.8,1.3-4.1,1.9c-0.2,0.1-0.4,0.2-0.7,0.2
							c-0.7,0.3-1.5,0.5-2.2,0.7c-0.2,0.1-0.5,0.1-0.7,0.2c-0.6,0.2-1.2,0.3-1.8,0.3c-1.4,0.2-2.9,0.1-4.4-0.3
							c-0.3-0.1-0.5-0.1-0.8-0.2c-1.3-0.3-2.5-0.8-3.8-1.4c-0.2-0.1-0.5-0.2-0.7-0.4l-0.1,0c-0.8-0.4-1.5-0.9-2.2-1.4l-0.1-0.1
							c-0.1-0.1-0.2-0.1-0.3-0.2l0,0l-0.9-0.5c-0.6-0.4-1.2-0.7-1.7-0.9c-0.7-0.3-1.4-0.6-2.1-0.7c-0.4-0.1-0.8-0.1-1.3-0.2
							c-0.1,0-0.2,0-0.3,0l-0.1,0c-0.1,0-0.2,0-0.2,0c-0.1,0-0.2,0-0.3,0l-0.1,0c-0.1,0-0.3,0-0.4,0.1c-0.2,0-0.3,0.1-0.4,0.1
							c-0.5,0.1-0.9,0.3-1.2,0.5c-0.7,0.4-1.3,0.8-1.9,1.1l-1,0.6l-0.1,0c-0.1,0.1-0.3,0.1-0.4,0.2c-0.2,0.1-0.4,0.2-0.6,0.3
							c-1.4,0.7-2.8,1.3-4.1,1.9c-0.2,0.1-0.4,0.2-0.7,0.2c-0.7,0.3-1.5,0.5-2.2,0.7c-0.2,0.1-0.5,0.1-0.7,0.2
							c-0.6,0.2-1.2,0.3-1.8,0.3c-0.5,0.1-0.9,0.1-1.4,0.1c-1,0-2-0.1-3-0.4c-0.3-0.1-0.5-0.1-0.8-0.2c-1.3-0.3-2.5-0.8-3.8-1.4
							c-0.2-0.1-0.5-0.2-0.7-0.4l0,0c-0.8-0.4-1.5-0.9-2.2-1.4l-0.1,0c-0.2-0.1-0.4-0.2-0.5-0.3l-0.2-0.1c-1.8-1.1-4.2-2.4-6.5-2
							l-0.1,0c-0.1,0-0.3,0-0.4,0.1l0,0c-0.1,0-0.3,0-0.4,0.1c-0.5,0.1-0.8,0.3-1.2,0.5c-0.6,0.4-1.3,0.7-1.9,1.1l-1,0.5l-1-0.6
							c-1.2-0.8-2.4-1.6-3.5-2.4l-2.3-1.8l2.6-1.4c0.5-0.3,1-0.5,1.4-0.8c0.9-0.5,1.7-0.9,2.4-1.4c1.3-0.8,2.7-1.2,4.2-1.4l0.2,0
							c0.6-0.1,1.2-0.2,1.7-0.2c0.2,0,0.5,0,0.7,0c0.1,0,0.2,0,0.3,0c0.1,0,0.2,0,0.3,0c0.3,0,0.6,0,0.8,0.1c2.8,0.3,5,1.8,7,3.1
							c0.2,0.1,0.4,0.2,0.6,0.4c0.2,0.1,0.4,0.3,0.6,0.4c0.2,0.1,0.4,0.2,0.6,0.3c0.6,0.3,1,0.5,1.5,0.7c0.2,0.1,0.5,0.2,0.7,0.3
							l0,0c0.9,0.4,1.8,0.7,2.6,0.9c0.2,0,0.5,0.1,0.7,0.1c0.6,0.1,1.2,0.1,1.9,0c0.2,0,0.4,0,0.6-0.1c0.4-0.1,0.9-0.2,1.3-0.4
							c0.2-0.1,0.4-0.1,0.6-0.2c0.6-0.2,1.2-0.5,1.9-0.9c0.2-0.1,0.3-0.2,0.5-0.2l0.2-0.1c0.1-0.1,0.2-0.1,0.3-0.2
							c0.7-0.4,1.4-0.8,2.1-1.2c0.3-0.2,0.6-0.3,0.8-0.5c0.2-0.1,0.5-0.3,0.7-0.4l0,0c1-0.5,2-1,3.1-1.3c0.1,0,0.1,0,0.2-0.1
							c0.8-0.3,1.6-0.5,2.4-0.6l0.2,0c0.6-0.1,1.2-0.2,1.7-0.2c0.2,0,0.5,0,0.7,0c0.1,0,0.2,0,0.3,0l0,0c0.1,0,0.2,0,0.4,0
							c0.3,0,0.6,0,0.8,0.1c2.2,0.3,4.1,1.2,5.6,2.2c0.2,0.1,0.4,0.2,0.6,0.3c0.7,0.4,1.3,0.8,2.1,1.3l1.2,0.7
							c0.2,0.1,0.5,0.2,0.7,0.3c0.2,0.1,0.5,0.2,0.7,0.3l0.1,0c0.9,0.4,1.7,0.7,2.6,0.9c0.2,0,0.5,0.1,0.7,0.1
							c0.6,0.1,1.2,0.1,1.9,0c0.2,0,0.4,0,0.6-0.1c0.4-0.1,0.9-0.2,1.3-0.4c0.2-0.1,0.4-0.1,0.6-0.2c0.6-0.2,1.2-0.5,1.9-0.9
							c0.2-0.1,0.4-0.2,0.7-0.3l0,0c0.1-0.1,0.2-0.1,0.4-0.2c0.7-0.4,1.3-0.8,2-1.2c0.3-0.2,0.6-0.3,0.9-0.5
							c0.2-0.1,0.5-0.3,0.7-0.4c1-0.6,2.1-1,3.1-1.3c0.2-0.1,0.3-0.1,0.5-0.1l0.2-0.1l0.3,0c0.5-0.2,1.1-0.3,1.6-0.3l0.2,0
							c0.6-0.1,1.2-0.2,1.7-0.2c0.2,0,0.5,0,0.7,0c0.1,0,0.2,0,0.2,0l0,0c0.1,0,0.2,0,0.4,0c0.3,0,0.6,0,0.8,0.1
							c2.3,0.3,4.3,1.3,6,2.5c0,0,0,0,0.1,0l0,0c0.6,0.4,1.3,0.7,2.1,1.3l0.9,0.6c0.4,0.2,0.7,0.4,1,0.5c0.2,0.1,0.5,0.2,0.7,0.3
							l0.1,0c0.9,0.4,1.7,0.7,2.6,0.9c0.2,0,0.5,0.1,0.7,0.1c0.6,0.1,1.2,0.1,1.9,0c0.2,0,0.4,0,0.6-0.1c0.4-0.1,0.9-0.2,1.3-0.4
							c0.2-0.1,0.4-0.1,0.6-0.2c0.6-0.2,1.2-0.5,1.9-0.9c0.2-0.1,0.4-0.2,0.7-0.3l0,0c0.1-0.1,0.2-0.1,0.4-0.2
							c0.7-0.4,1.3-0.8,2-1.2c0.3-0.2,0.6-0.3,0.9-0.5c0.2-0.1,0.5-0.3,0.7-0.4l0,0c1-0.5,2-1,3.1-1.3c0.1,0,0.1,0,0.2-0.1
							c0.8-0.3,1.6-0.5,2.4-0.6l0.2,0c0.6-0.1,1.2-0.2,1.7-0.2c0.2,0,0.5,0,0.7,0c0.1,0,0.2,0,0.3,0l0,0c0.1,0,0.2,0,0.4,0
							c0.3,0,0.6,0,0.8,0.1c2.2,0.3,4.1,1.2,5.6,2.2c0.2,0.1,0.4,0.2,0.6,0.3c0.6,0.4,1.3,0.8,2.1,1.3l1.2,0.8
							c0.2,0.1,0.4,0.2,0.7,0.3c0.2,0.1,0.5,0.2,0.7,0.3l0.1,0c0.9,0.4,1.8,0.7,2.6,0.9c0.2,0,0.5,0.1,0.7,0.1
							c0.6,0.1,1.2,0.1,1.9,0c0.2,0,0.4,0,0.6-0.1c0.4-0.1,0.9-0.2,1.3-0.4c0.2-0.1,0.4-0.1,0.6-0.2c0.6-0.2,1.2-0.5,1.9-0.9
							c0.2-0.1,0.4-0.2,0.7-0.3l0.1,0c0.1-0.1,0.2-0.1,0.4-0.2c0.7-0.4,1.3-0.8,2-1.2c0.3-0.2,0.6-0.4,0.9-0.5
							c0.2-0.1,0.5-0.3,0.7-0.4c1-0.6,2.1-1,3.1-1.3c0.5-0.2,1.1-0.3,1.6-0.4c0.4-0.1,0.9-0.2,1.3-0.2c2.4-0.3,4.9,0.1,7.2,1.1
							c0.4,0.2,0.8,0.3,1.1,0.5c0.4,0.2,1,0.5,1.6,0.9C219.1,199.9,219.8,200.3,220.6,200.8z"/>
						<path class="st7" d="M220.6,168l2.3,1.5l-2.2,1.7c-1.1,0.8-2.2,1.6-3.4,2.4l-1,0.6l-1-0.6c-0.6-0.4-1.2-0.7-1.7-0.9
							c-0.7-0.3-1.4-0.6-2-0.7c-0.5-0.1-0.9-0.2-1.4-0.2c-0.6,0-1.3,0.1-1.9,0.2c-0.1,0-0.2,0.1-0.4,0.1c-0.1,0-0.2,0.1-0.3,0.1
							c-0.7,0.3-1.4,0.7-2.1,1.1c-0.6,0.3-1.2,0.7-1.8,1c-0.2,0.1-0.4,0.2-0.6,0.3c-1.4,0.7-2.8,1.3-4.1,1.9
							c-0.2,0.1-0.4,0.2-0.7,0.2c-0.8,0.3-1.6,0.5-2.2,0.7c-0.2,0.1-0.5,0.1-0.7,0.2c-0.6,0.2-1.2,0.3-1.8,0.3
							c-1.4,0.2-2.8,0.1-4.4-0.3c-0.2-0.1-0.5-0.1-0.8-0.2c-1.3-0.3-2.5-0.8-3.8-1.4c-0.3-0.1-0.5-0.2-0.7-0.4l-0.1,0
							c-0.8-0.4-1.6-0.9-2.3-1.4c-0.1-0.1-0.2-0.1-0.3-0.2l0,0l-0.9-0.5c-0.7-0.4-1.2-0.7-1.7-0.9c-0.7-0.3-1.4-0.6-2.1-0.7
							c-0.4-0.1-0.9-0.2-1.3-0.2c-0.1,0-0.2,0-0.3,0l-0.1,0c-0.1,0-0.2,0-0.3,0c-0.1,0-0.2,0-0.3,0l-0.1,0c-0.1,0-0.3,0-0.4,0.1
							c-0.2,0-0.3,0.1-0.4,0.1c-0.5,0.1-0.9,0.3-1.2,0.5c-0.6,0.4-1.2,0.7-1.9,1.1l-0.9,0.5l-0.1,0c-0.2,0.1-0.3,0.2-0.5,0.2
							c-0.2,0.1-0.4,0.2-0.6,0.3c-1.4,0.7-2.8,1.3-4.1,1.9c-0.2,0.1-0.4,0.2-0.7,0.2c-0.8,0.3-1.5,0.5-2.3,0.7
							c-0.2,0.1-0.5,0.1-0.7,0.2c-0.6,0.2-1.2,0.3-1.8,0.3c-1.4,0.2-2.8,0.1-4.4-0.3c-0.3-0.1-0.5-0.1-0.8-0.2
							c-1.3-0.3-2.5-0.8-3.8-1.4c-0.3-0.1-0.5-0.2-0.7-0.4l0,0c-0.8-0.4-1.5-0.9-2.2-1.4l-0.1,0c-0.1-0.1-0.2-0.1-0.3-0.2l-0.1,0
							l-1-0.6c-0.6-0.4-1.2-0.7-1.7-0.9c-0.7-0.3-1.4-0.6-2.1-0.7c-0.4-0.1-0.9-0.2-1.3-0.2c-0.1,0-0.3,0-0.4,0
							c-0.2,0-0.3,0-0.5,0.1l-0.1,0c-0.1,0-0.3,0-0.4,0.1c-0.2,0-0.3,0.1-0.4,0.1c-0.5,0.1-0.9,0.3-1.2,0.5
							c-0.6,0.3-1.2,0.7-1.9,1.1l-1,0.5l-0.1-0.1c-0.2,0.1-0.3,0.2-0.5,0.3c-0.2,0.1-0.4,0.2-0.6,0.3c-1.4,0.7-2.8,1.3-4.1,1.9
							c-0.2,0.1-0.4,0.2-0.7,0.2c-0.8,0.3-1.5,0.5-2.2,0.7c-0.2,0.1-0.5,0.1-0.7,0.2c-0.6,0.2-1.2,0.3-1.8,0.3
							c-1.4,0.2-2.8,0.1-4.4-0.3c-0.2-0.1-0.5-0.1-0.8-0.2c-1.3-0.3-2.5-0.8-3.8-1.4c-0.2-0.1-0.5-0.2-0.7-0.4l-0.1,0
							c-0.8-0.4-1.5-0.9-2.2-1.4l-0.1,0c-0.1-0.1-0.2-0.1-0.3-0.2l0,0l-0.9-0.5c-0.6-0.4-1.2-0.7-1.7-0.9c-0.7-0.3-1.4-0.6-2.1-0.7
							c-0.4-0.1-0.9-0.2-1.3-0.2c-0.1,0-0.2,0-0.3,0l-0.1,0c-0.1,0-0.2,0-0.3,0c-0.1,0-0.2,0-0.3,0l-0.1,0c-0.1,0-0.3,0-0.4,0.1
							c-0.2,0-0.3,0.1-0.4,0.1c-0.5,0.1-0.9,0.3-1.2,0.5c-0.6,0.4-1.2,0.7-1.9,1.1l-1,0.6l-0.1,0c-0.1,0.1-0.3,0.1-0.4,0.2
							c-0.2,0.1-0.4,0.2-0.6,0.3c-1.4,0.7-2.8,1.3-4.1,1.9c-0.2,0.1-0.4,0.2-0.7,0.2c-0.8,0.3-1.5,0.5-2.2,0.7
							c-0.2,0.1-0.5,0.1-0.7,0.2c-0.6,0.2-1.2,0.3-1.8,0.3c-0.5,0.1-0.9,0.1-1.4,0.1c-1,0-2-0.1-3-0.4c-0.3-0.1-0.5-0.1-0.8-0.2
							c-1.3-0.3-2.5-0.8-3.8-1.4c-0.3-0.1-0.5-0.2-0.7-0.4l0,0c-0.8-0.4-1.5-0.9-2.2-1.4l-0.8-0.5c-1.8-1.1-4.2-2.4-6.5-2l-0.1,0
							c-0.1,0-0.3,0-0.4,0.1c-0.2,0-0.3,0.1-0.4,0.1c-0.5,0.1-0.9,0.3-1.2,0.5c-0.6,0.3-1.2,0.7-1.9,1.1l-1,0.6l-1-0.6
							c-1.2-0.7-2.4-1.6-3.5-2.4l-2.3-1.8l2.6-1.4c0.5-0.3,1-0.5,1.4-0.8c0.9-0.5,1.7-0.9,2.5-1.4c1.3-0.8,2.7-1.2,4.2-1.4l0.2,0
							c0.6-0.1,1.2-0.2,1.7-0.2c0.2,0,0.5,0,0.7,0c0.1,0,0.2,0,0.2,0l0,0c0.1,0,0.2,0,0.4,0c0.3,0,0.6,0,0.8,0.1
							c2.8,0.3,5,1.8,7,3.1c0.2,0.1,0.4,0.2,0.6,0.4c0.2,0.1,0.4,0.3,0.6,0.4c0.2,0.1,0.4,0.2,0.6,0.3c0.6,0.3,1,0.5,1.5,0.7
							c0.2,0.1,0.5,0.2,0.7,0.3l0,0c0.9,0.4,1.8,0.7,2.6,0.9c0.2,0,0.4,0.1,0.7,0.1c0.6,0.1,1.2,0.1,1.9,0c0.2,0,0.4-0.1,0.6-0.1
							c0.4-0.1,0.9-0.2,1.3-0.4c0.2-0.1,0.4-0.1,0.6-0.2c0.6-0.2,1.2-0.5,1.9-0.9c0.2-0.1,0.3-0.2,0.5-0.2l0.2-0.1
							c0.1-0.1,0.3-0.1,0.4-0.2c0.7-0.4,1.3-0.8,2-1.2c0.3-0.2,0.6-0.4,0.9-0.5c0.2-0.1,0.5-0.3,0.7-0.4l0,0c1-0.5,2-1,3.1-1.3
							c0.1,0,0.1,0,0.2-0.1c0.8-0.3,1.6-0.5,2.4-0.6l0.2,0c0.6-0.1,1.2-0.2,1.7-0.2c0.2,0,0.5,0,0.7,0c0.1,0,0.2,0,0.2,0l0,0
							c0.1,0,0.2,0,0.3,0c0.3,0,0.6,0,0.8,0.1c2.2,0.2,4.1,1.2,5.6,2.2c0.2,0.1,0.4,0.2,0.6,0.3c0.6,0.4,1.3,0.8,2.1,1.3l1.2,0.7
							c0.2,0.1,0.5,0.2,0.7,0.3c0.2,0.1,0.5,0.2,0.7,0.3l0.1,0c0.9,0.4,1.7,0.7,2.6,0.8c0.2,0,0.5,0.1,0.7,0.1
							c0.6,0.1,1.2,0.1,1.9,0c0.2,0,0.4-0.1,0.6-0.1c0.4-0.1,0.9-0.2,1.3-0.4c0.2-0.1,0.4-0.1,0.6-0.2c0.6-0.2,1.2-0.5,1.9-0.9
							c0.2-0.1,0.4-0.2,0.7-0.3c0.1-0.1,0.3-0.1,0.4-0.2c0.7-0.4,1.3-0.8,2-1.2c0.3-0.2,0.6-0.4,0.9-0.5l0.1,0
							c0.2-0.1,0.4-0.3,0.7-0.4l0,0c1-0.6,2-1,3.1-1.3c0.2-0.1,0.3-0.1,0.5-0.1l0.2-0.1l0.3,0c0.5-0.1,1.1-0.3,1.6-0.3l0.2,0
							c0.6-0.1,1.2-0.2,1.7-0.2c0.2,0,0.5,0,0.7,0c0.1,0,0.1,0,0.2,0l0.1,0c0.1,0,0.2,0,0.3,0c0.3,0,0.6,0,0.8,0.1
							c2.3,0.3,4.3,1.3,6,2.5c0,0,0,0,0.1,0l0,0c0.6,0.4,1.3,0.7,2.1,1.3l0.9,0.6c0.4,0.2,0.7,0.4,1,0.5c0.2,0.1,0.5,0.2,0.7,0.3
							l0.1,0c0.9,0.4,1.7,0.7,2.6,0.8c0.2,0,0.5,0.1,0.7,0.1c0.6,0.1,1.2,0.1,1.9,0c0.2,0,0.4-0.1,0.6-0.1c0.4-0.1,0.9-0.2,1.3-0.4
							c0.2-0.1,0.4-0.1,0.6-0.2c0.6-0.2,1.2-0.5,1.9-0.9c0.2-0.1,0.4-0.2,0.7-0.3c0.1-0.1,0.3-0.1,0.4-0.2c0.7-0.3,1.3-0.7,2-1.2
							c0.3-0.2,0.6-0.4,0.9-0.5l0,0c0.2-0.1,0.4-0.3,0.7-0.4l0,0c1-0.5,2-1,3.1-1.3c0.1,0,0.1,0,0.2-0.1c0.8-0.3,1.5-0.5,2.4-0.6
							l0.2,0c0.6-0.1,1.2-0.2,1.7-0.2c0.2,0,0.5,0,0.7,0c0.1,0,0.2,0,0.2,0l0,0c0.1,0,0.2,0,0.4,0c0.3,0,0.6,0,0.8,0.1
							c2.2,0.2,4.1,1.2,5.6,2.2c0.2,0.1,0.4,0.2,0.6,0.3c0.6,0.4,1.3,0.8,2.1,1.3l1.2,0.8c0.2,0.1,0.4,0.2,0.7,0.3
							c0.2,0.1,0.4,0.2,0.7,0.3l0.1,0c0.9,0.4,1.8,0.7,2.6,0.9c0.2,0,0.4,0.1,0.7,0.1c0.6,0.1,1.2,0.1,1.9,0c0.2,0,0.4-0.1,0.6-0.1
							c0.4-0.1,0.9-0.2,1.3-0.4c0.2-0.1,0.4-0.1,0.6-0.2c0.6-0.2,1.2-0.5,1.9-0.9c0.2-0.1,0.4-0.2,0.7-0.3l0,0
							c0.1-0.1,0.3-0.1,0.4-0.2c0.7-0.3,1.3-0.8,2-1.2c0.3-0.2,0.6-0.4,0.9-0.5l0.1,0c0.2-0.1,0.4-0.3,0.7-0.4l0,0
							c1-0.6,2-1,3.1-1.3c0.5-0.2,1.1-0.3,1.6-0.4c0.4-0.1,0.9-0.2,1.3-0.2c2.4-0.3,4.9,0.1,7.2,1.1c0.4,0.2,0.8,0.3,1.1,0.5
							c0.6,0.3,1.1,0.6,1.6,0.9C219.1,167.1,219.8,167.5,220.6,168z"/>
						<path class="st7" d="M59.9,154.6l-2.3-1.8l2.6-1.4c0.5-0.3,1-0.5,1.4-0.8c0.9-0.5,1.7-0.9,2.5-1.4c1.3-0.8,2.7-1.2,4.2-1.4
							l0.2,0c0.6-0.1,1.2-0.2,1.7-0.2c0.2,0,0.5,0,0.7,0c0.1,0,0.2,0,0.3,0c0.1,0,0.2,0,0.3,0c0.3,0,0.6,0,0.8,0.1
							c2.8,0.3,5,1.8,7,3.1c0.2,0.1,0.4,0.2,0.6,0.4c0.2,0.1,0.4,0.3,0.6,0.4c0.2,0.1,0.4,0.2,0.6,0.3c0.6,0.3,1,0.5,1.5,0.7
							c0.2,0.1,0.5,0.2,0.7,0.3l0,0c0.9,0.4,1.8,0.7,2.6,0.9c0.2,0,0.5,0.1,0.7,0.1c0.6,0.1,1.2,0.1,1.9,0c0.2,0,0.4-0.1,0.6-0.1
							c0.4-0.1,0.9-0.2,1.3-0.4c0.2-0.1,0.4-0.1,0.6-0.2c0.6-0.2,1.2-0.5,1.9-0.9c0.2-0.1,0.3-0.2,0.5-0.3l0.2-0.1
							c0.1-0.1,0.2-0.1,0.3-0.2c0.7-0.4,1.3-0.8,2-1.2c0.3-0.2,0.6-0.4,0.9-0.5c0.2-0.1,0.5-0.3,0.7-0.4l0,0c1-0.5,2-1,3.1-1.3
							c0.1,0,0.1,0,0.2-0.1c0.8-0.3,1.6-0.5,2.4-0.6l0.2,0c0.6-0.1,1.2-0.2,1.7-0.2c0.2,0,0.5,0,0.7,0c0.1,0,0.2,0,0.3,0h0
							c0.1,0,0.2,0,0.4,0c0.3,0,0.6,0,0.8,0.1c2.2,0.2,4.1,1.2,5.6,2.2c0.2,0.1,0.4,0.2,0.6,0.3c0.7,0.4,1.3,0.8,2.1,1.3l1.2,0.7
							c0.2,0.1,0.5,0.2,0.7,0.3c0.2,0.1,0.5,0.2,0.7,0.3l0.1,0c0.9,0.4,1.7,0.7,2.6,0.9c0.2,0,0.5,0.1,0.7,0.1
							c0.6,0.1,1.2,0.1,1.9,0c0.2,0,0.4-0.1,0.6-0.1c0.4-0.1,0.9-0.2,1.3-0.4c0.2-0.1,0.4-0.1,0.6-0.2c0.6-0.2,1.2-0.5,1.9-0.9
							c0.2-0.1,0.4-0.2,0.7-0.3l0,0c0.1-0.1,0.2-0.1,0.4-0.2c0.7-0.4,1.3-0.8,2-1.2c0.3-0.2,0.6-0.4,0.9-0.5
							c0.2-0.1,0.5-0.3,0.7-0.4c1-0.6,2.1-1,3.1-1.3c0.2-0.1,0.5-0.1,0.7-0.2c0,0,0.1,0,0.1,0c0.6-0.2,1.2-0.3,1.8-0.4l0.2,0
							c0.6-0.1,1.2-0.2,1.7-0.2c0.2,0,0.5,0,0.7,0c0.1,0,0.2,0,0.2,0l0,0c0.1,0,0.2,0,0.4,0c0.3,0,0.6,0,0.8,0.1
							c2.3,0.3,4.3,1.3,6,2.5c0,0,0,0,0.1,0l0,0c0.6,0.4,1.3,0.7,2.1,1.3l0.9,0.6c0.4,0.2,0.7,0.4,1,0.5c0.2,0.1,0.5,0.2,0.7,0.3
							l0.1,0c0.9,0.4,1.7,0.7,2.6,0.9c0.2,0,0.5,0.1,0.7,0.1c0.6,0.1,1.2,0.1,1.9,0c0.2,0,0.4-0.1,0.6-0.1c0.4-0.1,0.9-0.2,1.3-0.4
							c0.2-0.1,0.4-0.1,0.6-0.2c0.6-0.2,1.2-0.5,1.9-0.9l0.7-0.3l0,0c0.1-0.1,0.2-0.1,0.4-0.2c0.7-0.3,1.3-0.7,2-1.2
							c0.3-0.2,0.6-0.4,0.9-0.5c0.2-0.1,0.5-0.3,0.7-0.4l0,0c1-0.5,2-1,3.1-1.3c0.1,0,0.1,0,0.2-0.1c0.8-0.3,1.6-0.5,2.4-0.6l0.2,0
							c0.6-0.1,1.2-0.2,1.7-0.2c0.2,0,0.5,0,0.7,0c0.1,0,0.2,0,0.3,0h0c0.1,0,0.2,0,0.4,0c0.3,0,0.6,0,0.8,0.1
							c2.2,0.2,4.1,1.2,5.6,2.2c0.2,0.1,0.4,0.2,0.6,0.4c0.6,0.4,1.3,0.8,2.1,1.3l1.2,0.8c0.2,0.1,0.4,0.2,0.7,0.3
							c0.2,0.1,0.4,0.2,0.7,0.3l0.1,0c0.9,0.4,1.8,0.7,2.6,0.9c0.2,0,0.5,0.1,0.7,0.1c0.6,0.1,1.2,0.1,1.9,0c0.2,0,0.4-0.1,0.6-0.1
							c0.4-0.1,0.9-0.2,1.3-0.4c0.2-0.1,0.4-0.1,0.6-0.2c0.6-0.2,1.2-0.5,1.9-0.9c0.2-0.1,0.4-0.2,0.7-0.3l0.1,0
							c0.1-0.1,0.2-0.1,0.4-0.2c0.7-0.4,1.3-0.8,2-1.2c0.3-0.2,0.6-0.4,0.9-0.5c0.2-0.1,0.5-0.3,0.7-0.4c1-0.6,2.1-1,3.1-1.3
							c0.5-0.2,1.1-0.3,1.6-0.4c0.4-0.1,0.9-0.2,1.3-0.2c2.4-0.3,4.9,0.1,7.2,1.1c0.4,0.2,0.8,0.3,1.1,0.5c0.4,0.2,1,0.5,1.6,0.9
							c0.6,0.4,1.3,0.8,2.1,1.3l2.3,1.5l-2.2,1.7c-1.1,0.8-2.2,1.6-3.4,2.4l-1,0.6l-1-0.6c-0.6-0.4-1.2-0.6-1.7-0.9
							c-0.7-0.3-1.4-0.6-2-0.7c-0.5-0.1-0.9-0.2-1.4-0.2c-0.6,0-1.3,0.1-1.9,0.2c-0.1,0-0.2,0.1-0.4,0.1c-0.1,0-0.2,0.1-0.3,0.1
							c-0.7,0.3-1.4,0.7-2.1,1.1c-0.6,0.3-1.2,0.7-1.8,1c-0.2,0.1-0.4,0.2-0.6,0.3c-1.4,0.7-2.8,1.3-4.1,1.9
							c-0.2,0.1-0.4,0.1-0.6,0.2l-0.1,0c-0.8,0.3-1.5,0.5-2.3,0.7c-0.2,0.1-0.5,0.1-0.7,0.2c-0.6,0.2-1.2,0.3-1.8,0.3
							c-1.4,0.2-2.8,0.1-4.4-0.3c-0.2-0.1-0.5-0.1-0.8-0.2c-1.3-0.3-2.5-0.8-3.8-1.4l0,0c-0.2-0.1-0.5-0.2-0.7-0.3l-0.1,0
							c-0.8-0.4-1.6-0.9-2.3-1.4c-0.1-0.1-0.2-0.1-0.3-0.2l0,0l-1-0.5c-0.6-0.4-1.2-0.7-1.7-0.9c-0.7-0.3-1.4-0.6-2.1-0.7
							c-0.4-0.1-0.9-0.2-1.3-0.2c-0.1,0-0.2,0-0.3,0l-0.1,0c-0.1,0-0.2,0-0.3,0c-0.1,0-0.2,0-0.3,0l-0.1,0c-0.1,0-0.3,0-0.4,0.1
							c-0.2,0-0.3,0.1-0.4,0.1c-0.5,0.1-0.9,0.3-1.2,0.5c-0.6,0.4-1.2,0.7-1.9,1.1l-0.9,0.5l-0.1,0c-0.2,0.1-0.3,0.2-0.5,0.3
							c-0.2,0.1-0.4,0.2-0.6,0.3c-1.4,0.7-2.8,1.3-4.1,1.9c-0.2,0.1-0.4,0.2-0.7,0.2c-0.8,0.3-1.5,0.5-2.3,0.7
							c-0.2,0.1-0.5,0.1-0.7,0.2c-0.6,0.2-1.2,0.3-1.8,0.3c-1.4,0.2-2.9,0.1-4.4-0.3c-0.2-0.1-0.5-0.1-0.8-0.2
							c-1.3-0.3-2.5-0.8-3.8-1.4c-0.3-0.1-0.5-0.2-0.7-0.4l0,0c-0.8-0.4-1.5-0.9-2.2-1.4l-0.1,0c-0.1-0.1-0.2-0.1-0.3-0.2l-0.1,0
							l-1-0.6c-0.6-0.4-1.2-0.7-1.7-0.9c-0.7-0.3-1.4-0.6-2.1-0.7c-0.4-0.1-0.9-0.2-1.3-0.2c-0.3,0-0.6,0-0.8,0.1l-0.1,0
							c-0.1,0-0.3,0-0.4,0.1c-0.2,0-0.3,0.1-0.4,0.1c-0.5,0.1-0.9,0.3-1.2,0.5c-0.6,0.3-1.2,0.7-1.9,1.1l-1,0.5l-0.1-0.1
							c-0.2,0.1-0.3,0.2-0.5,0.2c-0.2,0.1-0.4,0.2-0.6,0.3c-1.4,0.7-2.8,1.3-4.1,1.9c-0.2,0.1-0.4,0.2-0.7,0.2
							c-0.8,0.3-1.5,0.5-2.2,0.7c-0.2,0.1-0.5,0.1-0.7,0.2c-0.6,0.2-1.2,0.3-1.8,0.3c-1.4,0.2-2.8,0.1-4.4-0.3
							c-0.2-0.1-0.5-0.1-0.8-0.2c-1.3-0.3-2.5-0.8-3.8-1.4c-0.2-0.1-0.5-0.2-0.7-0.4l-0.1,0c-0.8-0.4-1.5-0.9-2.2-1.4l-0.1,0
							c-0.1-0.1-0.2-0.1-0.3-0.2l0,0l-0.9-0.5c-0.6-0.4-1.2-0.7-1.7-0.9c-0.7-0.3-1.4-0.6-2.1-0.7c-0.4-0.1-0.9-0.2-1.3-0.2
							c-0.1,0-0.2,0-0.3,0l-0.1,0c-0.1,0-0.2,0-0.3,0c-0.1,0-0.2,0-0.3,0l-0.1,0c-0.1,0-0.3,0-0.4,0.1c-0.2,0-0.3,0.1-0.4,0.1
							c-0.5,0.1-0.9,0.3-1.2,0.5c-0.6,0.4-1.2,0.7-1.9,1.1l-1,0.6l-0.1,0c-0.1,0.1-0.3,0.1-0.4,0.2c-0.2,0.1-0.4,0.2-0.6,0.3
							c-1.4,0.7-2.8,1.3-4.1,1.9c-0.2,0.1-0.4,0.2-0.7,0.2c-0.8,0.3-1.5,0.5-2.2,0.7c-0.2,0.1-0.5,0.1-0.7,0.2
							c-0.6,0.2-1.2,0.3-1.8,0.3c-0.5,0.1-0.9,0.1-1.4,0.1c-1,0-2-0.1-3-0.4c-0.2-0.1-0.5-0.1-0.8-0.2c-1.3-0.3-2.5-0.8-3.8-1.4
							c-0.3-0.1-0.5-0.2-0.7-0.4l0,0c-0.8-0.4-1.5-0.9-2.2-1.4l-0.8-0.5c-1.8-1.1-4.2-2.4-6.5-2l-0.1,0c-0.1,0-0.3,0-0.4,0.1
							c-0.2,0-0.3,0.1-0.4,0.1c-0.5,0.1-0.9,0.3-1.2,0.5c-0.6,0.3-1.2,0.7-1.9,1.1l-1,0.6l-1-0.6C62.2,156.2,61,155.4,59.9,154.6z"
							/>
					</g>
				</g>
			</g>
		</g>
		<g>
			<g>
				<g>
					<path class="st7" d="M162.9,90.5c-0.3-0.4-0.8-0.5-1.1-0.1l-78.6,81v1.4h1.2l78.4-80.8C163.2,91.6,163.2,90.9,162.9,90.5z"/>
				</g>
			</g>
		</g>
		<path class="st7" d="M159.4,95.2l1.2-0.3c0.3-0.1,0.5-0.2,0.7-0.5l0.3-0.4c0.4-0.2,0.6-0.6,0.6-1.1l0.1-0.9l-0.9-1.7l-0.9,0.1
			l-0.9,0.9c0,0-0.5,0.8-0.6,1s-0.4,0.9-0.5,1.1c-0.1,0.2-0.4,1.1-0.4,1.1L159.4,95.2z"/>
	</g>
	<path class="st10" d="M68.8,254.4C30.8,230.8,5.4,188.7,5.4,140.6C5.4,66.7,65.3,6.7,139.3,6.7c46.7,0,87.9,24,111.8,60.3"/>
	<g>
		<g>
			<g>
				<path class="st11" d="M81.4,262.1l0.3,2.2l-0.2,0c-0.1-0.2-0.1-0.3-0.2-0.3c-0.1,0-0.3,0-0.7,0c-0.9,0.1-1.6,0-2.1-0.1
					c-0.5-0.1-1.1-0.3-1.7-0.6c-1.3-0.6-2.2-1.5-2.7-2.5c-0.3-0.6-0.5-1.2-0.5-1.9c0-0.8,0.1-1.5,0.5-2.2c0.5-1,1.2-1.7,2.1-2.1
					c1.4-0.7,3-0.5,4.7,0.3c0.6,0.3,1.1,0.7,1.5,1c0.4,0.4,0.8,0.9,1.3,1.6c0.2,0.3,0.4,0.5,0.5,0.6c0.1,0,0.2,0,0.3,0l0.1,0.2
					l-2,1.1l-0.1-0.2c0-0.1,0.1-0.1,0.1-0.2c0.1-0.1,0.1-0.2,0-0.4c0-0.1-0.2-0.4-0.3-0.6c-0.5-0.7-1.1-1.3-1.9-1.7
					c-0.9-0.5-1.8-0.6-2.5-0.4c-0.9,0.2-1.6,0.8-2,1.6c-0.4,0.9-0.5,1.7-0.1,2.6c0.3,0.7,0.9,1.3,1.8,1.8c0.8,0.4,1.6,0.6,2.5,0.5
					c0.3,0,0.6,0,0.7-0.1c0.1-0.1,0.3-0.1,0.3-0.2c0,0,0-0.1,0.1-0.2L81.4,262.1z"/>
				<path class="st11" d="M97.6,267.5l-4.9-1.7l-1,3.1c0,0.1,0,0.2,0,0.3c0,0.1,0.1,0.2,0.3,0.3l-0.1,0.2l-2.6-0.9l0.1-0.2
					c0.2,0,0.3,0,0.4-0.1c0.1,0,0.1-0.1,0.2-0.3l2.5-7.2c0-0.1,0-0.2,0-0.3s-0.1-0.2-0.3-0.3l0.1-0.2l2.6,0.9l-0.1,0.2
					c-0.2,0-0.3,0-0.4,0.1s-0.1,0.1-0.2,0.3l-0.9,2.7l4.9,1.7l0.9-2.7c0-0.1,0-0.2,0-0.3c0-0.1-0.1-0.2-0.3-0.3l0.1-0.2l2.6,0.9
					l-0.1,0.2c-0.2,0-0.3,0-0.4,0.1c-0.1,0-0.1,0.1-0.2,0.3l-2.5,7.2c0,0.1,0,0.2,0,0.3c0,0.1,0.1,0.2,0.3,0.3l-0.1,0.2l-2.6-0.9
					l0.1-0.2c0.2,0,0.3,0,0.4-0.1c0.1,0,0.1-0.1,0.2-0.3L97.6,267.5z"/>
				<path class="st11" d="M107.8,273.6l1.7-7.4c0-0.1,0-0.2,0-0.3c0-0.1-0.1-0.2-0.3-0.2l0-0.2l2.7,0.6l0,0.2c-0.2,0-0.3,0-0.4,0.1
					c-0.1,0.1-0.1,0.1-0.2,0.3l-1.7,7.4c0,0.1,0,0.2,0,0.3c0,0.1,0.1,0.2,0.3,0.2l0,0.2l-2.7-0.6l0-0.2c0.2,0,0.3,0,0.4-0.1
					S107.8,273.7,107.8,273.6z"/>
				<path class="st11" d="M121.6,270.6L121,276c0,0.1,0,0.2,0.1,0.3c0.1,0.1,0.2,0.1,0.3,0.2l0,0.2l-2.6-0.3l0-0.2
					c0.2,0,0.3-0.1,0.3-0.1c0.1-0.1,0.1-0.2,0.1-0.3l0.8-7.5c0-0.1,0-0.2-0.1-0.3s-0.2-0.1-0.3-0.2l0-0.2l3,0.3l0,0.2
					c-0.2,0-0.3,0.1-0.3,0.3c0,0.1,0,0.2,0.1,0.4l4.4,5.7l0.6-5.3c0-0.1,0-0.2-0.1-0.3s-0.2-0.1-0.3-0.2l0-0.2l2.6,0.3l0,0.2
					c-0.2,0-0.3,0.1-0.3,0.1s-0.1,0.2-0.1,0.3l-0.8,7.5c0,0.1,0,0.2,0.1,0.3c0.1,0.1,0.2,0.1,0.3,0.2l0,0.2l-2.8-0.3l0-0.2
					c0.2,0,0.3-0.1,0.3-0.3c0-0.1-0.1-0.3-0.3-0.5L121.6,270.6z"/>
				<path class="st11" d="M144.5,275.5l-4.1,0.1l-0.6,1.3c-0.1,0.2-0.1,0.3-0.1,0.4c0,0.2,0.2,0.3,0.4,0.4l0,0.2l-3,0.1l0-0.2
					c0.2,0,0.3-0.1,0.4-0.2c0.1-0.1,0.2-0.3,0.3-0.5l3.1-7c0.1-0.2,0.1-0.4,0.1-0.5c0-0.2-0.1-0.3-0.4-0.4l0-0.2l3.2-0.1l0,0.2
					c-0.3,0.1-0.4,0.2-0.4,0.4c0,0.1,0,0.3,0.1,0.4l3.6,6.8c0.2,0.3,0.3,0.5,0.4,0.6c0.1,0.1,0.3,0.2,0.4,0.2l0,0.2l-3.3,0.1l0-0.2
					c0.3-0.1,0.4-0.2,0.4-0.4c0-0.1,0-0.2-0.1-0.4L144.5,275.5z M143.9,274.2l-1.5-3.2l-1.4,3.2L143.9,274.2z"/>
				<path class="st11" d="M161.9,276l-4.3-5.6l0.9,5.4c0,0.1,0.1,0.2,0.1,0.3s0.2,0.1,0.4,0.1l0,0.2l-2.6,0.4l0-0.2
					c0.1-0.1,0.2-0.1,0.3-0.2c0-0.1,0.1-0.2,0-0.3l-1.2-7.5c0-0.1-0.1-0.2-0.1-0.3c-0.1-0.1-0.2-0.1-0.4-0.1l0-0.2l3.4-0.6l0,0.2
					c-0.2,0.1-0.3,0.2-0.2,0.4c0,0.1,0.1,0.2,0.1,0.3l3.2,4.2l1.7-4.9c0.1-0.2,0.1-0.4,0.1-0.5c0-0.2-0.2-0.3-0.4-0.2l0-0.2l3.3-0.6
					l0,0.2c-0.1,0.1-0.2,0.1-0.3,0.2c0,0.1-0.1,0.2,0,0.3l1.2,7.5c0,0.1,0.1,0.2,0.1,0.3c0.1,0.1,0.2,0.1,0.4,0.1l0,0.2l-2.8,0.5
					l0-0.2c0.1-0.1,0.2-0.1,0.3-0.2c0.1-0.1,0.1-0.2,0-0.3l-0.9-5.4L161.9,276z"/>
				<path class="st11" d="M177.7,268.7l0.9,2.8c0,0.1,0.1,0.2,0.2,0.3c0.1,0.1,0.2,0.1,0.4,0.1l0.1,0.2l-2.7,0.8l-0.1-0.2
					c0.1-0.1,0.2-0.2,0.3-0.3c0-0.1,0-0.2,0-0.3l-2.2-7.3c0-0.1-0.1-0.2-0.2-0.3c-0.1,0-0.2-0.1-0.4-0.1l-0.1-0.2l5.3-1.7
					c0.6-0.2,1.1-0.3,1.5-0.3c0.4,0,0.8,0,1.1,0.1c0.4,0.1,0.7,0.3,0.9,0.6c0.3,0.3,0.5,0.7,0.6,1.1c0.2,0.6,0.2,1.1,0,1.7
					c-0.2,0.5-0.4,0.8-0.8,1.1c-0.4,0.3-1,0.6-1.8,0.8L177.7,268.7z M177.3,267.3l2.9-0.9c0.6-0.2,1-0.4,1.1-0.6
					c0.1-0.1,0.2-0.3,0.2-0.5s0-0.4,0-0.6c-0.1-0.2-0.2-0.4-0.3-0.5c-0.1-0.1-0.3-0.2-0.5-0.3c-0.3-0.1-0.7,0-1.3,0.2l-2.9,0.9
					L177.3,267.3z"/>
				<path class="st11" d="M197.5,262.7l-3.7,1.7l0,1.4c0,0.2,0,0.3,0.1,0.4c0.1,0.2,0.3,0.2,0.6,0.2l0.1,0.2l-2.7,1.2l-0.1-0.2
					c0.1-0.1,0.2-0.2,0.3-0.3c0-0.1,0.1-0.3,0.1-0.6l0.2-7.6c0-0.2,0-0.4-0.1-0.5c-0.1-0.2-0.3-0.3-0.5-0.2l-0.1-0.2l2.9-1.3
					l0.1,0.2c-0.2,0.2-0.3,0.3-0.2,0.5c0.1,0.1,0.1,0.2,0.3,0.3l6,4.9c0.3,0.2,0.4,0.3,0.6,0.4c0.1,0.1,0.3,0.1,0.5,0l0.1,0.2
					l-3,1.4l-0.1-0.2c0.2-0.2,0.3-0.3,0.2-0.5c0-0.1-0.1-0.2-0.3-0.3L197.5,262.7z M196.4,261.8l-2.6-2.3l0,3.5L196.4,261.8z"/>
				<path class="st11" d="M210.2,254.1l1.6,2.6c0.1,0.1,0.2,0.2,0.2,0.2c0.1,0,0.2,0,0.4,0l0.1,0.2l-2.4,1.5l-0.1-0.2
					c0.1-0.1,0.2-0.2,0.2-0.3c0-0.1,0-0.2-0.1-0.3l-1.6-2.6l-4.6-2c-0.4-0.2-0.7-0.3-0.9-0.3c-0.2,0-0.4,0-0.5,0.1l-0.1-0.2l3-1.8
					l0.1,0.2c-0.2,0.2-0.3,0.4-0.2,0.6c0,0.1,0.2,0.2,0.5,0.3l2.6,1.2l0.2-2.9c0-0.3,0-0.5,0-0.6c-0.1-0.1-0.1-0.1-0.2-0.2
					c-0.1,0-0.2,0-0.3,0l-0.1-0.2l3-1.8l0.1,0.2c-0.2,0.1-0.3,0.3-0.3,0.5c-0.1,0.2-0.1,0.5-0.1,0.9L210.2,254.1z"/>
				<path class="st11" d="M219.9,240.8c1.2-1,2.5-1.4,3.7-1.3c1.3,0.1,2.4,0.7,3.3,1.8c0.5,0.7,0.8,1.4,0.9,2.3
					c0.2,1.7-0.5,3.2-2.2,4.5c-1.2,1-2.5,1.4-3.7,1.3c-0.7-0.1-1.3-0.2-1.9-0.6c-0.5-0.3-1-0.7-1.3-1.2c-0.6-0.7-0.9-1.5-1-2.4
					C217.6,243.6,218.3,242.1,219.9,240.8z M220.9,242c-0.7,0.5-1.1,1.2-1.2,1.9c-0.2,0.9,0.1,1.7,0.7,2.5c0.6,0.8,1.4,1.2,2.3,1.2
					c0.8,0,1.5-0.2,2.2-0.7c0.7-0.5,1.1-1.2,1.2-1.9c0.1-0.4,0.1-0.9-0.1-1.4c-0.1-0.4-0.3-0.8-0.6-1.1c-0.6-0.8-1.4-1.2-2.3-1.3
					C222.3,241.3,221.6,241.5,220.9,242z"/>
				<path class="st11" d="M236.8,236.1l3.9-3.9c0.1-0.1,0.1-0.2,0.2-0.3c0-0.1,0-0.2-0.1-0.4l0.1-0.1l1.7,1.6l-0.1,0.1
					c-0.1-0.1-0.3-0.1-0.4-0.1c-0.1,0-0.2,0.1-0.3,0.2l-5.5,5.6l-0.1-0.1c0.1-0.1,0.1-0.3,0.1-0.4c0-0.1-0.1-0.2-0.2-0.3l-5.4-5.3
					c-0.1-0.1-0.2-0.1-0.3-0.2s-0.2,0-0.4,0.1l-0.1-0.1l2-2l0.2,0.1c-0.1,0.1-0.1,0.3-0.1,0.4c0,0.1,0.1,0.2,0.2,0.3L236.8,236.1z"
					/>
				<path class="st11" d="M243.4,217.1c0.9-1.2,2-2,3.3-2.2c1.3-0.2,2.5,0.1,3.6,0.9c0.7,0.5,1.2,1.2,1.5,2c0.6,1.6,0.3,3.2-1,4.9
					c-0.9,1.2-2,2-3.3,2.2c-0.7,0.1-1.3,0.1-2-0.1c-0.6-0.2-1.1-0.4-1.6-0.8c-0.7-0.5-1.2-1.2-1.5-2
					C241.8,220.4,242.1,218.7,243.4,217.1z M244.6,218c-0.5,0.7-0.7,1.4-0.7,2.2c0.1,0.9,0.5,1.6,1.3,2.2c0.8,0.6,1.6,0.8,2.5,0.6
					c0.8-0.1,1.4-0.6,1.9-1.3c0.5-0.7,0.8-1.4,0.7-2.2c0-0.5-0.2-0.9-0.4-1.3c-0.2-0.4-0.5-0.7-0.8-0.9c-0.8-0.6-1.6-0.8-2.5-0.6
					C245.7,216.9,245.1,217.3,244.6,218z"/>
				<path class="st11" d="M266,189.4l1.7,0.7l1.7-4.3c0-0.1,0.1-0.2,0-0.3c0-0.1-0.1-0.2-0.2-0.3l0.1-0.2l2,0.8l-0.1,0.2
					c-0.2,0-0.3,0-0.4,0c-0.1,0-0.2,0.1-0.2,0.3l-2.5,6.4l-0.2-0.1c0-0.2,0-0.3,0-0.4s-0.1-0.2-0.3-0.2l-5.6-2.2
					c-0.1-0.1-0.2-0.1-0.3,0c-0.1,0-0.2,0.1-0.3,0.2l-0.2-0.1l2.4-6.2c0.1-0.1,0.1-0.2,0-0.3c0-0.1-0.1-0.2-0.2-0.3l0.1-0.2l2,0.8
					l-0.1,0.2c-0.2,0-0.3,0-0.4,0c-0.1,0-0.2,0.1-0.2,0.3l-1.6,4.2l1.5,0.6l1-2.6c0-0.1,0.1-0.2,0-0.3c0-0.1-0.1-0.2-0.2-0.3
					l0.1-0.2l2,0.8l-0.1,0.2c-0.2,0-0.3,0-0.4,0c-0.1,0-0.2,0.1-0.2,0.3L266,189.4z"/>
				<path class="st11" d="M269.4,174.3l4,1.1c0.1,0,0.2,0,0.3,0s0.2-0.1,0.3-0.3l0.2,0l-0.6,2.4l-0.2,0c0-0.2,0-0.3-0.1-0.4
					c-0.1-0.1-0.1-0.1-0.3-0.2l-5.8-1.5c-0.1,0-0.2,0-0.3,0c-0.1,0-0.2,0.1-0.3,0.3l-0.2,0l0.7-2.7l0.2,0c0,0.2,0.1,0.3,0.2,0.3
					c0.1,0,0.2,0,0.4-0.1l4.8-2.8l-3.9-1c-0.1,0-0.2,0-0.3,0c-0.1,0-0.2,0.1-0.3,0.3l-0.2,0l0.6-2.4l0.2,0c0,0.2,0,0.3,0.1,0.4
					s0.1,0.1,0.3,0.2l5.8,1.5c0.1,0,0.2,0,0.3,0c0.1,0,0.2-0.1,0.3-0.3l0.2,0l-0.7,2.6l-0.2,0c0-0.2,0-0.3-0.2-0.3
					c-0.1,0-0.1,0-0.2,0c-0.1,0-0.2,0.1-0.5,0.3L269.4,174.3z"/>
				<path class="st11" d="M276.8,160l-6-0.8c-0.1,0-0.2,0-0.3,0c-0.1,0.1-0.2,0.2-0.2,0.3l-0.2,0l0.6-4.3c0.1-0.9,0.3-1.6,0.6-2.1
					c0.4-0.7,1-1.1,1.8-1.3c0.5-0.2,1.1-0.2,1.8-0.1c1.2,0.2,2.1,0.7,2.7,1.5c0.2,0.4,0.4,0.8,0.5,1.3s0.1,1,0,1.7l-0.6,4.3l-0.2,0
					c0-0.2-0.1-0.3-0.1-0.3C277,160,276.9,160,276.8,160z M276.4,158.1l0.2-1.9c0.1-0.9,0-1.5-0.3-1.9c-0.4-0.5-0.9-0.7-1.7-0.8
					c-0.8-0.1-1.4,0-1.8,0.4c-0.2,0.2-0.4,0.4-0.5,0.7c-0.1,0.3-0.2,0.6-0.3,1.1l-0.2,1.9L276.4,158.1z"/>
				<path class="st11" d="M269.1,138l0.2,0c0,0.2,0.1,0.3,0.2,0.4l1.1,1c0,0,0.1,0,0.1,0c0.1,0,0.1,0,0.1-0.1c0,0,0,0,0,0l0.2,0
					l0,1.4l-0.2,0c0-0.1,0-0.2,0-0.2c0,0-0.1-0.1-0.2-0.1l-1.1-0.5c0,0-0.1,0-0.1,0c-0.1,0-0.1,0.1-0.1,0.2l-0.2,0L269.1,138z
					 M276,141.5l1.8,0l0.1-4.7c0-0.1,0-0.2-0.1-0.3c-0.1-0.1-0.2-0.1-0.3-0.2l0-0.2l2.2,0l0,0.2c-0.2,0-0.3,0.1-0.3,0.2
					c-0.1,0.1-0.1,0.2-0.1,0.3l-0.1,6.9l-0.2,0c0-0.2-0.1-0.3-0.2-0.3c-0.1-0.1-0.2-0.1-0.3-0.1l-6-0.1c-0.1,0-0.2,0-0.3,0.1
					s-0.1,0.2-0.2,0.3l-0.2,0l0.1-6.6c0-0.1,0-0.2-0.1-0.3c-0.1-0.1-0.2-0.1-0.3-0.2l0-0.2l2.2,0l0,0.2c-0.2,0-0.3,0.1-0.3,0.2
					c-0.1,0.1-0.1,0.2-0.1,0.3l-0.1,4.5l1.6,0l0-2.8c0-0.1,0-0.2-0.1-0.3c-0.1-0.1-0.2-0.1-0.3-0.2l0-0.2l2.1,0l0,0.2
					c-0.2,0-0.3,0.1-0.3,0.2c-0.1,0.1-0.1,0.2-0.1,0.3L276,141.5z"/>
				<path class="st11" d="M278.4,123l-4.5,3.2l4.1-0.4c0.1,0,0.2-0.1,0.3-0.1s0.1-0.2,0.1-0.3l0.2,0l0.3,2.4l-0.2,0
					c-0.1-0.1-0.1-0.3-0.2-0.3c-0.1-0.1-0.2-0.1-0.3-0.1l-6,0.6c-0.1,0-0.2,0.1-0.3,0.1c-0.1,0.1-0.1,0.2-0.1,0.3l-0.2,0l-0.3-3.1
					l0.2,0c0.1,0.2,0.2,0.3,0.4,0.3c0.2,0,0.4-0.1,0.6-0.3l3.1-2.2l-3.5-1.5c-0.4-0.2-0.6-0.3-0.8-0.2c-0.2,0-0.3,0.1-0.3,0.4
					l-0.2,0l-0.3-3l0.2,0c0.1,0.2,0.1,0.3,0.2,0.3c0.1,0.1,0.2,0.1,0.3,0.1l6-0.6c0.1,0,0.2-0.1,0.3-0.1c0.1-0.1,0.1-0.2,0.1-0.3
					l0.2,0l0.3,2.6l-0.2,0c-0.1-0.1-0.1-0.3-0.2-0.3c-0.1-0.1-0.2-0.1-0.3-0.1l-4.1,0.4L278.4,123z"/>
				<path class="st11" d="M269.3,108.8l5.9-1.3c0.1,0,0.2-0.1,0.3-0.2c0.1-0.1,0.1-0.2,0.1-0.4l0.2,0l0.5,2.5l-0.2,0
					c-0.1-0.1-0.1-0.2-0.2-0.3c-0.1,0-0.2-0.1-0.3,0l-5.9,1.3c-0.1,0-0.2,0.1-0.3,0.2c-0.1,0.1-0.1,0.2-0.1,0.4l-0.2,0l-0.5-2.5
					l0.2,0c0.1,0.1,0.2,0.2,0.2,0.3C269.1,108.8,269.2,108.8,269.3,108.8z"/>
				<path class="st11" d="M269,92.6l1.2-1.6l0.2,0.1c0,0.1,0,0.2,0,0.3c0,0.1,0.2,0.2,0.4,0.4c0.5,0.5,0.9,0.9,1.2,1.3
					c0.3,0.4,0.5,0.9,0.7,1.5c0.4,1.1,0.4,2.2,0.1,3.1c-0.2,0.5-0.5,1-0.9,1.4c-0.4,0.4-0.9,0.7-1.5,0.9c-0.8,0.3-1.6,0.3-2.4,0
					c-1.2-0.4-2.1-1.4-2.6-3c-0.2-0.6-0.3-1.1-0.3-1.6c0-0.5,0.1-1.1,0.2-1.7c0.1-0.3,0.1-0.5,0.1-0.6c0-0.1-0.1-0.1-0.2-0.2
					l0.1-0.2l1.9,0.6l-0.1,0.2c0,0-0.1,0-0.1,0c0,0-0.1,0-0.1,0c-0.2,0.1-0.3,0.4-0.4,1.1c-0.1,0.6,0,1.2,0.2,1.7
					c0.2,0.8,0.6,1.3,1.2,1.7c0.6,0.4,1.3,0.5,2,0.3c0.7-0.2,1.2-0.7,1.5-1.4c0.2-0.6,0.2-1.3,0-2.1c-0.2-0.6-0.5-1.1-1-1.6
					c-0.4-0.4-0.7-0.5-0.8-0.5c0,0-0.1,0-0.2,0.1L269,92.6z"/>
				<path class="st11" d="M259.5,82.3c-0.5-1.1-0.6-2.1-0.4-3c0.3-1.1,1-2,2.1-2.5c1.1-0.5,2.2-0.5,3.2,0.1c0.9,0.5,1.5,1.2,2,2.3
					c0.5,1.1,0.6,2.1,0.4,3c-0.3,1.2-1,2-2.1,2.5c-1.1,0.5-2.2,0.5-3.3,0C260.7,84.1,260,83.3,259.5,82.3z M260.7,81.7
					c0.3,0.7,0.8,1.1,1.4,1.4c0.6,0.2,1.2,0.2,1.8-0.1c0.6-0.3,1-0.7,1.3-1.3c0.2-0.6,0.2-1.3-0.1-2c-0.3-0.7-0.8-1.1-1.4-1.4
					c-0.6-0.2-1.2-0.2-1.8,0.1c-0.7,0.3-1.1,0.7-1.3,1.3C260.4,80.3,260.4,81,260.7,81.7z"/>
			</g>
		</g>
	</g>
</g>
</svg>
